<svg width="112" height="55" viewBox="0 0 112 55" fill="none" xmlns="http://www.w3.org/2000/svg">
<g clip-path="url(#clip0_360_3054)">
<path d="M15.8101 14.2843C16.6869 14.8217 17.3689 15.1845 17.9905 15.6335C18.9091 16.2964 19.9389 16.9314 20.375 18.013C21.05 19.6925 21.4119 21.4393 21.0361 23.2932C20.5791 25.5495 19.1781 27.1475 17.3248 28.2268C16.0885 28.9456 14.6689 29.4759 13.1171 29.5131C10.7767 29.5713 8.43856 29.4945 6.09813 29.541C4.31438 29.5759 2.53064 29.5899 0.746899 29.6504C0.169328 29.6666 0 29.4782 0 28.899C0.0162369 19.7715 0.0139174 10.644 0.00231956 1.51422C0.00231956 1.03738 0.113658 0.865251 0.628601 0.867577C4.54866 0.890838 8.46872 0.84199 12.3888 0.900142C15.8008 0.951315 19.5446 3.66351 20.2637 6.60134C20.8436 8.96695 20.4052 11.1162 18.5008 12.8119C17.7771 13.4563 17.1578 14.2681 15.8101 14.282V14.2843ZM9.46613 23.5723C9.46613 23.5723 9.46613 23.5561 9.46613 23.5468C10.1086 23.5468 10.7558 23.584 11.396 23.5375C12.4143 23.463 13.2888 22.9652 13.7712 22.1162C14.6527 20.5694 13.8965 18.6411 12.2148 18.0014C10.6468 17.4036 8.99526 17.585 7.36461 17.6478C7.06538 17.6595 6.90533 17.7921 6.91461 18.1479C6.961 19.7553 6.99116 21.3626 6.99812 22.9699C6.99812 23.4374 7.18136 23.591 7.6244 23.577C8.23676 23.5561 8.85144 23.5723 9.46613 23.5723ZM6.92157 9.44612C6.9494 9.44612 6.97724 9.44612 7.00507 9.44612C7.00507 10.2044 7.02131 10.965 6.99812 11.721C6.9842 12.1862 7.18832 12.3421 7.6244 12.3351C8.47104 12.3211 9.31768 12.3072 10.1643 12.3351C11.0156 12.363 11.7323 12.1769 12.3888 11.5559C13.1426 10.8418 13.537 10.0369 13.2401 9.09721C12.8921 7.99233 12.2426 7.05492 11.0411 6.85721C9.95555 6.68042 8.83057 6.74555 7.72182 6.69671C7.13961 6.67112 6.86126 6.88745 6.90997 7.52014C6.95868 8.15981 6.92157 8.80413 6.92157 9.44612Z" fill="#002B70"/>
<path d="M71.1641 21.2021C68.9118 21.2021 66.6595 21.2114 64.4049 21.1975C63.7462 21.1928 63.6905 21.4301 63.9108 21.9976C64.7273 24.0934 66.4554 24.9331 68.4827 25.0634C70.336 25.182 71.8785 24.3028 72.9177 22.728C73.2053 22.2907 73.3167 22.3838 73.7597 22.521C75.1445 22.9536 76.288 23.8306 77.5893 24.3935C78.204 24.6587 78.3385 24.9727 77.8352 25.4914C77.1277 26.2218 76.5594 27.1522 75.7337 27.6942C73.7991 28.9665 71.8298 30.2761 69.3479 30.2063C68.0095 30.1691 66.641 30.4296 65.3374 30.0063C62.6606 29.1387 60.1392 27.9198 58.6686 25.4007C57.5205 23.4351 56.8153 21.2417 56.987 18.904C57.1586 16.5639 57.9125 14.4007 59.4225 12.577C61.0624 10.5952 63.1524 9.17168 65.6737 8.69018C67.933 8.25753 70.2989 8.18077 72.4584 9.1647C75.6548 10.6208 78.5473 13.9634 78.6656 17.8689C78.6911 18.7458 78.6656 19.6227 78.6818 20.4996C78.6911 20.9811 78.5171 21.1579 78.0068 21.1509C75.7244 21.123 73.4419 21.1393 71.1618 21.1393C71.1618 21.1602 71.1618 21.1812 71.1618 21.2021H71.1641ZM67.9654 16.857V16.8524C69.1623 16.8524 70.3592 16.8338 71.5561 16.8593C72.1337 16.871 72.1963 16.6477 72.0038 16.1755C71.7092 15.459 71.3126 14.7822 70.7048 14.3356C68.9304 13.033 65.0683 13.0539 64.0686 16.0382C63.8691 16.636 63.9178 16.857 64.5487 16.857C65.6876 16.857 66.8265 16.857 67.9654 16.857Z" fill="#002B70"/>
<path d="M97.1224 19.7274C97.1224 18.2364 97.0992 16.7453 97.134 15.2543C97.1479 14.6868 96.9855 14.503 96.401 14.4891C94.8353 14.4472 94.8353 14.4169 94.8353 12.8468C94.8353 11.7652 94.8561 10.6813 94.826 9.59965C94.8121 9.09955 94.9791 8.96464 95.4778 8.95533C97.2754 8.92509 97.2708 8.90649 97.2731 7.05959C97.2731 6.3292 97.3149 5.59649 97.287 4.8661C97.2662 4.34739 97.4888 4.20317 97.9644 4.22411C99.7481 4.30552 101.532 4.34041 103.313 4.24737C103.805 4.22178 103.998 4.37995 103.972 4.89169C103.926 5.79653 103.942 6.7037 103.919 7.61087C103.882 8.96696 103.877 8.96464 105.187 8.96696C106.006 8.96696 106.827 9.01116 107.644 8.96696C108.208 8.93672 108.356 9.16933 108.349 9.67641C108.333 11.0814 108.335 12.484 108.349 13.8889C108.354 14.389 108.14 14.5542 107.655 14.5332C106.633 14.4914 105.61 14.4914 104.587 14.4635C104.042 14.4495 103.798 14.5961 103.745 15.2427C103.548 17.5804 103.633 19.9204 103.622 22.2581C103.615 23.5096 104.225 24.1446 105.313 24.1329C106.505 24.119 107.822 23.0629 107.832 22.1116C107.836 21.6022 107.54 21.2347 107.217 20.8927C106.897 20.5531 106.544 20.2437 106.227 19.9018C105.392 19.004 105.317 17.8851 106.025 17.0594C106.906 16.0289 107.899 15.9149 109.05 16.5569C111.019 17.6548 111.724 19.5017 111.944 21.537C112.232 24.2097 111.478 26.6172 109.217 28.2384C106.853 29.9295 104.151 29.969 101.437 29.2852C99.2355 28.7292 97.3172 26.5893 97.1502 24.5493C97.0249 23.0071 96.9229 21.4556 96.9994 19.9041C97.0017 19.846 97.0064 19.7878 97.0087 19.7297C97.0481 19.7297 97.0852 19.7297 97.1247 19.7297L97.1224 19.7274Z" fill="#002B70"/>
<path d="M36.9158 8.98326C37.9109 8.98326 38.9037 8.99955 39.8988 8.97628C40.2885 8.96698 40.4926 8.98791 40.6086 9.47406C41.3021 12.4142 42.5408 15.1776 43.4848 18.0363C43.8559 19.1598 44.1668 20.3042 44.5263 21.4324C44.582 21.6045 44.5309 21.8953 44.8023 21.9255C45.09 21.9604 45.0807 21.6929 45.141 21.5068C45.7533 19.6041 46.5095 17.7572 46.9827 15.7963C47.4977 13.661 48.3397 11.6047 49.0216 9.50663C49.1677 9.06002 49.4507 8.94605 49.8845 8.95535C51.7541 9.00187 53.6236 9.04374 55.4955 9.05537C55.9432 9.0577 55.8875 9.30659 55.8365 9.56711C55.6672 10.4533 55.3842 11.3186 54.9643 12.1048C54.0551 13.8075 53.3267 15.6172 52.8141 17.4269C52.0718 20.0507 50.6824 22.3954 49.9541 24.9983C49.5783 26.3404 49.0657 27.6337 48.6296 28.9526C48.4649 29.4457 48.2167 29.683 47.6879 29.6481C45.6119 29.5062 43.5358 29.5411 41.4622 29.6527C40.6619 29.6969 40.7269 29.1224 40.5042 28.613C39.7202 26.8242 39.0545 24.9913 38.3911 23.163C37.3983 20.4299 36.2014 17.7712 35.2805 15.0171C34.7981 13.5749 34.1811 12.2095 33.5223 10.8534C33.4597 10.7232 33.4063 10.5859 33.3553 10.4487C32.8635 9.11817 32.9795 8.95535 34.3736 8.97396C35.2225 8.98559 36.0692 8.97396 36.9181 8.97396C36.9181 8.97396 36.9181 8.97628 36.9181 8.97861L36.9158 8.98326Z" fill="#002B70"/>
<path d="M82.5416 19.3111C82.5416 17.9969 82.5114 16.6803 82.5555 15.3684C82.5764 14.738 82.4094 14.4868 81.7413 14.4752C80.2638 14.4519 80.2638 14.4194 80.2638 12.94C80.2638 11.8281 80.2823 10.7186 80.2568 9.60672C80.2452 9.1322 80.3589 8.9531 80.8831 8.94612C82.6947 8.92518 82.69 8.90192 82.6877 7.03874C82.6877 6.30836 82.7272 5.57797 82.7109 4.84758C82.7016 4.40563 82.8501 4.20094 83.314 4.21955C85.1534 4.28933 86.9951 4.34283 88.8369 4.24048C89.2776 4.21722 89.3959 4.43122 89.3797 4.822C89.3425 5.78499 89.324 6.75031 89.2915 7.71563C89.2521 8.94147 89.2753 8.96473 90.4559 8.97171C91.3026 8.97636 92.1515 9.01125 92.9982 8.98101C93.4574 8.96473 93.6152 9.10894 93.6082 9.57183C93.5873 11.0326 93.5873 12.4957 93.6082 13.9565C93.6152 14.4426 93.4018 14.5496 92.9727 14.538C91.9219 14.5101 90.8688 14.524 89.8157 14.4984C89.3425 14.4868 89.1477 14.6729 89.1222 15.1544C88.99 17.6386 89.0224 20.1229 89.0549 22.6071C89.0688 23.6004 89.7253 24.1307 90.8827 24.2144C91.4348 24.254 91.9938 24.2586 92.5482 24.2237C93.0724 24.1912 93.2788 24.361 93.2649 24.9123C93.2324 26.2567 93.2487 27.6012 93.251 28.9457C93.251 29.2527 93.2696 29.569 92.8358 29.5528C91.001 29.483 89.1361 29.8598 87.3315 29.3992C84.3416 28.6363 82.4906 26.6917 82.4024 23.1631C82.3699 21.8767 82.3978 20.5904 82.3978 19.3041C82.4442 19.3041 82.4906 19.3041 82.5393 19.3041L82.5416 19.3111Z" fill="#002B70"/>
<path d="M31.2654 19.5529C31.2654 22.8001 31.2538 26.0473 31.277 29.2945C31.2816 29.8481 31.1633 30.0528 30.5625 30.0388C28.809 29.9946 27.0531 30.0016 25.2971 30.0272C24.7984 30.0342 24.5804 29.9574 24.5827 29.3736C24.6036 22.821 24.6036 16.2685 24.5827 9.71595C24.5827 9.12978 24.824 9.06233 25.3087 9.04604C27.1783 8.98324 29.0479 9.19491 30.9174 9.03441C31.4765 8.98557 31.2515 9.47404 31.2515 9.72526C31.2677 13.0027 31.2607 16.2778 31.2654 19.5552V19.5529Z" fill="#002B70"/>
<path d="M27.9554 0C29.9061 0 31.6249 1.55847 31.5692 3.36582C31.4973 5.7105 29.7507 7.20151 27.8649 7.2899C26.0603 7.37597 24.2046 5.36624 24.2023 3.47515C24.1977 1.44914 25.7634 0 27.9554 0Z" fill="#002B70"/>
<path d="M85.2717 42.4996C87.5541 42.4996 89.767 42.4996 91.9799 42.4996C92.4809 42.4996 92.5528 42.8834 92.518 43.23C92.4693 43.7138 92.9216 44.3744 92.4739 44.6164C92.075 44.8327 91.8361 44.1093 91.5113 43.8232C90.7807 43.1788 89.9201 43.3789 89.0851 43.3835C88.9157 43.3835 88.8392 43.5254 88.8183 43.6789C88.7 44.5512 88.6188 45.4258 88.809 46.2958C88.8972 46.6935 89.2312 46.6586 89.5165 46.5982C89.9943 46.4958 90.6252 46.6749 90.7923 45.9422C90.841 45.7305 90.6229 45.3095 91.0729 45.3653C91.4255 45.4095 91.3002 45.784 91.3049 46.0283C91.3188 46.7587 91.3165 47.4914 91.3165 48.2241C91.3165 48.4544 91.3582 48.7521 91.066 48.8079C90.7482 48.8661 90.8804 48.5288 90.7876 48.3846C90.4188 47.8217 89.825 47.6356 89.215 47.7147C88.5794 47.7984 88.7696 48.3776 88.7812 48.7823C88.8438 51.1177 88.8531 51.1038 91.1425 51.1154C91.8314 51.1177 92.4229 51.0293 92.7198 50.3036C92.7755 50.1687 92.8868 50.0407 93.0538 50.0896C93.2185 50.1384 93.2139 50.3059 93.2394 50.4525C93.4482 51.662 93.0631 52.1342 91.8477 52.1458C89.9456 52.1621 88.0436 52.1738 86.1439 52.1924C85.9699 52.1924 85.7704 52.2528 85.6915 52.0458C85.5988 51.8016 85.8585 51.7853 85.9768 51.6876C86.508 51.248 86.7098 50.7176 86.6843 50.0035C86.6217 48.1613 86.6217 46.3167 86.6542 44.4721C86.6681 43.7115 86.5405 43.1463 85.6707 43.0207C85.4944 42.9951 85.3506 42.8811 85.2717 42.5043V42.4996Z" fill="#002B70"/>
<path d="M84.1096 50.3361C84.1096 50.5711 84.1026 50.8037 84.1096 51.0386C84.1281 51.5643 84.316 52.2179 83.3673 51.662C82.9591 51.4224 82.4859 51.6969 82.138 51.9411C80.6349 52.9972 79.0135 52.404 77.7099 51.4573C76.3576 50.4757 75.9911 49.1498 75.9795 47.5774C75.9679 46.0725 76.2277 44.7722 77.3295 43.5952C78.6145 42.2228 81.0199 42.0135 82.356 42.8485C82.6761 43.0486 83.0263 43.1718 83.3441 42.9765C83.9866 42.5834 84.0446 43.0207 84.0655 43.4556C84.1003 44.1558 84.0933 44.8582 84.098 45.5584C84.098 45.805 84.0354 46.0515 83.7918 46.1399C83.4555 46.2655 83.4369 45.9189 83.3279 45.7445C82.9312 45.1071 82.6552 44.4023 82.1008 43.8511C81.1243 42.8811 79.8068 42.9253 79.046 44.072C77.7563 46.019 77.6844 48.0868 78.5566 50.2268C78.9509 51.1945 79.8022 51.4922 80.6697 51.4782C81.5441 51.4643 82.3676 51.0875 82.7805 50.171C82.9846 49.7197 83.2305 49.2894 83.4717 48.8568C83.539 48.7358 83.6364 48.6055 83.8104 48.6311C84.0354 48.6637 84.0678 48.8451 84.0702 49.0219C84.0771 49.4592 84.0725 49.8988 84.0725 50.3361C84.0841 50.3361 84.0957 50.3361 84.1073 50.3361H84.1096Z" fill="#002B70"/>
<path d="M39.0545 47.0867C39.0545 48.3683 39.0684 49.65 39.0475 50.9317C39.0382 51.5574 38.5929 51.69 38.2704 51.269C37.7253 50.5618 37.2684 50.8549 36.7071 51.1596C35.1089 52.0249 32.9842 51.5295 32.388 49.9408C31.1842 46.7261 32.0703 43.4417 36.3638 43.2115C37.0341 43.1742 37.7091 43.2324 38.3771 43.1882C38.9547 43.1486 39.2122 43.2789 39.1751 43.9372C39.1148 44.9839 39.1588 46.0376 39.1588 47.089C39.124 47.089 39.0892 47.089 39.0568 47.089L39.0545 47.0867ZM37.5954 46.889C37.5723 44.5396 37.5444 44.4931 35.4058 44.7746C34.6334 44.8769 34.0233 45.2491 33.68 46.0493C33.179 47.2169 33.2741 48.3032 33.8424 49.4011C34.2622 50.2083 34.9396 50.5223 35.7978 50.399C36.6282 50.2804 37.2359 49.8849 37.4609 48.9708C37.6395 48.2404 37.5676 47.5217 37.5978 46.889H37.5954Z" fill="#002B70"/>
<path d="M100.061 44.1116C99.9823 44.3675 100.358 45.056 99.9244 45.2072C99.428 45.3816 99.3607 44.6071 99.0615 44.2884C98.579 43.779 98.2264 43.1672 97.403 43.1486C96.8347 43.137 96.3893 43.3277 96.271 43.879C96.1574 44.4093 96.0994 44.9932 96.7164 45.3491C97.5004 45.8003 98.2821 46.2586 99.0452 46.7424C100.094 47.4076 100.78 48.3125 100.678 49.6221C100.576 50.9316 99.9174 51.8551 98.6695 52.3343C97.9458 52.6111 97.2406 52.5506 96.5471 52.2482C95.9533 51.9877 95.3664 51.7434 94.6984 51.9807C94.3505 52.104 94.2322 51.9947 94.2785 51.6039C94.3528 50.9665 94.3528 50.3222 94.2391 49.6825C94.209 49.5197 94.1278 49.3034 94.3296 49.215C94.5755 49.108 94.6914 49.3336 94.7981 49.5011C95.3432 50.3734 95.9463 51.148 97.0435 51.3992C97.7996 51.5736 98.8017 51.341 99.2702 50.7549C99.5486 50.406 99.37 50.1036 99.1798 49.7942C98.6231 48.8917 97.7092 48.4986 96.7953 48.1031C95.385 47.4914 94.6497 46.3772 94.659 44.9025C94.6706 43.0579 95.6796 42.3903 97.3798 42.3578C97.9156 42.3484 98.4561 42.5369 98.9942 42.6392C99.0499 42.6508 99.1125 42.6694 99.1566 42.7043C99.4883 42.9625 99.82 42.1624 100.029 42.6322C100.191 42.9974 100.061 43.4929 100.061 44.1093V44.1116Z" fill="#002B70"/>
<path d="M23.3789 46.5609C23.3789 45.6537 23.3881 44.7466 23.3742 43.8394C23.3649 43.2183 23.6317 43.13 24.1304 43.3951C24.541 43.6138 24.8518 43.9441 24.9167 44.3953C25.1812 46.2004 25.2044 48.0193 24.8912 49.8127C24.6894 50.9735 22.5624 51.855 21.2054 51.4968C19.8578 51.1409 18.9601 50.5292 18.8905 48.9242C18.8232 47.3727 18.8557 45.8259 18.8325 44.279C18.8279 43.9138 18.6261 43.2718 19.1874 43.2928C19.7209 43.3137 20.3356 43.6347 20.3704 44.3651C20.4191 45.3583 20.4307 46.3516 20.4655 47.3448C20.4864 47.9868 20.5142 48.6265 20.542 49.2684C20.5861 50.2454 21.3423 50.2268 21.9964 50.2477C22.8871 50.2756 23.3603 49.8849 23.3719 49.194C23.3858 48.3171 23.3765 47.4378 23.3742 46.5609H23.3789Z" fill="#002B70"/>
<path d="M13.3885 51.455C12.9779 51.455 12.5697 51.4504 12.1591 51.455C11.7926 51.4597 11.5305 51.376 11.5468 50.9224C11.563 50.4851 11.6651 50.2059 12.1963 50.2199C13.0127 50.2408 13.8362 50.2432 14.6503 50.1734C15.2186 50.1245 15.8124 49.9036 15.7661 49.1941C15.722 48.5126 15.1467 48.2009 14.5483 48.1334C13.7759 48.0473 13.087 47.8427 12.4259 47.4216C11.1223 46.5912 11.0457 44.3373 12.8249 43.6371C14.1006 43.1347 15.3996 43.2045 16.7101 43.2068C17.1091 43.2068 17.1253 43.4603 17.0441 43.7418C16.8632 44.3698 16.4526 44.742 15.78 44.7583C15.1653 44.7746 14.5506 44.7815 13.9359 44.7653C13.3607 44.7513 12.9339 44.9769 12.8573 45.5515C12.7785 46.14 13.2609 46.34 13.7202 46.4889C14.4369 46.7215 15.1676 46.9146 15.8774 47.1611C17.1508 47.6031 17.6356 48.6614 17.2367 49.9547C16.8075 51.348 15.5387 51.1643 14.5205 51.4295C14.1632 51.5225 13.7643 51.4434 13.3839 51.4434C13.3839 51.4481 13.3839 51.4527 13.3839 51.455H13.3885Z" fill="#002B70"/>
<path d="M26.7074 48.5566C26.7654 47.4587 26.61 46.1864 27.2061 44.9652C27.902 43.544 30.1056 43.0043 31.5646 43.2183C31.7873 43.2509 31.8221 43.3974 31.8197 43.5928C31.8151 43.9999 31.7061 44.3697 31.3164 44.5372C30.9453 44.6977 30.5417 44.7605 30.1241 44.7675C28.969 44.7884 28.4216 45.3304 28.4146 46.4771C28.4053 47.8774 28.41 49.28 28.4587 50.6803C28.4819 51.3828 28.1641 51.4642 27.5541 51.4759C26.9046 51.4875 26.6425 51.327 26.6935 50.6524C26.7422 50.0128 26.7051 49.3684 26.7051 48.559L26.7074 48.5566Z" fill="#002B70"/>
<path d="M63.7276 47.1471C63.7276 49.308 63.7299 51.4712 63.723 53.6321C63.723 53.8996 63.8714 54.323 63.4771 54.3602C63.0874 54.3974 63.1106 53.9741 63.1106 53.6949C63.0921 49.2266 63.0828 44.7559 63.0689 40.2875C63.0689 40.0502 63.0433 39.7827 63.3959 39.8013C63.7276 39.8176 63.7137 40.0688 63.7137 40.3131C63.7114 42.5903 63.7137 44.8698 63.7137 47.1471C63.7207 47.1471 63.7253 47.1471 63.7323 47.1471H63.7276Z" fill="#002B70"/>
<path d="M42.9003 42.6113C43.2111 42.4299 43.4871 42.4787 43.7492 42.6183C45.2593 43.4301 46.9943 43.7162 48.4463 44.6699C48.8082 44.9071 49.1028 44.6536 49.351 44.3745C49.4832 44.2256 49.6154 44.0279 49.8474 44.2442C50.1187 44.4954 49.8729 44.6443 49.7291 44.8118C49.2976 45.3165 48.7618 45.2863 48.2237 45.063C46.9897 44.5513 45.6907 44.2582 44.4103 43.9023C43.6866 43.6999 43.1601 43.3417 42.8979 42.6136L42.9003 42.6113Z" fill="#002B70"/>
<path d="M43.7214 44.8932C45.3892 45.5212 47.1404 45.1491 48.7317 45.805C48.9845 45.9097 49.3579 45.9446 49.5899 45.8329C50.3994 45.4421 50.7126 45.9353 51.1092 46.6354C50.3229 46.5424 49.6456 46.4703 48.9683 46.3819C47.667 46.2144 46.368 46.0213 45.0528 45.9888C44.4219 45.9725 43.8745 45.7655 43.7214 44.8932Z" fill="#002B70"/>
<path d="M49.5574 48.1031C49.1097 47.7705 48.6992 47.817 48.2956 47.8356C47.7134 47.8635 47.1288 47.9031 46.5466 47.9217C46.1453 47.9333 45.6281 48.0217 45.693 47.382C45.758 46.7517 46.2358 47.1797 46.5211 47.1471C48.1355 46.9726 49.4878 47.7728 50.9004 48.3497C51.0025 48.3915 51.1765 48.3846 51.151 48.5195C51.1254 48.6474 51.0071 48.773 50.8981 48.8637C50.7543 48.9824 50.6801 48.9196 50.5966 48.7428C50.3716 48.2636 50.0051 48.4148 49.6432 48.573C49.0541 48.8265 48.4626 49.0801 47.8641 49.3103C47.5765 49.422 47.2193 49.4429 47.1265 49.0894C47.0082 48.6404 47.4211 48.7288 47.6879 48.6497C48.2793 48.4776 48.9706 48.6451 49.5574 48.1078V48.1031Z" fill="#002B70"/>
<path d="M48.9474 43.751C48.9103 43.7766 48.8778 43.8138 48.8639 43.8068C47.1312 42.9718 45.185 42.588 43.6402 41.3482C43.4315 41.1807 43.232 41.0109 43.2111 40.7178C43.1995 40.548 43.1322 40.3317 43.2946 40.2293C43.4593 40.127 43.624 40.2619 43.7655 40.3736C45.192 41.4947 46.7879 42.3414 48.3791 43.1974C48.6203 43.3277 48.9497 43.3765 48.9474 43.751Z" fill="#002B70"/>
<path d="M44.742 52.4435C45.3497 51.7108 46.0085 52.0458 46.4654 52.3063C46.9154 52.5622 47.0059 53.2367 46.8296 53.7252C46.6951 54.0997 46.426 54.5068 45.7789 54.1485C44.6956 53.5507 43.559 53.0111 42.2392 53.1949C42.0258 53.2251 41.7567 53.2739 41.5944 53.0437C41.5341 52.9576 41.4761 52.8343 41.4877 52.7366C41.5039 52.5878 41.6431 52.625 41.7591 52.625C43.2088 52.625 44.6979 52.4598 45.8438 53.6647C46.0108 53.8415 46.252 53.995 46.426 53.7089C46.5884 53.4414 46.5142 53.16 46.2915 52.9134C45.8972 52.4738 45.308 52.6831 44.7374 52.4435H44.742Z" fill="#002B70"/>
<path d="M50.3113 49.1824C49.3881 50.4291 48.5948 50.9316 47.8572 50.7641C48.6644 50.1384 49.5458 49.7592 50.3113 49.1824Z" fill="#002B70"/>
<path d="M49.685 51.0922C49.2188 51.5899 48.7525 52.09 48.2817 52.5832C48.1657 52.7065 48.0126 52.86 47.8525 52.6785C47.711 52.518 47.8317 52.3389 47.9569 52.225C48.4579 51.7644 48.9311 51.262 49.685 51.0922Z" fill="#002B70"/>
</g>
<defs>
<clipPath id="clip0_360_3054">
<rect width="112" height="54.3626" fill="white"/>
</clipPath>
</defs>
</svg>
