<svg width="90" height="59" viewBox="0 0 90 59" fill="none" xmlns="http://www.w3.org/2000/svg">
<g clip-path="url(#clip0_34_16038)">
<path d="M60.4231 41.0191C59.0367 41.0191 57.6445 40.9782 56.2639 41.0308C54.4914 41.101 53.105 40.4634 52.052 39.036C50.9815 37.5853 49.5307 36.544 48.0799 35.5086C47.2376 34.906 46.2138 34.9353 45.2603 34.7715C43.6165 34.4907 42.7332 33.426 42.1716 31.9986C41.7796 30.9925 41.6217 29.922 41.3702 28.869C40.908 26.9327 40.5102 24.9613 39.5041 23.2239C38.7494 21.9194 37.5034 21.0302 36.3159 20.1293C35.4209 19.4507 34.4907 18.8189 33.5782 18.1696C33.3968 18.0409 33.1745 17.883 32.9873 17.959C32.7767 18.0409 32.8879 18.3158 32.9113 18.4913C33.0049 19.1816 32.7124 19.8017 32.5778 20.4452C32.4725 20.9483 32.0396 21.0711 31.5483 21.1121C30.624 21.1881 29.6939 21.077 28.7637 21.4046C27.1843 21.9603 26.143 23.0542 25.8446 24.5986C25.6107 25.8037 25.0081 26.6694 24.2242 27.4709C23.7036 27.9973 23.5574 28.5297 23.8557 29.1673C24.4407 30.4075 25.2187 31.3786 26.7397 31.595C27.9798 31.7705 29.0738 32.4257 30.0916 33.1394C30.7 33.5664 30.9282 34.2976 30.9516 35.0055C31.0218 36.895 30.7585 38.7084 29.5769 40.2937C29.2727 40.7032 28.9334 40.9782 28.442 40.9723C27.038 40.9606 25.6282 41.1244 24.2184 40.9197C23.2181 40.7734 22.4868 40.2294 21.9135 39.4865C20.7436 37.9772 20.0884 36.193 19.5502 34.4029C18.6552 31.402 18.3627 28.3074 18.4972 25.166C18.6318 22.0597 19.3221 19.0997 20.533 16.2391C22.5161 11.5534 25.6458 7.78611 29.7699 4.87873C32.8469 2.70843 36.2457 1.16407 40.0071 0.532288C41.9551 0.204696 43.9148 -0.0760969 45.8921 0.0292004C48.039 0.140348 50.2093 0.321693 52.2684 0.912528C54.7254 1.62036 57.0127 2.80203 59.2181 4.10655C61.5522 5.48711 63.4651 7.35322 65.2961 9.31877C66.6591 10.7871 67.6009 12.5245 68.5954 14.2326C69.8063 16.3269 70.596 18.5908 71.0465 20.9249C71.5613 23.6158 71.8537 26.3418 71.4969 29.1322C71.1869 31.519 70.7481 33.8472 69.9291 36.1052C69.3383 37.7257 68.6656 39.2817 67.1797 40.3464C66.4485 40.8729 65.6529 40.984 64.8164 40.9899C63.3539 41.0016 61.8914 40.9899 60.429 40.9899V41.0074L60.4231 41.0191ZM48.5889 7.47606C48.741 6.44064 49.0627 5.49881 49.5658 4.63889C49.8466 4.15335 50.4374 4.089 50.7182 4.50434C50.9347 4.82023 51.1979 5.17707 51.1687 5.57486C51.04 7.33567 51.6718 8.96193 52.0871 10.6174C52.169 10.9392 52.2158 11.3604 52.6253 11.5125C53.7894 11.9512 54.9477 12.4075 56.0416 12.9983C56.9542 13.4956 57.9603 13.9694 58.2821 15.0516C58.5044 15.8004 58.9665 16.011 59.6217 16.0695C59.7913 16.087 59.9785 16.0637 60.1306 16.1221C61.8856 16.7715 63.7517 16.9528 65.5476 17.4325C67.2265 17.883 68.1625 19.3279 67.1973 20.7084C66.975 21.0243 66.8346 21.4397 66.7644 21.8726C66.5304 23.4286 64.4537 25.3357 62.9152 25.6282C61.2012 25.9558 59.4638 25.8622 57.738 26.0142C55.8193 26.1839 54.2574 27.0614 53.0816 28.518C51.5899 30.3607 50.1683 32.2736 49.9226 34.7715C49.8817 35.1517 49.9519 35.3799 50.2327 35.5846C51.2564 36.3451 52.1222 37.2635 52.9353 38.2404C53.7719 39.2525 54.8365 39.7263 56.1586 39.7205C59.0835 39.7029 62.0084 39.7263 64.9275 39.7088C66.1209 39.6971 67.051 39.1647 67.6536 38.1176C68.104 37.3337 68.3672 36.4738 68.7358 35.6548C69.4963 33.9759 69.9584 32.1858 70.1631 30.3899C70.403 28.3015 70.5434 26.2014 70.2626 24.0604C69.9525 21.7205 69.5606 19.4566 68.6188 17.2804C67.8525 15.5138 66.9574 13.8173 65.9278 12.2027C65.2844 11.1849 64.4595 10.2723 63.6347 9.38312C61.7452 7.34152 59.6159 5.58656 57.1238 4.31129C55.2285 3.34022 53.2454 2.60899 51.1745 2.08835C49.3962 1.64376 47.612 1.32787 45.781 1.27522C43.0023 1.18747 40.2996 1.58526 37.638 2.41594C35.2688 3.15302 32.9932 4.0773 30.9516 5.48711C26.9444 8.25994 23.8147 11.7874 21.8492 16.2918C21.1063 18.0058 20.4979 19.7666 20.1235 21.5801C19.8427 22.9665 19.6848 24.3938 19.6789 25.8212C19.6731 28.0149 19.8134 30.1793 20.3048 32.3379C20.7143 34.1338 21.4222 35.8128 22.0715 37.5209C22.6214 38.9717 23.7387 39.7088 25.3065 39.7146C26.1488 39.7146 26.9912 39.6971 27.8336 39.7263C28.3133 39.7439 28.635 39.5742 28.8515 39.153C29.5827 37.7608 29.7465 36.2924 29.5359 34.7539C29.4657 34.2567 29.1615 33.935 28.7696 33.7361C28.208 33.4553 27.6055 33.2388 27.0029 33.0399C25.5873 32.5836 24.1014 32.256 23.3351 30.7643C22.2353 28.635 21.7381 28.1904 23.651 26.2775C24.1365 25.792 24.4524 25.2538 24.6103 24.5284C24.9496 22.9255 25.7862 21.6035 27.2837 20.7611C27.974 20.3691 28.7169 20.1702 29.4716 19.9889C29.7816 19.9129 30.0916 19.8778 29.9337 19.4449C29.6822 18.7604 29.495 18.0584 29.2025 17.3857C29.0387 17.0055 28.5239 16.5726 29.0562 16.1338C29.571 15.7127 30.0156 16.2157 30.4836 16.3561C30.5011 16.362 30.5128 16.3912 30.5362 16.4088C30.9516 16.7715 31.051 16.5726 31.0978 16.1338C31.168 15.5196 31.4254 15.3909 31.9753 15.7478C33.9993 17.0581 36.0058 18.3919 37.9012 19.8836C38.6207 20.451 38.6909 20.4627 39.2935 19.7374C40.2177 18.6259 41.2005 17.5495 42.0253 16.3678C42.973 14.999 43.792 13.519 43.909 11.8108C44.0435 9.81601 44.1254 7.81536 44.1547 5.81471C44.1664 5.07762 44.4296 4.41659 44.5817 3.72631C44.6402 3.45136 44.7455 3.11792 45.0029 2.88978C45.7225 2.26384 46.6643 2.62069 46.986 3.70291C47.378 4.99573 47.5769 6.35289 48.5596 7.48776L48.5889 7.47606ZM45.9038 4.1943C45.6932 4.50434 45.5528 4.67398 45.5294 4.93723C45.3715 6.82673 45.1433 8.72208 45.2486 10.6174C45.3305 12.0974 44.8099 13.402 44.3068 14.7299C43.4644 16.9704 41.7972 18.6493 40.3113 20.4452C39.8141 21.0477 39.6913 21.3812 40.1417 22.1124C41.8791 24.9437 42.5343 28.167 43.2831 31.3493C43.5522 32.4959 44.3302 33.5489 45.3071 33.5898C46.3659 33.6366 47.3429 33.894 48.3022 34.2742C48.5713 34.3795 48.6532 34.3503 48.7117 34.1046C49.1212 32.2034 50.0806 30.5888 51.1745 28.9977C52.2918 27.3656 53.7192 26.178 55.4683 25.3474C55.7901 25.1953 56.0182 24.8969 56.4394 24.856C58.0422 24.7039 59.6451 24.6571 61.248 24.5752C62.7514 24.4991 64.0734 24.0487 65.0211 22.7851C65.4189 22.2586 65.5535 21.6269 65.7582 21.0302C65.8752 20.685 65.3195 20.5739 65.144 20.2814C64.9275 19.9187 64.6935 19.5326 64.6877 19.1348C64.6877 18.4972 64.2723 18.4211 63.8336 18.3509C62.0201 18.0409 60.2359 17.6256 58.4693 17.1283C57.9662 16.9879 57.5099 16.7247 57.3929 16.0695C57.2467 15.2388 56.6617 14.7065 55.9304 14.3321C54.0877 13.3786 52.2041 12.5303 50.2678 11.7991C49.326 11.4423 48.4075 11.0445 48.1326 9.9096C48.0507 9.55861 48.0156 9.20762 47.8167 8.86833C47.4014 8.1605 47.0972 7.37662 46.7228 6.64538C46.3425 5.91415 46.1787 5.10687 45.9155 4.1943H45.9038ZM49.87 7.47021C49.7998 8.0435 49.7296 8.61679 49.6653 9.19007C49.5873 9.92715 49.9655 10.399 50.8001 10.6057C50.5076 9.51766 50.0864 8.52319 49.87 7.47021ZM31.4781 19.8895C31.7472 19.2752 31.8875 18.7429 31.1856 18.3217C31.0959 18.8794 31.1934 19.402 31.4781 19.8895Z" fill="black"/>
<path d="M84.934 47.1673C84.9165 49.0685 83.337 50.4959 81.4826 50.531C79.7803 50.5661 78.2944 49.0159 78.2359 47.3077C78.1657 45.2427 79.6633 43.8563 81.5002 43.8563C83.4774 43.8563 84.9399 45.2603 84.9399 47.1673H84.934ZM81.5236 49.2148C82.8164 49.2089 83.6763 48.3666 83.6704 47.1264C83.6646 45.9389 82.6935 44.9502 81.5294 44.9502C80.336 44.9502 79.3942 45.9155 79.4235 47.1205C79.4586 48.5772 80.3887 49.2265 81.5236 49.2206V49.2148Z" fill="black"/>
<path d="M30.2145 47.0854C30.0214 45.6229 31.6068 43.8212 33.4904 43.8446C35.3624 43.868 37.0471 45.3539 36.9535 47.0913C36.8482 49.0802 35.6783 50.3496 33.5372 50.5368C31.9344 50.6772 29.9571 48.7819 30.2086 47.0913L30.2145 47.0854ZM33.5372 49.2148C34.8417 49.2148 35.7075 48.3899 35.7192 47.1439C35.7368 45.8394 34.7306 45.0204 33.5431 44.9502C32.414 44.8859 31.402 45.9564 31.402 47.103C31.402 48.2846 32.2151 49.2206 33.5372 49.2089V49.2148Z" fill="black"/>
<path d="M14.4433 46.5648C14.4433 47.6587 14.414 48.7527 14.455 49.8466C14.4725 50.4374 14.2093 50.5661 13.6945 50.5427C13.3728 50.5252 13.2616 50.4023 13.2616 50.0923C13.2675 48.1443 13.2616 46.1904 13.2616 44.2424C13.2616 44.102 13.2148 43.8973 13.402 43.8739C13.6009 43.8446 13.753 44.0026 13.8934 44.1488C14.8118 45.1141 15.7361 46.0734 16.6604 47.0387C16.7657 47.144 16.8476 47.2668 16.9587 47.3663C17.0991 47.495 17.1986 47.764 17.4092 47.6938C17.6899 47.6061 17.5613 47.3136 17.5671 47.1089C17.5847 46.2723 17.6022 45.43 17.5671 44.5934C17.5496 44.1371 17.6841 43.9909 18.1404 43.9909C18.6142 43.9909 18.7839 44.1313 18.7722 44.6227C18.7429 46.401 18.7546 48.1794 18.7488 49.9519C18.7488 50.1391 18.8307 50.3789 18.5908 50.4784C18.3685 50.572 18.2047 50.3672 18.0819 50.2444C17.5028 49.6477 16.9529 49.0218 16.3854 48.4075C15.7946 47.7699 15.2038 47.1323 14.6129 46.5005C14.5544 46.518 14.4959 46.5414 14.4316 46.559L14.4433 46.5648Z" fill="black"/>
<path d="M75.5801 47.7173C75.703 46.6351 75.7147 45.6055 75.6445 44.5818C75.6094 44.0436 75.8434 43.9675 76.2879 43.95C76.7208 43.9383 76.9256 44.0611 76.9197 44.5291C76.9022 46.3543 76.9139 48.1853 76.908 50.0104C76.908 50.1976 76.9548 50.4375 76.7033 50.5135C76.4576 50.5837 76.3581 50.338 76.2411 50.2093C75.194 49.0686 74.1703 47.9045 73.1349 46.7521C73.0296 46.6351 72.9594 46.4011 72.7488 46.4771C72.5382 46.5532 72.6318 46.7755 72.6318 46.9393C72.6142 47.9513 72.5908 48.9633 72.6084 49.9753C72.6201 50.455 72.4095 50.5545 71.9824 50.5545C71.5613 50.5545 71.3565 50.4492 71.3682 49.9695C71.3975 48.1209 71.3799 46.2665 71.3975 44.4121C71.3975 44.2074 71.2863 43.8973 71.5437 43.8271C71.766 43.7686 71.9824 43.9851 72.1521 44.1606C73.2519 45.2838 74.3341 46.4245 75.3403 47.6354C75.3637 47.6646 75.428 47.6646 75.586 47.7173H75.5801Z" fill="black"/>
<path d="M27.6932 47.7816C27.6932 46.5999 27.7108 45.5411 27.6815 44.4823C27.6698 44.0377 27.8921 43.909 28.2548 43.9382C28.5882 43.9675 28.8983 43.9616 28.8866 44.5057C28.8456 46.3542 28.8749 48.2086 28.869 50.0572C28.869 50.2093 28.9685 50.4374 28.7403 50.5018C28.5531 50.5486 28.442 50.3614 28.325 50.2385C27.4241 49.2616 26.4413 48.3666 25.6282 47.3136C25.3591 46.9685 25.0959 46.6116 24.5577 46.3133C24.5577 47.5651 24.5226 48.7351 24.5694 49.8992C24.5986 50.5486 24.2535 50.5661 23.7914 50.531C23.3526 50.4959 23.3877 50.1566 23.3877 49.8758C23.3877 48.0507 23.3877 46.2197 23.3877 44.3945C23.3877 44.1898 23.3994 43.9265 23.5574 43.8563C23.768 43.7627 23.9669 43.9967 24.1014 44.1371C24.8677 44.9386 25.6926 45.6873 26.377 46.5707C26.7163 47.0094 27.0848 47.4189 27.6815 47.7874L27.6932 47.7816Z" fill="black"/>
<path d="M58.1768 47.1322C58.1768 46.2898 58.1944 45.4533 58.171 44.6109C58.1593 44.2073 58.2236 43.9674 58.6974 43.9674C59.7563 43.9674 60.8209 43.9265 61.8798 43.9148C62.2658 43.9148 62.3419 44.1488 62.3477 44.4998C62.3536 44.9093 62.1489 44.9268 61.8447 44.921C61.2012 44.9093 60.5577 44.9093 59.9142 44.921C59.1128 44.9327 59.4345 45.5469 59.3643 45.9564C59.2883 46.4068 59.4755 46.5823 59.9376 46.5414C60.3529 46.5063 60.78 46.5472 61.2012 46.5297C61.6282 46.5121 61.9032 46.5882 61.909 47.1264C61.909 47.647 61.6867 47.7581 61.2304 47.7231C60.8385 47.6938 60.4348 47.7581 60.0429 47.7113C59.4638 47.6412 59.3702 47.8927 59.3409 48.4192C59.3058 49.0861 59.5164 49.3025 60.1657 49.2382C60.6337 49.1914 61.1076 49.2499 61.5756 49.2265C62.1898 49.1972 62.4004 49.4663 62.3536 50.0688C62.3243 50.414 62.2366 50.5485 61.8798 50.5427C60.8677 50.5251 59.8499 50.5134 58.8378 50.5427C58.3406 50.5544 58.1826 50.3321 58.1885 49.8816C58.2002 48.9691 58.1885 48.0565 58.1885 47.1381L58.1768 47.1322Z" fill="black"/>
<path d="M9.29543 43.6633C10.3426 45.5762 11.0913 47.5242 11.9162 49.4313C11.963 49.5424 12.0273 49.6477 12.0683 49.7589C12.1443 49.987 12.5772 50.2035 12.2379 50.4258C11.9805 50.5954 11.571 50.6422 11.2668 50.3673C11.1206 50.2386 10.9217 50.0806 10.8983 49.9227C10.7988 49.1037 10.2256 49.1797 9.65812 49.209C9.31298 49.2265 8.96198 49.2324 8.61684 49.2031C8.02016 49.1505 7.52877 49.2031 7.45857 49.9578C7.43517 50.1801 7.29478 50.3673 7.05493 50.4492C6.80924 50.5311 6.5577 50.5428 6.34125 50.3907C6.10141 50.2152 6.2418 49.987 6.32955 49.794C7.00813 48.273 7.68672 46.7462 8.38285 45.2311C8.62269 44.7163 8.79819 44.1547 9.28958 43.6692L9.29543 43.6633ZM9.23108 45.9974C8.91519 46.6702 8.65779 47.22 8.40625 47.7699C8.34775 47.8986 8.2249 48.1092 8.41795 48.1385C8.92689 48.2204 9.44752 48.2438 9.96231 48.1092C10.1027 48.0741 10.1378 47.9571 10.0735 47.8167C9.81021 47.2493 9.55282 46.6877 9.23108 45.9916V45.9974Z" fill="black"/>
<path d="M3.5216 43.8563C4.08903 43.8739 4.63892 43.9616 5.13616 44.2834C5.4111 44.4589 5.86154 44.5525 5.5398 45.0146C5.3175 45.3305 5.15371 45.7224 4.59212 45.2603C3.79069 44.6051 2.66752 44.8215 1.94214 45.6054C1.22845 46.3718 1.16996 47.5827 1.79589 48.4426C2.35163 49.2089 3.4397 49.4078 4.40492 49.01C4.61552 48.9223 4.77346 48.4719 5.1888 48.8404C5.82644 49.4137 5.83229 49.6126 5.10106 50.0572C3.88429 50.7942 2.66752 50.6948 1.5853 49.9051C0.462123 49.0861 -0.163811 47.9454 0.0467838 46.4829C0.245679 45.1082 1.93044 43.8388 3.52745 43.8622L3.5216 43.8563Z" fill="black"/>
<path d="M88.0169 50.5662C87.1862 50.5194 86.6539 50.2737 86.1391 49.9987C85.7822 49.8057 85.7354 49.5015 85.9168 49.1914C86.0923 48.8931 86.3614 48.8463 86.6773 49.0393C87.0868 49.285 87.5372 49.4313 88.0169 49.3494C88.2684 49.3084 88.5902 49.3084 88.6487 48.9457C88.7072 48.5831 88.6604 48.2438 88.3035 48.0449C87.7712 47.7465 87.2388 47.4423 86.689 47.1849C85.7588 46.7521 85.7354 45.9448 85.8407 45.1199C85.9402 44.3653 86.5135 44.0436 87.2096 43.909C87.935 43.7686 88.6136 43.8973 89.2804 44.184C89.6197 44.3302 89.8362 44.5233 89.6548 44.8976C89.4735 45.272 89.1225 45.3481 88.7774 45.1726C88.4673 45.0088 88.169 44.8801 87.8063 44.8742C87.4553 44.8684 87.1628 44.8976 87.0517 45.2837C86.9522 45.623 87.0517 45.8746 87.3266 46.1261C87.935 46.676 88.754 46.8515 89.3799 47.3838C90.2106 48.0858 90.2047 49.4488 89.2688 50.0338C88.8125 50.3205 88.3562 50.6188 88.0052 50.5662H88.0169Z" fill="black"/>
<path d="M39.6152 50.531C39.2701 50.5076 38.726 50.2911 38.1996 50.022C37.8427 49.8407 37.6906 49.5775 37.9246 49.1855C38.1469 48.8111 38.4102 48.8638 38.7436 49.0393C39.2057 49.285 39.6971 49.4605 40.2295 49.3025C40.8495 49.1153 40.949 48.6532 40.4751 48.2144C40.0715 47.8401 39.5626 47.6529 39.077 47.4189C38.6032 47.1966 38.223 46.869 37.9539 46.4127C37.2987 45.3129 38.0358 44.0844 39.3988 43.8856C40.054 43.7861 40.6682 43.9148 41.2649 44.1722C41.5574 44.3009 41.7914 44.4822 41.6334 44.8391C41.4696 45.2135 41.1654 45.348 40.7852 45.155C40.4985 45.0087 40.2119 44.8859 39.896 44.8332C39.4982 44.7689 39.2057 44.9619 39.0302 45.2603C38.8313 45.5996 39.0712 45.8453 39.3169 46.0851C39.7849 46.5472 40.4225 46.6935 40.9431 47.0679C41.885 47.7406 42.1775 48.3022 41.9142 49.1329C41.6451 49.9811 40.832 50.531 39.6211 50.5251L39.6152 50.531Z" fill="black"/>
<path d="M52.9529 47.1966C52.9529 46.284 52.9529 45.3656 52.9529 44.453C52.9529 44.1781 52.9997 44.0026 53.3448 43.9733C54.4563 43.8914 55.5619 43.8973 56.6734 43.9909C57.0419 44.0201 57.118 44.2073 57.118 44.5232C57.118 44.8859 56.8723 44.9093 56.6207 44.9152C56.0006 44.921 55.3864 44.9444 54.7663 44.9152C54.3217 44.8976 54.1111 45.0322 54.1521 45.5002C54.1755 45.7225 54.1755 45.9447 54.1521 46.167C54.0994 46.6233 54.3217 46.7988 54.7429 46.8105C55.1875 46.8222 55.6321 46.8339 56.0825 46.8339C56.3516 46.8339 56.5622 46.8398 56.5447 47.2142C56.533 47.5418 56.5096 47.8284 56.1118 47.8518C55.6438 47.8752 55.17 47.8869 54.702 47.8693C54.2808 47.8518 54.1287 48.0273 54.1579 48.4368C54.1872 48.8814 54.1228 49.3318 54.1696 49.7706C54.2281 50.3263 54 50.5076 53.4677 50.5369C52.8417 50.5661 52.947 50.1274 52.9353 49.794C52.9119 48.9282 52.9295 48.0624 52.9295 47.1966C52.9412 47.1966 52.947 47.1966 52.9587 47.1966H52.9529Z" fill="black"/>
<path d="M47.1908 46.091C47.6236 45.5119 47.9863 45.0205 48.349 44.5349C48.4368 44.4179 48.5187 44.3009 48.624 44.2015C48.9574 43.8797 49.443 43.7861 49.7471 44.0143C50.104 44.2834 49.6243 44.5642 49.4781 44.7982C48.9691 45.5996 48.4134 46.3718 47.8576 47.1381C47.7231 47.3253 47.764 47.5125 47.7582 47.6997C47.7523 48.4134 47.7582 49.1329 47.764 49.8524C47.7699 50.2444 47.7055 50.5193 47.2142 50.5369C46.7228 50.5544 46.6175 50.2561 46.5999 49.8934C46.5707 49.3026 46.5531 48.7059 46.5824 48.115C46.6058 47.5301 46.4712 47.0328 46.1027 46.5531C45.5937 45.8979 45.1609 45.1784 44.6695 44.4998C44.3887 44.1137 44.4998 44.0435 44.9269 43.9967C45.4651 43.9382 45.816 44.1137 46.0968 44.5583C46.4244 45.0673 46.7988 45.5528 47.1849 46.091H47.1908Z" fill="black"/>
<path d="M63.6815 47.2668C63.6815 46.3308 63.7107 45.389 63.6698 44.453C63.6464 43.8797 64.0442 43.9791 64.3542 43.9382C64.7228 43.8914 64.8749 44.0552 64.869 44.4471C64.8515 45.8277 64.8807 47.2141 64.8515 48.5947C64.8398 49.1153 64.9919 49.3084 65.5242 49.2499C65.9629 49.2031 66.4134 49.2382 66.858 49.2499C67.2967 49.2616 67.5541 49.4605 67.519 49.9401C67.4839 50.373 67.2441 50.531 66.8287 50.5251C65.9395 50.5251 65.0445 50.5134 64.1553 50.5427C63.74 50.5544 63.6581 50.3672 63.6639 50.0103C63.6815 49.0978 63.6639 48.1852 63.6698 47.2668H63.6815Z" fill="black"/>
<path d="M20.4043 47.1264C20.4043 46.2372 20.4277 45.348 20.3926 44.4589C20.375 43.9792 20.6675 43.9148 20.9951 43.9499C21.2993 43.9792 21.7322 43.8622 21.7322 44.4296C21.7205 46.3074 21.7205 48.1794 21.7322 50.0572C21.7322 50.5486 21.428 50.531 21.0887 50.5369C20.7143 50.5369 20.3926 50.5369 20.3984 50.0162C20.416 49.051 20.3984 48.0916 20.3984 47.1264H20.4043Z" fill="black"/>
<path d="M69.6191 47.2493C69.6191 48.1619 69.6133 49.0745 69.6191 49.9871C69.6191 50.3322 69.5782 50.5603 69.1453 50.5369C68.7709 50.5194 68.4316 50.5077 68.4257 50.0163C68.4257 48.1151 68.4257 46.2139 68.4257 44.3127C68.4257 43.874 68.7416 43.9442 68.999 43.9676C69.2623 43.9851 69.625 43.8564 69.6133 44.3595C69.5957 45.3189 69.6133 46.2841 69.6133 47.2493H69.6191Z" fill="black"/>
<path d="M58.6682 57.9253C58.2528 57.6796 58.0481 57.2701 57.7615 56.9425C57.5567 56.7085 57.3052 56.4979 57.001 56.6208C56.7202 56.7319 56.843 57.0478 56.8313 57.2877C56.8255 57.5158 56.9483 57.8961 56.6149 57.8902C56.2756 57.8902 56.4101 57.51 56.4043 57.2877C56.3867 56.767 56.3692 56.2464 56.4043 55.7316C56.4218 55.4391 56.1937 55.0121 56.5915 54.8717C57.0946 54.6962 57.6562 54.5441 58.1651 54.8834C58.9373 55.3982 58.9782 55.6673 58.4108 56.4336C58.1768 56.7495 58.2763 57.0361 58.4634 57.3111C58.5863 57.4924 58.7091 57.6679 58.6682 57.9253ZM57.5567 56.3166C57.8258 56.1645 58.3172 56.34 58.3347 55.8252C58.3464 55.3455 58.0598 55.1525 57.5743 55.1232C57.0536 55.0881 56.96 55.3689 56.9074 55.7843C56.843 56.3224 57.2876 56.182 57.5567 56.3166Z" fill="black"/>
<path d="M78.388 56.3107C78.388 57.4339 77.8615 57.9837 76.8261 57.9779C76.1651 57.9779 75.1706 57.2701 75.2642 56.3692C75.352 55.5034 76.0832 54.6961 76.9197 54.7254C77.7329 54.7546 78.3939 55.4625 78.388 56.3048V56.3107ZM77.9902 56.4277C77.9902 55.7199 77.4755 55.1407 76.8671 55.1349C76.2821 55.129 75.5567 55.8369 75.5684 56.3984C75.5801 56.8957 76.4108 57.6913 76.8963 57.6679C77.5281 57.6386 77.9961 57.1121 77.9902 56.4277Z" fill="black"/>
<path d="M72.1287 57.9195C71.649 57.6972 71.3331 57.4105 71.1518 57.001C71.0348 56.7319 70.7715 56.6383 70.5492 56.6676C70.2275 56.7085 70.362 57.001 70.3679 57.2116C70.3737 57.3579 70.3796 57.51 70.3562 57.6504C70.3386 57.7732 70.2567 57.8961 70.1222 57.8844C70.0578 57.8785 69.9525 57.7498 69.9525 57.6738C69.9408 56.808 69.9057 55.9422 69.9584 55.0823C69.9818 54.7196 70.403 54.8366 70.637 54.8073C71.5554 54.6962 72.193 55.1642 72.1404 55.8603C72.1404 55.9071 72.1579 55.989 72.1404 56.0066C71.3214 56.6208 71.7894 57.2701 72.1345 57.9312L72.1287 57.9195ZM70.9002 55.1408C70.5551 55.0764 70.3269 55.2168 70.3328 55.6497C70.3386 56.0007 70.4498 56.3634 70.8593 56.2756C71.181 56.2055 71.7894 56.3985 71.7719 55.796C71.7602 55.3748 71.4384 55.094 70.9002 55.1466V55.1408Z" fill="black"/>
<path d="M62.2717 57.937C61.9967 57.8083 61.9207 57.6328 61.9558 57.469C62.102 56.7319 61.9675 55.989 62.0494 55.2519C62.0611 55.1349 62.0143 54.9945 62.1488 54.9185C62.336 54.819 62.4238 55.0004 62.4998 55.094C62.8216 55.4859 63.0907 55.9247 63.4358 56.2932C63.5996 56.4687 63.6464 56.9074 63.9798 56.7787C64.2314 56.6851 64.0793 56.3341 64.0851 56.106C64.091 55.8135 64.0325 55.5152 64.0383 55.2227C64.0383 55.0647 64.0617 54.8541 64.3074 54.8541C64.559 54.8541 64.559 55.0472 64.559 55.2227C64.559 55.989 64.559 56.7553 64.559 57.5217C64.559 57.6738 64.5414 57.8376 64.3718 57.8785C64.2021 57.9195 64.1085 57.7732 64.0208 57.6562C63.5236 57.0069 63.0907 56.3049 62.4179 55.6965C62.2073 56.4628 62.4355 57.1765 62.2717 57.9311V57.937Z" fill="black"/>
<path d="M48.3783 54.895C47.9922 55.2577 47.6003 55.1173 47.2551 55.1115C46.7988 55.1115 46.559 55.2343 46.5648 55.7315C46.5648 56.2288 46.8866 56.1644 47.22 56.1937C47.5125 56.2171 48.0507 56.0123 48.0507 56.3692C48.0507 56.7845 47.495 56.5622 47.1908 56.6441C46.9334 56.7085 46.5473 56.5213 46.5707 57.0244C46.5882 57.4514 46.7579 57.7088 47.2551 57.6737C47.612 57.6503 47.9805 57.5918 48.3373 57.9252C47.7056 57.9252 47.0738 57.9603 46.4478 57.9077C46.1612 57.8843 46.1378 57.5684 46.1378 57.311C46.1378 56.6968 46.1729 56.0767 46.1261 55.4625C46.091 54.9828 46.2899 54.7663 46.7228 54.7488C47.2493 54.7312 47.7933 54.5733 48.3841 54.8892L48.3783 54.895Z" fill="black"/>
<path d="M55.246 54.8716C54.8131 55.2811 54.3744 55.0939 53.9825 55.1173C53.5905 55.1407 53.3975 55.2577 53.3975 55.6789C53.3975 56.1235 53.6256 56.182 54.0059 56.2112C54.3276 56.2405 54.9009 55.9538 54.9243 56.4394C54.936 56.7728 54.3393 56.6032 54.0176 56.6383C53.7309 56.6734 53.3916 56.5564 53.3916 57.0302C53.3916 57.4631 53.6198 57.6503 54.041 57.6503C54.427 57.6503 54.8131 57.6503 55.2051 57.7673C54.5616 58.0071 53.9064 57.9779 53.2512 57.9077C52.9938 57.8784 52.9763 57.5977 52.9763 57.3695C52.9763 56.9483 52.9412 56.5271 52.9821 56.1118C53.0231 55.6964 52.7189 55.1056 53.1752 54.9009C53.7836 54.6259 54.4914 54.6142 55.246 54.8775V54.8716Z" fill="black"/>
<path d="M17.2629 56.3692C17.2629 55.439 17.9298 54.7371 18.7897 54.7371C19.4859 54.7371 20.3984 55.6906 20.3984 56.4043C20.3984 57.2232 19.6028 57.9603 18.7488 57.9486C17.7309 57.9311 17.2629 57.428 17.2688 56.3633L17.2629 56.3692ZM18.7839 55.1349C18.2574 55.1524 17.4618 55.9304 17.456 56.4335C17.456 56.9191 18.3276 57.7146 18.8248 57.6737C19.1875 57.6444 20.0884 56.7728 20.0825 56.4628C20.0767 56.0357 19.1817 55.1232 18.7839 55.1349Z" fill="black"/>
<path d="M15.6776 54.7955C15.8238 55.5209 15.818 57.3636 15.6834 57.9135C15.4261 57.8609 15.5372 57.6503 15.5021 57.504C15.4378 57.2057 15.6776 56.7494 15.3149 56.6441C14.9113 56.5271 14.4316 56.5856 14.0045 56.6733C13.6301 56.7552 13.8466 57.1238 13.8173 57.3695C13.7939 57.5801 13.8583 57.896 13.5775 57.9135C13.209 57.9369 13.285 57.5859 13.2792 57.3636C13.2675 56.6967 13.2792 56.0357 13.2792 55.3688C13.2792 55.1699 13.2441 54.9184 13.5132 54.9067C13.87 54.8891 13.7471 55.1933 13.7764 55.3981C13.8115 55.6555 13.6594 56.0649 13.9343 56.1293C14.3731 56.2404 14.8586 56.1995 15.3208 56.1585C15.5255 56.141 15.4729 55.8895 15.4904 55.7257C15.5255 55.4507 15.391 55.1465 15.6659 54.8014L15.6776 54.7955Z" fill="black"/>
<path d="M25.2948 57.9077C25.0257 57.7497 25.0432 57.4748 25.0374 57.2116C25.0257 56.6675 25.0783 56.1176 25.0081 55.5853C24.9204 54.9126 25.2304 54.7195 25.8212 54.7137C26.5583 54.7078 27.272 55.2402 27.196 55.8485C27.1316 56.3575 26.8508 56.8255 26.2307 56.7553C25.6107 56.6851 25.4293 56.9542 25.4586 57.5099C25.4644 57.6386 25.4995 57.8082 25.2948 57.9077ZM25.4586 55.6262C25.5171 55.9772 25.4761 56.4511 25.9441 56.4862C26.2717 56.5154 26.7046 56.1469 26.687 55.9246C26.6636 55.6204 26.5115 55.1524 25.9967 55.129C25.6457 55.1115 25.4059 55.1992 25.4527 55.6262H25.4586Z" fill="black"/>
<path d="M33.0458 57.9837C33.4787 56.919 33.8297 55.9538 34.2626 55.0237C34.4498 54.6259 34.6604 54.9652 34.7774 55.1465C35.3214 55.9831 35.6315 56.9249 36.0468 57.9369C35.3273 57.8375 35.3682 56.9249 34.5668 56.9775C33.818 57.0243 33.7537 57.7731 33.0458 57.9837ZM34.2275 56.1995C34.3269 56.3809 34.1514 56.7552 34.5843 56.7494C34.8242 56.7494 35.0172 56.568 35.0114 56.3458C34.9938 56.024 34.7364 55.831 34.4381 55.79C34.1573 55.7491 34.2977 56.0299 34.2275 56.1995Z" fill="black"/>
<path d="M43.6633 58.0189C42.9789 57.0186 42.5986 55.9773 42.4348 54.8366C43.014 55.4625 43.1836 56.3107 43.6926 57.118C43.95 56.4043 44.0319 55.7433 44.3828 55.1993C44.4881 55.0355 44.5291 54.6903 44.8333 54.8366C45.079 54.9594 44.9795 55.2402 44.8918 55.4332C44.5291 56.2815 44.2951 57.1882 43.6575 58.0189H43.6633Z" fill="black"/>
<path d="M67.326 57.2057C66.8638 57.0068 66.507 56.9483 66.4719 57.5801C66.4602 57.7731 66.2964 57.9837 66.0624 57.8784C65.8577 57.7848 65.9864 57.5801 66.0507 57.4221C66.3198 56.7435 66.5772 56.065 66.8521 55.3864C66.9282 55.205 67.0393 54.9886 67.2324 54.9652C67.4664 54.9359 67.5132 55.1933 67.5834 55.3688C67.9285 56.2054 68.262 57.0477 68.5369 57.9194C68.0338 57.4455 67.6068 56.9366 67.5073 56.2346C67.4781 56.0474 67.4137 55.831 67.1622 55.8193C67.0803 55.8193 66.9633 55.8836 66.9165 55.9597C66.7702 56.1644 66.9399 56.3165 67.0218 56.492C67.1212 56.7026 67.4313 56.802 67.326 57.2174V57.2057Z" fill="black"/>
<path d="M21.4163 57.4397C21.779 57.3637 22.0656 57.3169 22.323 57.5392C22.7033 57.8609 22.9314 57.6562 23.142 57.3169C23.4053 56.8898 23.1186 56.7611 22.7969 56.6383C22.6799 56.5973 22.5746 56.5213 22.4517 56.5037C21.8843 56.4218 21.5216 56.106 21.5274 55.5385C21.5333 55.0354 22.0305 54.8892 22.3932 54.7605C22.9314 54.5674 23.1771 55.0354 23.5281 55.3396C23.2532 55.521 23.1537 55.363 23.0426 55.287C22.7501 55.0881 22.44 55.0764 22.1417 55.2343C21.9954 55.3104 21.9954 55.5034 22.0422 55.638C22.1592 55.9597 22.4108 56.1703 22.7501 56.1879C23.2649 56.2113 23.5047 56.4394 23.5222 56.9542C23.5515 57.7966 22.9256 58.2587 22.1417 57.9136C21.9135 57.8141 21.621 57.7673 21.4046 57.4456L21.4163 57.4397Z" fill="black"/>
<path d="M50.4842 57.8959C50.4374 57.194 50.3731 56.492 50.3438 55.79C50.3263 55.3981 50.3438 55.0295 49.7705 55.1173C49.6126 55.1407 49.4722 55.0412 49.4839 54.8716C49.4956 54.7253 49.6535 54.7136 49.7764 54.7136C50.3438 54.7136 50.9113 54.7136 51.4787 54.7136C51.6542 54.7136 51.8648 54.7253 51.8648 54.9476C51.8648 55.129 51.66 55.1465 51.5196 55.129C50.8937 55.0412 50.8762 55.4156 50.8528 55.8894C50.8235 56.5739 50.8645 57.2759 50.6831 57.9427C50.6129 57.931 50.5486 57.9193 50.4784 57.9076L50.4842 57.8959Z" fill="black"/>
<path d="M30.0975 54.8248C30.9282 54.8131 31.7238 54.6844 32.5603 54.8307C32.4959 54.9418 32.4725 55.0179 32.455 55.0179C31.5541 54.9886 31.5717 55.597 31.5951 56.2288C31.6126 56.6734 31.6126 57.118 31.5951 57.5626C31.5951 57.6913 31.6009 57.896 31.4079 57.9136C31.1797 57.937 31.1212 57.7556 31.1212 57.5684C31.1154 57.0244 31.092 56.4804 31.1212 55.9363C31.1446 55.4157 31.1388 54.9769 30.4075 55.1232C30.2788 55.1466 30.1794 55.0588 30.0975 54.8248Z" fill="black"/>
<path d="M74.0591 56.5505C74.0591 56.8371 74.0708 57.2057 74.0591 57.5742C74.0591 57.7204 73.9831 57.8784 73.8193 57.9018C73.638 57.9252 73.5561 57.7555 73.521 57.6327C73.2694 56.8196 73.3689 55.983 73.3923 55.1524C73.3923 54.9535 73.5385 54.8657 73.7433 54.8657C73.948 54.8657 74.0591 54.9476 74.0767 55.1582C74.1176 55.597 74.2054 56.0357 74.0591 56.5505Z" fill="black"/>
<path d="M39.2291 57.9487C38.7202 57.9487 38.2112 57.937 37.7023 57.9487C37.3338 57.9604 37.2285 57.7205 37.2226 57.4397C37.2051 56.7026 37.2226 55.9656 37.2226 55.2285C37.2226 55.0471 37.2753 54.8599 37.4976 54.8833C37.7081 54.9009 37.6379 55.1056 37.6379 55.2343C37.6496 55.7959 37.673 56.3633 37.6379 56.9249C37.597 57.5099 37.8193 57.7322 38.4043 57.6796C38.6734 57.6562 38.9834 57.5801 39.2291 57.9428V57.9487Z" fill="black"/>
<path d="M28.3835 56.3282C28.3835 55.9597 28.3718 55.5911 28.3835 55.2284C28.3893 55.0588 28.442 54.8774 28.676 54.8716C28.8632 54.8716 28.9451 55.0178 28.9685 55.1524C29.1323 56.0065 29.0153 56.8605 28.9509 57.7146C28.9451 57.8199 28.8398 57.9545 28.6935 57.9135C28.5414 57.8726 28.4537 57.7263 28.4478 57.5801C28.4361 57.1647 28.4478 56.7435 28.4478 56.3282C28.4244 56.3282 28.4069 56.3282 28.3835 56.3282Z" fill="black"/>
<path d="M60.5226 56.4043C60.5226 56.8255 60.5226 57.2467 60.5226 57.662C60.5226 57.7615 60.505 57.8726 60.3822 57.8902C60.2301 57.9136 60.1482 57.8024 60.1482 57.6796C60.1365 56.8138 60.1306 55.948 60.1306 55.0881C60.1306 54.9419 60.2184 54.8658 60.3646 54.8775C60.5343 54.8892 60.5401 55.0238 60.5401 55.1466C60.5401 55.5678 60.5401 55.989 60.5401 56.4043C60.5401 56.4043 60.5284 56.4043 60.5226 56.4043Z" fill="black"/>
</g>
<defs>
<clipPath id="clip0_34_16038">
<rect width="90" height="58.0188" fill="white"/>
</clipPath>
</defs>
</svg>
