<svg width="24" height="22" viewBox="0 0 24 22" fill="none" xmlns="http://www.w3.org/2000/svg">
<g clip-path="url(#clip0_34_15309)">
<path d="M22.63 2.02H21.32L19.42 0.12C19.34 0.04 19.23 0 19.12 0H16.95C14.84 0 13.14 1.7 13.14 3.81V6.71L13.08 6.73C12.29 7.06 11.55 7.49 10.86 7.99C9.48 9 8.41 10.39 7.78 11.98C7.35 13.05 7.13 14.19 7.13 15.35V18.62C6.54 18.62 6.06 18.14 6.06 17.55V14.91C6.06 13.08 4.58 11.6 2.75 11.6H0.85C0.85 12.06 1.21 12.43 1.66 12.45H2.76C4.11 12.45 5.21 13.55 5.21 14.91V17.55C5.21 18.61 6.07 19.47 7.13 19.47V20.5C6.31 20.5 5.58 20.17 5.04 19.64C4.51 19.11 4.18 18.37 4.18 17.55V16.19C4.18 15.4 3.54 14.77 2.76 14.77C2.23 14.77 1.76 14.56 1.41 14.21C1.07 13.87 0.86 13.38 0.85 12.86C0.83 12.41 0.45 12.03 0 12.03V12.84V12.86C0 14.39 1.24 15.62 2.76 15.62C3.07 15.62 3.33 15.88 3.33 16.19V17.55C3.33 19.65 5.03 21.36 7.14 21.36H19.23C19.34 21.36 19.45 21.31 19.53 21.24C19.61 21.16 19.65 21.05 19.65 20.94V19.77C19.65 18.56 18.77 17.56 17.63 17.36V15.19C19.19 14.98 20.39 13.65 20.39 12.03V11.49C20.37 11.04 20 10.68 19.54 10.68V12.03C19.54 12.68 19.28 13.26 18.86 13.68C18.44 14.1 17.86 14.36 17.21 14.36C17.1 14.36 16.99 14.41 16.91 14.48C16.83 14.56 16.79 14.67 16.79 14.78V17.73C16.79 17.84 16.84 17.95 16.91 18.03C16.99 18.11 17.1 18.15 17.21 18.15C17.65 18.15 18.05 18.33 18.34 18.62C18.63 18.91 18.81 19.31 18.81 19.75V20.49H15.99C15.96 19.89 15.76 19.34 15.43 18.88V14.77H14.58V18.09C14.25 17.89 13.87 17.75 13.47 17.69V17.59C13.47 15.56 11.82 13.91 9.79 13.91V14.76C10.57 14.76 11.28 15.08 11.79 15.59C12.3 16.1 12.62 16.81 12.62 17.59V18.08C12.62 18.19 12.67 18.3 12.74 18.38C12.82 18.46 12.93 18.5 13.04 18.5C13.63 18.5 14.15 18.73 14.53 19.12C14.88 19.47 15.1 19.94 15.13 20.47H8V15.31C8 14.26 8.2 13.23 8.59 12.26C9.16 10.82 10.13 9.56 11.38 8.65C12.01 8.18 12.7 7.8 13.43 7.49L13.66 7.39H13.93C15.88 7.39 17.46 5.81 17.46 3.86V3.66C17.44 3.21 17.07 2.85 16.61 2.85V3.86C16.61 4.6 16.31 5.27 15.82 5.75C15.35 6.22 14.71 6.51 14 6.53V3.77C14 2.95 14.33 2.21 14.87 1.68C15.4 1.15 16.14 0.81 16.96 0.81H18.95L20.85 2.71C20.93 2.79 21.04 2.83 21.15 2.83H22.64C22.93 2.83 23.15 3.06 23.15 3.34V3.96C23.15 4.79 22.48 5.46 21.65 5.46C20.49 5.46 19.56 6.4 19.56 7.55V8.95C19.58 9.4 19.95 9.76 20.41 9.76V7.55C20.41 6.87 20.97 6.31 21.65 6.31C22.95 6.31 24.01 5.25 24.01 3.95V3.33C24.01 2.57 23.4 1.96 22.64 1.96V1.94L22.63 2.02Z" fill="#2D6DF6"/>
<path d="M19.73 2.99001C19.73 2.88001 19.68 2.77001 19.61 2.69001C19.53 2.61001 19.42 2.57001 19.31 2.57001C19.2 2.57001 19.09 2.62001 19.01 2.69001C18.93 2.77001 18.89 2.88001 18.89 2.99001C18.89 3.10001 18.94 3.21001 19.01 3.29001C19.09 3.37001 19.2 3.41001 19.31 3.41001C19.42 3.41001 19.53 3.36001 19.61 3.29001C19.69 3.21001 19.73 3.10001 19.73 2.99001Z" fill="#2D6DF6"/>
</g>
<defs>
<clipPath id="clip0_34_15309">
<rect width="24" height="21.36" fill="white"/>
</clipPath>
</defs>
</svg>
