<svg width="24" height="20" viewBox="0 0 24 20" fill="none" xmlns="http://www.w3.org/2000/svg">
<g clip-path="url(#clip0_34_15303)">
<path d="M21.08 5.33C21.16 5.25 21.2 5.14 21.2 5.02C21.2 4.9 21.15 4.8 21.08 4.71C21 4.63 20.89 4.59 20.77 4.59C20.65 4.59 20.55 4.64 20.46 4.71C20.38 4.79 20.34 4.9 20.34 5.02C20.34 5.14 20.39 5.24 20.46 5.33C20.54 5.41 20.65 5.45 20.77 5.45C20.89 5.45 20.99 5.4 21.08 5.33Z" fill="#2D6DF6"/>
<path d="M23.55 4.53L22.85 3.93C22.78 3.73 22.61 3.36 22.23 2.99C21.75 2.5 20.93 2.05 19.66 1.99L19.16 0.57C19.1 0.39 18.97 0.24 18.83 0.14C18.68 0.04 18.52 0 18.35 0C18.18 0 18.01 0.05 17.85 0.16C17.7 0.26 17.58 0.43 17.52 0.63L16.75 3.31C16.48 3.74 16.34 4.18 16.26 4.52C16.18 4.88 16.18 5.13 16.18 5.15V6.67C16.18 7.1 16.01 7.49 15.72 7.78C15.43 8.07 15.05 8.24 14.61 8.24H13.44C10.37 8.24 7.88 10.73 7.88 13.81V19.12H6.31C5.72 19.12 5.23 18.64 5.23 18.04V12.79C5.23 10.95 3.74 9.46 1.9 9.46H0V10.32H1.92C3.29 10.32 4.39 11.43 4.39 12.79V18.04C4.39 19.11 5.26 19.98 6.33 19.98H8.33C8.44 19.98 8.55 19.93 8.64 19.86C8.72 19.78 8.76 19.67 8.76 19.55V13.81C8.76 12.51 9.29 11.33 10.14 10.48C10.99 9.63 12.16 9.1 13.46 9.1H14.63C15.97 9.1 17.05 8.01 17.05 6.68V5.17C17.05 5.17 17.08 4.35 17.51 3.73C17.54 3.7 17.56 3.65 17.57 3.61L18.35 0.89L18.95 2.57C19.01 2.74 19.17 2.86 19.35 2.86C20.61 2.86 21.25 3.26 21.62 3.62C21.8 3.8 21.91 3.98 21.98 4.12C22.01 4.18 22.03 4.24 22.04 4.27V4.3H22.05C22.07 4.39 22.12 4.47 22.19 4.53L22.98 5.21C23.08 5.29 23.14 5.42 23.14 5.55V6.12C23.14 6.26 23.08 6.38 22.96 6.48L21.65 7.46C21.54 7.54 21.48 7.67 21.48 7.8V8.92C21.48 9.65 21.39 10.38 21.21 11.08C21.01 11.89 20.69 12.67 20.27 13.39L19.77 14.23C19.73 14.29 19.71 14.37 19.71 14.45V17.31C19.71 17.42 19.76 17.53 19.83 17.62C19.91 17.7 20.02 17.74 20.14 17.74H20.22C20.41 17.74 20.58 17.82 20.7 17.94C20.82 18.06 20.9 18.23 20.9 18.43V18.48C20.89 18.66 20.81 18.81 20.67 18.92C20.54 19.04 20.35 19.11 20.16 19.11H18.81C18.43 19.11 18.13 18.8 18.13 18.43V13.51H17.27V17.05C17.06 16.95 16.83 16.88 16.58 16.88H15.43V15.7C15.43 13.73 14.09 12.07 12.28 11.57L12.05 12.4C13.5 12.8 14.57 14.12 14.56 15.7V17.31C14.56 17.42 14.61 17.53 14.68 17.62C14.76 17.7 14.87 17.74 14.99 17.74H16.57C16.95 17.74 17.26 18.05 17.26 18.43C17.26 18.81 16.95 19.12 16.57 19.12H10.49C10.03 19.15 9.67 19.52 9.67 19.98H16.56C17 19.98 17.4 19.79 17.68 19.5C17.96 19.79 18.36 19.98 18.8 19.98H20.15C20.55 19.98 20.93 19.83 21.22 19.58C21.51 19.33 21.72 18.96 21.75 18.55V18.44C21.75 18.01 21.58 17.62 21.3 17.34C21.1 17.14 20.84 17 20.56 16.93V14.57L21 13.83C21.47 13.03 21.81 12.18 22.04 11.29C22.23 10.52 22.33 9.72 22.33 8.92V8.01L23.48 7.15C23.8 6.9 24 6.52 24 6.11V5.54C24 5.16 23.83 4.8 23.55 4.55V4.53Z" fill="#2D6DF6"/>
</g>
<defs>
<clipPath id="clip0_34_15303">
<rect width="24" height="19.96" fill="white"/>
</clipPath>
</defs>
</svg>
