<svg width="133" height="48" viewBox="0 0 133 48" fill="none" xmlns="http://www.w3.org/2000/svg">
<g clip-path="url(#clip0_34_16164)">
<path d="M125.69 42.4501C125.716 42.4067 125.716 42.3632 125.69 42.3197C125.69 42.085 125.707 41.8503 125.707 41.6156C125.707 41.1896 125.925 40.9462 126.351 40.9549C126.829 40.9549 126.898 41.2939 126.898 41.6764C126.898 41.9372 126.898 42.1893 126.916 42.4501C126.933 42.6849 127.116 42.7544 127.316 42.7457C127.507 42.7457 127.611 42.6153 127.603 42.4154C127.585 42.0155 127.629 41.6069 127.542 41.2244C127.437 40.7115 127.168 40.3289 126.525 40.3985C125.499 40.5028 124.464 40.6245 123.421 40.5376C122.908 40.4941 122.604 40.7984 122.491 41.2157C122.369 41.6417 122.387 42.1459 122.786 42.4328C123.204 42.7283 123.664 43.1891 124.23 42.8327C124.525 42.6414 124.803 42.6849 125.09 42.5979C125.194 42.6414 125.29 42.6849 125.394 42.7283C125.681 42.8327 125.742 42.711 125.69 42.4501ZM90.6379 40.1551C90.6205 40.0247 90.5945 39.8856 90.5771 39.7552C90.5597 39.6074 90.6119 39.4074 90.3511 39.4248C90.1598 39.4335 90.0729 39.5726 90.0555 39.7465C90.0294 39.9986 89.9685 40.2768 90.3597 40.3029C90.3337 40.555 90.2554 40.7897 89.9685 40.8592C89.8642 40.3724 89.6469 40.1116 89.0905 40.3811C88.9166 40.468 88.6732 40.4159 88.4646 40.4072C88.2385 40.4072 88.0994 40.5028 88.0734 40.7201C88.0212 41.1287 87.9864 41.546 87.9256 41.9546C87.856 42.4241 88.1168 42.8501 88.4733 42.8501C88.8818 42.8501 88.708 42.3284 88.708 42.0329C88.7254 40.981 88.8558 40.8592 89.9251 40.9983C89.9251 41.4678 89.899 41.9285 89.9164 42.398C89.9251 42.7196 90.1337 42.9022 90.4554 42.9196C90.7075 42.937 90.8813 42.8153 90.864 42.5545C90.8118 41.7547 91.0465 40.9288 90.6466 40.1551H90.6379ZM98.7402 40.5289C98.2534 40.2768 97.7318 40.4333 97.2276 40.4159C97.0885 40.4159 96.9059 40.4941 96.9059 40.6419C96.9059 41.3548 96.6364 42.1198 97.271 42.8674C97.5406 41.9981 97.1667 40.6593 98.7402 40.9549C98.7402 41.4243 98.7402 41.8938 98.7229 42.3632C98.7229 42.6414 98.888 42.7283 99.1141 42.7718C99.2706 42.7979 99.4097 42.7718 99.4183 42.5806C99.4705 41.6503 99.6009 40.7288 99.5314 39.7899C99.5053 39.4857 99.3053 39.4161 99.0271 39.4422C98.7055 39.4683 98.6707 39.6856 98.8011 39.8856C98.9663 40.1464 98.8011 40.3289 98.7316 40.5376L98.7402 40.5289ZM121.978 41.6069C122.265 41.0418 122.134 40.7897 121.361 40.4854C120.778 40.2507 119.77 40.4854 119.622 40.894C119.248 41.9372 119.474 42.4588 120.448 42.7718C121.204 43.0152 121.491 42.8761 121.952 42.0068C122.056 41.8764 122.013 41.746 121.969 41.6156L121.978 41.6069ZM74.8071 41.972C74.981 41.9112 74.9723 41.7373 75.0331 41.6069C75.094 40.8679 74.7636 40.5115 73.8943 40.3811C73.3988 40.3029 72.6337 40.668 72.5555 41.007C72.3295 42.0155 72.6772 42.6936 73.5292 42.8935C73.9899 43.0065 74.6245 42.5458 74.8071 41.9633V41.972ZM86.0391 45.4059C85.9 45.545 85.8304 45.6667 86.1173 45.6841C86.1173 46.0145 86.126 46.3448 86.1434 46.6752C86.1608 46.936 86.0217 47.2924 86.4738 47.3098C86.9345 47.3272 86.9084 46.9795 86.9084 46.6665C86.9084 46.171 86.9171 45.6407 87.5604 45.632C88.3429 45.6233 88.0125 46.2753 88.0125 46.6404C88.0125 47.1968 88.2907 47.3272 88.7428 47.3098C89.2209 47.2924 89.6034 47.2229 89.6208 46.5796C89.6295 46.171 89.3252 45.7971 89.4817 45.4233C89.699 44.9191 89.3774 44.8582 89.0731 44.9278C88.2559 45.119 87.4561 44.8495 86.6476 44.893C86.2564 44.9191 86.0912 45.0582 86.0304 45.4059H86.0391ZM10.5449 43.2065C11.536 44.4149 12.9183 45.1104 14.231 45.8493C15.9349 46.8143 17.8996 47.1098 19.8035 47.2489C22.8027 47.4663 25.7933 47.3359 28.6361 46.0753C31.0615 44.9973 33.3132 43.7716 34.8171 41.4852C35.3909 40.6158 36.0516 39.7465 36.3298 38.7728C36.5819 37.9122 36.7992 37.008 36.9383 36.0952C37.1991 34.4608 37.2948 32.8439 36.9731 31.2182C36.7471 30.0793 37.2687 28.5406 38.0946 28.019C38.4597 27.7843 38.8335 27.5582 39.1986 27.3148C40.52 26.4455 41.1981 25.2545 41.0938 23.6462C41.0677 23.2376 41.0069 23.0115 40.5114 22.9681C39.7811 22.9072 38.9726 22.829 38.5379 22.1509C37.9468 21.2207 37.147 20.6295 36.1385 20.2557C35.1562 19.8906 34.791 19.143 34.8345 18.1519C34.8432 17.9259 34.9128 17.6303 34.652 17.5173C34.3911 17.413 34.1825 17.6216 33.9999 17.8042C33.8869 17.9172 33.7826 18.0476 33.6957 18.1867C33.4696 18.517 33.3827 19.1603 32.9828 19.1082C32.5916 19.056 32.5307 18.4301 32.383 18.0215C32.3221 17.865 32.3308 17.5955 32.0091 17.6042C31.7136 17.6042 31.6005 17.7694 31.4962 17.9954C31.2963 18.4388 31.105 18.8735 30.992 19.3429C30.8007 20.1427 30.4008 20.8121 29.575 21.1251C29.2533 20.5426 29.2185 19.8819 29.0447 19.256C28.61 17.6998 29.4098 15.6047 30.7399 14.7006C31.1485 14.4224 31.5919 14.3702 31.9831 14.7006C33.2871 15.822 34.7215 16.7522 36.2516 17.5434C36.6601 17.7607 37.147 17.9259 37.4339 18.3779C38.3554 19.8384 39.7724 20.3253 41.4155 19.7254C43.2585 19.0473 43.3976 18.2041 43.1542 16.3523C43.0238 15.3265 42.1892 14.6137 41.7632 13.7095C40.7113 11.4405 39.8854 9.04983 38.3988 7.01556C37.3469 5.57244 36.9383 4.05978 37.0861 2.33847C37.1122 2.06028 37.1557 1.78209 37.1644 1.5039C37.1731 1.24309 37.2687 0.877967 36.7732 1.15616C36.5558 1.27787 36.2342 1.5039 36.0777 1.29525C35.9386 1.104 35.956 0.738871 36.1038 0.451987C36.1646 0.338972 36.295 0.23465 36.1646 0.0781675C36.0081 -0.104395 35.8603 0.0520871 35.7299 0.104248C34.8258 0.443293 34.0608 0.982289 33.3914 1.68646C32.7568 2.35586 31.957 2.89485 31.0963 3.13827C29.5228 3.58164 27.9058 3.84244 26.2975 4.18149C23.0027 4.87696 20.2121 6.45048 17.804 8.79772C16.1609 10.406 14.9786 12.2925 14.0745 14.3702C13.8485 14.9005 13.5442 15.3178 12.9443 15.3265C12.2923 15.3439 11.5186 15.6221 11.11 14.8223C10.9362 14.4746 10.7536 14.1268 10.6232 13.753C10.2668 12.7619 9.64952 11.9361 8.82364 11.2667C8.41505 10.9363 8.09339 11.0667 7.95429 11.5622C7.73695 12.3533 7.74565 13.1792 7.66741 13.9877C7.61525 14.518 7.66741 15.1266 7.30228 15.5178C6.59811 16.3002 6.04173 17.1348 5.74615 18.1432C5.59836 18.6648 5.22454 19.0126 4.7464 19.1169C4.19002 19.2386 3.65971 19.4733 3.05117 19.4733C2.31223 19.4733 1.56459 19.6298 0.834335 19.7689C0.477903 19.8384 0.0171486 19.9167 -0.0089318 20.3861C-0.0523992 21.0816 -0.0697861 21.7597 0.382275 22.3943C0.990818 23.2376 1.74715 23.8635 2.68605 24.3069C3.69449 24.785 4.73771 25.0458 5.85916 25.0893C6.25906 25.1067 6.79806 25.1849 6.78937 25.7326C6.78937 26.6193 6.93715 27.5148 6.70243 28.4015C6.44163 29.3926 6.12866 30.3575 6.05042 31.4094C5.82439 34.5217 6.49379 37.434 7.98037 40.1464C8.615 41.3113 9.39741 42.4154 10.5102 43.2152L10.5449 43.2065ZM120.013 37.4166C123.569 37.4166 127.124 37.4166 130.68 37.4166C132.149 37.4166 132.175 37.4166 132.123 35.9387C132.08 34.6521 132.288 33.3568 132.001 32.0788C131.949 31.8615 131.915 31.7572 131.671 31.7485C130.828 31.7137 129.985 31.6268 129.141 31.6181C126.012 31.6007 122.882 31.6007 119.761 31.6007C119.361 31.6007 118.953 31.6181 118.553 31.6007C118.327 31.5833 118.083 31.5225 118.387 31.2356C118.84 30.8009 119.222 30.3054 119.631 29.8272C121.274 27.8973 122.899 25.9499 124.49 23.9852C126.525 21.4902 128.672 19.0908 130.68 16.5697C131.454 15.5873 131.958 14.518 132.019 13.2227C132.045 12.5533 131.984 11.8839 132.054 11.2406C132.132 10.6147 132.019 10.5016 131.462 10.5016C124.873 10.5016 118.292 10.5016 111.702 10.5016C110.85 10.5016 109.998 10.5016 109.146 10.5016C108.825 10.5016 108.651 10.606 108.494 10.9711C107.816 12.5881 107.112 14.1964 106.304 15.7525C106.017 16.3176 106.156 16.3176 106.634 16.3089C107.938 16.3089 109.242 16.3089 110.546 16.3089C114.171 16.3089 117.796 16.3089 121.422 16.3089C121.569 16.3089 121.778 16.1959 121.865 16.3871C121.952 16.5784 121.726 16.6479 121.639 16.7783C121.378 17.1956 120.943 17.4999 120.7 17.9085C119.9 19.2386 118.735 20.2818 117.788 21.4902C116.701 22.8725 115.475 24.1678 114.354 25.5327C113.971 26.0021 113.502 26.402 113.145 26.8975C112.545 27.7234 111.911 28.5406 111.181 29.2622C110.198 30.2358 109.338 31.2964 108.616 32.4527C107.79 33.7741 107.981 35.3128 107.947 36.7994C107.938 37.3036 108.086 37.4166 108.573 37.4166C112.389 37.3992 116.205 37.4079 120.013 37.4079V37.4166ZM70.5995 10.7538C72.1382 11.5622 73.6248 12.362 74.981 13.3618C76.059 14.1529 77.0674 15.0396 77.7977 16.135C78.667 17.439 79.406 18.8474 80.0493 20.2731C81.3011 23.0289 82.7877 25.6804 84.0048 28.4624C84.8655 30.4271 85.9869 32.2701 86.8302 34.2522C87.0127 34.6869 87.1518 35.165 87.3692 35.5562C87.6387 36.0431 88.0299 36.4777 88.2038 37.0341C88.282 37.2862 88.4385 37.434 88.7601 37.4253C90.5162 37.4079 92.2636 37.4166 94.0197 37.4253C94.2457 37.4253 94.4978 37.4253 94.5674 37.1906C94.863 36.13 95.5063 35.252 96.0192 34.3044C96.6277 33.1916 96.932 31.9397 97.6014 30.8618C98.3143 29.7142 98.9576 28.5319 99.4183 27.2627C99.8269 26.1499 100.505 25.1675 100.966 24.0895C102.157 21.325 103.652 18.7083 104.93 15.9872C105.634 14.4833 106.399 13.0054 107.095 11.4927C107.39 10.8581 107.164 10.5016 106.434 10.5016C105.182 10.4929 103.922 10.4582 102.67 10.5364C100.861 10.6407 99.5748 11.5622 98.6794 13.1445C97.3667 15.4569 96.4104 17.9346 95.1412 20.2644C94.2544 21.8814 93.4981 23.5679 92.6896 25.2284C92.3679 25.8891 91.9593 26.515 91.742 27.2279C91.6811 27.4191 91.629 27.7234 91.4203 27.7234C91.1943 27.7234 91.0813 27.4365 90.9944 27.2192C90.2728 25.324 89.2122 23.5853 88.3689 21.7336C87.5778 19.9949 86.6998 18.2823 85.7261 16.6132C85.1871 15.6916 84.8046 14.631 84.3786 13.6226C83.4658 11.4579 81.7967 10.5103 79.5277 10.4929C76.8501 10.4756 74.1725 10.5016 71.4949 10.519C71.1906 10.519 70.8777 10.4843 70.5995 10.7538ZM64.0968 10.2582C62.9666 10.1539 61.9408 10.4929 60.8889 10.519C59.7848 10.5451 58.8024 10.9537 57.8027 11.2667C56.29 11.7448 54.9425 12.6228 53.6994 13.5617C51.7781 15.0136 50.2828 16.8479 49.3613 19.143C48.4398 21.438 48.1442 23.7418 48.6484 26.1673C49.2396 29.0361 50.561 31.5225 52.7344 33.4524C54.8121 35.2954 57.142 36.7559 59.9847 37.321C62.2972 37.7818 64.5488 37.9817 66.87 37.4427C69.252 36.8863 71.5036 36.0691 73.5031 34.6608C74.3551 34.0609 75.2592 33.5306 75.9373 32.7048C76.2068 32.3831 76.3632 32.2179 75.9025 31.8963C75.407 31.5485 75.0158 31.0704 74.5376 30.6879C72.7381 29.2622 70.8081 29.0883 68.7478 30.0446C68.1218 30.3315 67.5046 30.6531 66.87 30.9052C65.0878 31.6094 63.2622 31.6355 61.4279 31.1226C59.5501 30.6009 58.0461 29.5143 56.8725 27.9842C55.2381 25.863 54.8382 23.5853 56.0988 21.1338C56.5769 20.1949 57.2376 19.3516 58.0461 18.7083C60.6628 16.6132 64.1576 15.7438 67.322 17.3608C68.1566 17.7868 69.0694 18.2128 69.9127 18.3866C72.399 18.8995 74.4507 17.8737 76.0851 15.9959C76.3024 15.7525 76.3719 15.5612 76.059 15.2657C74.1377 13.4574 71.9122 12.1534 69.4432 11.2667C67.6958 10.6407 65.905 10.1104 64.0707 10.2582H64.0968ZM84.1265 47.3185C84.9176 47.3185 85.474 46.7447 85.4914 45.9449C85.5001 45.2494 85.1089 44.9365 84.2221 44.9191C83.6136 44.9104 83.0138 45.5363 82.3965 44.9191C82.3444 44.8669 82.1705 44.9365 82.0662 44.9626C81.7619 45.0408 81.7097 45.3625 81.5272 45.5711C81.4055 45.7102 81.3881 45.9101 81.136 45.8841C80.8665 45.858 80.9882 45.6407 80.9447 45.5016C80.9186 45.4146 80.9273 45.3016 80.8665 45.2321C80.6665 44.9886 80.3796 44.8148 80.0754 44.9278C79.7972 45.0321 80.0319 45.2581 80.0406 45.4494C80.0667 45.8319 80.3883 46.197 80.3362 46.4752C80.2232 47.0838 80.7448 47.0751 80.9882 47.2576C81.2577 47.4576 81.6054 47.2924 81.8662 47.0316C82.0922 46.7969 82.1357 46.4926 82.2661 46.2318C82.3704 46.0232 82.3096 45.6146 82.6573 45.658C82.8747 45.6841 82.8573 46.0406 82.9007 46.2405C83.0398 46.9273 83.3963 47.3185 84.1178 47.3185H84.1265ZM73.8074 44.9191C73.8074 45.2842 73.8074 45.5016 73.8074 45.7102C73.8074 46.0666 73.7465 46.3448 73.2597 46.3448C72.7728 46.3448 72.6511 46.1188 72.6772 45.6928C72.7033 45.3451 72.6511 44.9886 72.6772 44.6322C72.7207 44.2062 72.4686 43.9802 72.1295 43.9628C71.7731 43.9454 71.5558 44.241 71.5558 44.6061C71.5471 45.1625 71.5471 45.7102 71.6948 46.2666C71.8426 46.823 72.3295 47.2837 72.9467 47.3098C73.9291 47.362 74.4594 47.0664 74.6767 46.4231C74.8245 45.9884 74.8332 45.5537 74.8158 45.1104C74.7984 44.6409 74.9114 43.9715 74.242 43.9715C73.5379 43.9715 73.8248 44.6496 73.7987 44.9104L73.8074 44.9191ZM94.4718 45.7189C94.4718 45.7189 94.4718 45.7189 94.4631 45.7189C94.4631 45.3016 94.4718 44.8756 94.4631 44.4583C94.4631 44.1715 94.2805 44.0411 93.9936 44.0671C93.8197 44.0845 93.5676 44.0063 93.6024 44.3106C93.672 44.9886 93.2199 44.9191 92.7852 44.9191C92.2462 44.9191 91.8376 45.1712 91.7768 45.7189C91.6638 46.6926 91.942 47.1707 92.5679 47.3011C94.0719 47.6054 94.4891 47.275 94.4804 45.7971C94.4804 45.7711 94.4804 45.7537 94.4804 45.7276L94.4718 45.7189ZM104.104 47.3011C104.408 47.3185 104.774 47.3011 105.13 47.1533C105.426 47.0316 105.434 46.7969 105.373 46.5709C105.313 46.3796 105.173 46.3535 104.93 46.4144C104.6 46.5013 104.226 46.4926 103.878 46.4491C103.461 46.3883 103.226 46.0927 103.27 45.6667C103.304 45.3277 103.339 44.9973 103.869 45.006C104.2 45.006 104.521 44.893 104.869 45.0234C105.139 45.1277 105.443 44.9278 105.478 44.6844C105.504 44.4844 105.339 44.2236 105 44.1888C104.513 44.1367 104.035 43.9976 103.548 44.0584C102.948 44.128 102.496 44.4844 102.305 45.0147C101.887 46.2318 102.722 47.3011 104.095 47.2924L104.104 47.3011ZM107.173 44.9017C107.399 44.9017 107.608 44.9017 107.816 44.9017C108.173 44.9017 108.546 44.9713 108.529 44.3975C108.512 43.8063 108.094 44.0845 107.868 44.0845C106.251 44.0671 106.251 44.0845 106.251 45.658C106.251 46.8114 106.845 47.3649 108.034 47.3185C108.242 47.3185 108.468 47.362 108.616 47.1446C108.738 46.9708 108.59 46.8143 108.503 46.7013C108.347 46.5013 108.138 46.5622 107.929 46.6491C107.547 46.8056 107.251 46.736 107.173 46.2057C107.46 46.2057 107.721 46.1883 107.981 46.2057C108.381 46.2405 108.373 45.9797 108.399 45.7102C108.433 45.3885 108.294 45.3016 107.99 45.319C107.668 45.3364 107.312 45.3799 107.173 44.9017ZM100.296 45.6667C100.296 45.2668 100.296 44.8669 100.296 44.467C100.296 44.2845 100.296 44.0584 100.027 44.0758C99.8617 44.0845 99.6531 43.9628 99.5487 44.241C99.3836 44.7018 99.0619 44.8843 98.549 44.9539C97.8622 45.0495 97.5058 45.5798 97.5753 46.1101C97.6883 46.8925 98.1404 47.3185 98.8793 47.3185C99.824 47.3185 100.296 46.7708 100.296 45.6754V45.6667ZM62.871 42.2241C62.9057 42.4501 62.7058 42.7892 63.1579 42.7892C63.5665 42.7892 63.4013 42.4675 63.4187 42.2676C63.4534 41.972 63.4013 41.6764 63.5491 41.3809C63.7925 40.8853 64.2272 40.894 64.6444 40.9549C65.14 41.0331 64.7053 41.3461 64.7575 41.5373C64.827 41.8068 64.94 42.0763 65.0791 42.3111C65.4182 42.8761 65.9919 42.8848 66.5135 42.7283C67.0265 42.5719 67.5568 42.3632 67.5655 41.6156C67.5655 41.0679 67.2612 40.7897 66.896 40.555C66.4092 40.2507 65.8702 40.3203 65.3573 40.555C65.2269 40.6158 65.2182 40.9027 64.9313 40.6941C64.3402 40.2594 63.6447 40.5724 63.0014 40.5463C62.8884 40.5463 62.7406 40.6941 62.8014 40.7549C63.2883 41.2331 62.8014 41.7373 62.871 42.2241ZM110.268 44.0758C109.824 44.0324 109.39 44.0237 109.268 44.5714C109.146 45.093 109.303 45.5189 109.711 45.8841C109.946 46.0927 110.537 45.8841 110.433 46.3361C110.372 46.5882 109.851 46.4491 109.538 46.4578C109.355 46.4578 109.19 46.51 109.129 46.6752C109.051 46.8664 109.242 46.9621 109.355 47.0664C109.703 47.4054 110.911 47.362 111.311 47.0055C111.659 46.6926 111.659 45.9275 111.25 45.4581C111.042 45.2234 110.911 45.093 111.207 44.8148C111.45 44.5714 111.511 44.3192 111.015 44.1715C110.755 44.0932 110.511 44.1106 110.268 44.0758ZM111.485 39.4161C110.676 39.4161 109.894 39.4161 109.12 39.4161C108.946 39.4161 108.764 39.4422 108.72 39.6161C108.66 39.8247 108.877 39.8595 108.999 39.9638C109.364 40.242 109.781 39.9899 110.19 40.1203C110.137 40.4159 110.05 40.668 109.816 40.894C109.425 41.2852 109.033 41.6851 108.781 42.1893C108.52 42.7283 108.633 42.9196 109.207 42.9196C109.729 42.9196 110.242 42.9196 110.763 42.9022C111.076 42.8935 111.45 42.8153 111.459 42.4675C111.459 42.0763 111.068 42.2937 110.85 42.2328C110.546 42.1546 110.042 42.1285 109.998 41.972C109.911 41.6677 110.207 41.3548 110.433 41.094C110.476 41.0418 110.555 41.007 110.589 40.9549C110.92 40.4941 111.398 40.1203 111.494 39.4074L111.485 39.4161ZM72.0947 41.5199C72.1034 40.9114 72.0947 40.3116 71.8426 39.7465C71.7818 39.6161 71.8687 39.3814 71.5992 39.4074C71.4254 39.4248 71.2602 39.5378 71.2863 39.7204C71.3558 40.3724 70.8951 40.3637 70.4778 40.3985C69.8171 40.4593 69.478 40.8419 69.4345 41.4765C69.3911 42.0676 69.8344 42.6414 70.3734 42.7631C71.7296 43.0587 72.0947 42.7979 72.1034 41.5199H72.0947ZM96.0105 44.9104C95.5324 44.9365 94.8717 44.7365 95.2629 45.6233C95.2976 45.6928 95.0803 45.8667 94.9934 45.9971C94.7239 46.397 94.8717 47.2489 95.2455 47.275C95.8105 47.3098 96.3843 47.1185 96.9494 47.3011C97.045 47.3272 97.0972 47.2489 97.1493 47.1533C97.4797 46.5274 97.2537 45.9188 97.045 45.3451C96.8712 44.8756 96.4104 44.8669 96.0018 44.9191L96.0105 44.9104ZM75.3722 46.0927C75.3722 46.3274 75.3809 46.5622 75.3722 46.7969C75.3548 47.1185 75.3809 47.3359 75.8069 47.3185C76.2763 47.3011 76.0851 46.9881 76.1024 46.7621C76.1285 46.3709 75.9633 45.7711 76.5719 45.8058C77.163 45.8406 76.937 46.4578 76.9283 46.8317C76.9283 47.049 76.824 47.2663 77.1283 47.2837C77.4065 47.2924 77.7716 47.4315 77.9194 47.0229C78.3975 45.7363 77.4239 44.5279 76.0764 44.7713C75.5982 44.8582 75.1722 45.0234 75.3635 45.6667C75.3983 45.7971 75.3635 45.9449 75.3635 46.0927H75.3722ZM56.4117 40.3898C55.5598 40.3898 54.9077 40.9549 54.9251 41.6764C54.9338 42.172 55.7684 42.8761 56.3769 42.8935C57.142 42.9196 57.594 42.2937 57.6027 41.1722C57.6027 40.6071 57.2724 40.3898 56.4117 40.3898ZM54.7426 42.0155C54.2731 41.8416 53.9341 42.1198 53.5603 42.2067C53.0473 42.3371 52.6648 42.1459 52.3519 41.7199C52.0041 41.2591 52.2215 40.7636 52.4214 40.4159C52.5953 40.1116 52.9952 39.7899 53.5516 40.016C53.8906 40.1551 54.3514 40.1812 54.7773 39.9812C53.7602 39.164 52.5084 39.2162 51.8737 40.0681C51.2739 40.8679 51.4043 42.0329 52.1693 42.4501C52.9604 42.8761 54.2905 43.0065 54.7339 41.9981L54.7426 42.0155ZM81.6228 40.3637C80.8491 40.3985 80.4057 40.6158 80.1884 41.2505C79.9797 41.8677 80.2753 42.2589 80.6926 42.5806C81.162 42.937 81.6663 42.9718 82.1444 42.5545C82.5617 42.1807 82.5617 41.5808 82.8833 41.1548C82.9094 41.12 82.8486 40.9636 82.7877 40.9288C82.3791 40.6767 82.0227 40.2768 81.6141 40.3637H81.6228ZM102.244 41.4591C102.244 40.5115 101.496 40.0334 100.601 40.3985C100.505 40.442 100.444 40.4854 100.435 40.5897C100.418 40.9201 100.383 41.2591 100.905 41.007C101.114 40.9114 101.322 40.9896 101.47 41.1722C101.548 41.2765 101.548 41.3895 101.47 41.4939C101.279 41.7634 101.096 41.5113 100.905 41.4939C100.835 41.4939 100.775 41.4417 100.714 41.4156C100.296 41.2852 100.175 41.7112 99.9313 41.8764C99.7748 41.9894 99.7835 42.285 99.966 42.4415C100.592 42.9718 101.322 42.9891 102.052 42.737C102.644 42.5371 102.131 42.0676 102.235 41.7286C102.261 41.6417 102.235 41.5373 102.235 41.4504L102.244 41.4591ZM78.4497 41.7894C78.2063 41.5982 78.1715 41.3635 78.0759 41.1548C77.8498 40.668 77.6064 40.1985 77.3717 39.7204C77.25 39.477 76.9544 39.4335 76.7805 39.4509C76.5893 39.4683 76.6154 39.7813 76.711 39.9203C77.2674 40.7028 77.5803 41.6069 78.0063 42.4588C78.2063 42.85 78.7018 42.824 78.9191 42.4154C79.3364 41.6504 79.7015 40.8592 80.0927 40.0768C80.1971 39.8682 80.3275 39.5639 80.1101 39.4509C79.8493 39.3118 79.632 39.5987 79.5103 39.816C79.1452 40.4593 78.8061 41.1114 78.441 41.8068L78.4497 41.7894ZM86.2825 42.7631C86.9693 42.7631 87.4909 42.0676 87.4735 41.1809C87.4648 40.7288 86.8476 40.3637 86.126 40.3811C85.4045 40.3985 84.9089 40.8679 84.9002 41.546C84.9002 42.3458 85.3697 42.7631 86.2738 42.7544L86.2825 42.7631ZM95.5063 42.7892C95.7845 42.6675 96.1757 42.9891 96.393 42.6066C96.619 42.2067 96.3495 40.9462 96.0192 40.6158C95.6367 40.2246 95.1759 40.4159 94.7499 40.4333C94.5761 40.4333 94.3761 40.6506 94.4631 40.8506C94.6369 41.2591 94.4631 41.6069 94.35 41.9633C94.1588 42.5197 94.4022 42.7457 94.9238 42.7979C95.1151 42.8153 95.2976 42.7979 95.5063 42.7979V42.7892ZM111.667 41.5199C111.702 42.4154 112.12 42.824 112.963 42.7805C113.858 42.737 114.502 42.1893 114.493 41.4765C114.493 40.9462 113.65 40.3637 112.911 40.3985C112.128 40.4246 111.633 40.8679 111.659 41.5286L111.667 41.5199ZM117.336 41.4069C117.336 40.6854 117.023 40.4072 116.162 40.3898C115.223 40.3724 114.797 40.7028 114.797 41.4417C114.797 42.3111 115.188 42.7718 115.936 42.7718C116.936 42.7718 117.344 42.3806 117.344 41.4069H117.336ZM104.843 43.6933C105.33 43.7455 105.373 43.363 105.512 43.1195C105.921 42.4415 106.26 41.7286 106.686 41.0679C106.834 40.8332 106.999 40.6419 106.756 40.468C106.46 40.242 106.304 40.5637 106.138 40.7375C106.078 40.7984 106.069 40.9201 105.999 40.981C105.765 41.1896 105.747 41.6851 105.356 41.633C105.008 41.5895 105.173 41.1635 105.034 40.9375C105 40.8766 104.973 40.8071 104.921 40.7549C104.73 40.5376 104.487 40.2768 104.208 40.4941C103.956 40.6941 104.287 40.8853 104.348 41.0853C104.591 41.8677 105.278 42.5719 104.826 43.5021C104.8 43.5542 104.826 43.6412 104.834 43.702L104.843 43.6933ZM131.41 41.7286C131.41 41.5634 131.393 41.3982 131.41 41.2331C131.48 40.6158 131.184 40.355 130.584 40.3985C130.515 40.3985 130.437 40.4159 130.376 40.3985C129.802 40.1898 129.533 40.2246 129.846 40.9288C129.95 41.1635 129.906 41.4591 129.611 41.6677C129.133 42.0155 129.237 42.3719 129.706 42.7283C130.15 43.0674 130.558 42.6936 130.967 42.7805C131.315 42.8587 131.436 42.6936 131.41 42.3632C131.393 42.1546 131.41 41.9372 131.41 41.7286ZM60.4455 41.7634C60.4455 41.5547 60.4194 41.3374 60.4455 41.1287C60.5063 40.7201 60.2977 40.4246 59.9413 40.4246C59.3762 40.4333 58.7763 40.1638 58.2547 40.5897C58.2113 40.6245 58.1852 40.7201 58.1852 40.781C58.1852 41.3461 58.1678 41.9112 58.2026 42.4762C58.2113 42.6501 58.2721 42.937 58.5503 42.9109C58.8111 42.8935 58.8459 42.6327 58.8633 42.4328C58.8894 42.1024 58.8546 41.7721 58.8894 41.4417C58.9328 41.0766 59.1849 40.9462 59.5327 40.9375C59.9587 40.9288 59.8891 41.2157 59.8891 41.4678C59.8891 41.7981 59.8891 42.1285 59.863 42.4501C59.8456 42.7197 60.0804 42.7283 60.2195 42.7631C60.4542 42.824 60.4629 42.6414 60.4455 42.4588C60.4281 42.2241 60.4455 41.9894 60.4455 41.7547V41.7634ZM91.3421 41.5373C91.3421 41.746 91.3421 41.9112 91.3421 42.0763C91.3595 42.3545 91.2204 42.8153 91.6898 42.7457C92.1332 42.6762 91.6898 42.3458 91.7333 42.1285C91.8376 41.6851 91.6812 41.1374 92.4375 41.0766C93.2112 41.0157 93.2199 41.4591 93.1938 41.9894C93.1938 42.1024 93.1938 42.2241 93.1851 42.3371C93.1677 42.5806 93.2634 42.7631 93.5242 42.7805C93.7937 42.7979 93.898 42.5892 93.8806 42.3632C93.8632 42.0416 93.7676 41.7286 93.7589 41.4069C93.7415 40.9114 93.4285 40.5463 93.0547 40.442C92.5766 40.3202 91.9854 40.3029 91.5334 40.4854C91.1074 40.6506 91.4377 41.207 91.3508 41.5373H91.3421ZM118.283 39.477C117.231 40.1029 118.014 41.0592 117.796 41.8329C117.753 41.9894 117.709 42.2067 117.883 42.3545C118.075 42.5197 118.222 42.711 118.466 42.8414C118.805 43.0152 119.048 42.8153 119.205 42.6501C119.448 42.3893 119.109 42.2502 118.935 42.1372C118.614 41.9285 118.396 41.6504 118.466 41.2678C118.535 40.9201 118.866 40.9375 119.153 40.9375C119.3 40.9375 119.422 40.8419 119.439 40.6941C119.465 40.5289 119.283 40.5463 119.196 40.5028C118.718 40.3116 118.396 39.9899 118.283 39.477ZM83.5614 39.5813C83.3876 39.9551 83.0138 40.4072 83.1181 40.5897C83.4658 41.1896 83.3354 41.8068 83.3876 42.4154C83.431 42.8935 83.9092 42.7023 84.1439 42.8935C84.2656 42.9891 84.483 42.9196 84.5525 42.737C84.6742 42.4501 84.4308 42.2676 84.3091 42.0502C84.283 42.0068 84.2482 41.972 84.2135 41.9459C83.7005 41.5982 83.7353 41.2505 84.2656 40.9723C84.6047 40.7897 84.5786 40.5115 84.3525 40.3898C83.9961 40.1985 83.8831 39.8247 83.5614 39.5813ZM62.2798 40.5897C62.1581 40.3724 61.8191 40.2681 61.8799 39.9203C61.906 39.7726 61.9408 39.5726 61.6887 39.5465C61.4366 39.5205 61.48 39.7378 61.4279 39.8769C61.3409 40.0942 61.2279 40.2942 61.0453 40.4506C60.941 40.5376 60.8019 40.6767 60.9584 40.7897C61.2888 41.0418 61.141 41.3809 61.1757 41.6938C61.2192 42.198 61.2888 42.6762 61.8886 42.8674C62.0973 42.937 62.2364 42.9457 62.3841 42.7805C62.558 42.5806 62.3494 42.5023 62.2537 42.3893C61.9408 42.0068 61.7843 41.5721 61.9147 41.1027C61.9669 40.9201 62.1581 40.7723 62.2885 40.5984L62.2798 40.5897ZM128.046 41.7547C128.046 41.9459 128.055 42.1285 128.046 42.3197C128.02 42.6849 128.255 42.7544 128.533 42.7631C128.82 42.7718 129.011 42.624 128.959 42.3371C128.802 41.4504 128.654 40.5637 128.689 39.6509C128.689 39.4422 128.498 39.3553 128.359 39.3466C128.246 39.3466 128.168 39.5205 128.176 39.6769C128.255 40.3811 128.02 41.0592 128.037 41.7634L128.046 41.7547ZM91.0465 44.9452C91.0465 44.6235 91.0465 44.3714 91.0465 44.1106C91.0465 43.9715 91.0639 43.8237 90.864 43.7889C90.6814 43.7629 90.6379 43.8585 90.5945 44.0237C90.3337 44.9799 90.2206 45.9449 90.4206 46.9186C90.4554 47.0838 90.3858 47.4402 90.7596 47.3707C91.0726 47.3098 91.1943 47.1012 91.2117 46.7621C91.2465 46.1275 90.9509 45.5189 91.0552 44.9365L91.0465 44.9452ZM79.3799 46.3361C79.3364 45.6493 79.2147 44.9626 79.2321 44.2671C79.2321 44.1019 79.1886 43.815 78.9278 43.815C78.7713 43.815 78.6409 43.9628 78.6583 44.1628C78.7366 45.0495 78.554 45.9188 78.5192 46.7969C78.5105 47.0838 78.5888 47.3098 78.9278 47.3185C79.2669 47.3272 79.3799 47.1272 79.3712 46.823C79.3712 46.6578 79.3712 46.4926 79.3712 46.3274L79.3799 46.3361Z" fill="#F1F0F1"/>
<path d="M10.5449 43.2146C9.42344 42.4148 8.64972 41.3194 8.0151 40.1458C6.52851 37.4334 5.86781 34.5211 6.08515 31.4088C6.16339 30.3656 6.47635 29.3919 6.73716 28.4009C6.97188 27.5142 6.8154 26.6187 6.82409 25.732C6.82409 25.1843 6.29379 25.1061 5.89389 25.0887C4.78113 25.0365 3.72922 24.7844 2.72077 24.3063C1.78188 23.8629 1.02554 23.237 0.417002 22.3937C-0.0437526 21.7678 -0.0263657 21.081 0.0171017 20.3855C0.0431821 19.9161 0.503936 19.8291 0.860369 19.7683C1.59062 19.6292 2.33826 19.4814 3.0772 19.4727C3.68575 19.4727 4.21605 19.238 4.77243 19.1163C5.25057 19.0119 5.62439 18.6642 5.77218 18.1426C6.05907 17.1341 6.62414 16.2996 7.32831 15.5172C7.68475 15.126 7.64128 14.5174 7.69344 13.9871C7.76299 13.1786 7.76299 12.3527 7.98032 11.5616C8.11942 11.0661 8.44108 10.9357 8.84967 11.2661C9.67555 11.9268 10.2928 12.7613 10.6492 13.7524C10.7883 14.1262 10.9622 14.4826 11.1361 14.8217C11.5447 15.6215 12.3184 15.3433 12.9704 15.3259C13.5702 15.3172 13.8745 14.8999 14.1005 14.3696C15.0047 12.2919 16.187 10.4054 17.83 8.79711C20.2294 6.44987 23.02 4.86766 26.3236 4.18088C27.9232 3.84183 29.5488 3.58972 31.1224 3.13766C31.983 2.89424 32.7828 2.35525 33.4174 1.68585C34.0868 0.981678 34.8519 0.442683 35.756 0.103638C35.8864 0.0514767 36.0342 -0.105006 36.1907 0.0775572C36.3297 0.23404 36.1907 0.338361 36.1298 0.451376C35.982 0.729567 35.9646 1.10339 36.1037 1.29464C36.2602 1.51198 36.5819 1.27726 36.7992 1.15555C37.2947 0.877357 37.2078 1.24248 37.1904 1.50329C37.1817 1.78148 37.1382 2.05967 37.1122 2.33786C36.9557 4.05917 37.3643 5.57183 38.4249 7.01495C39.9028 9.04922 40.7286 11.4399 41.7892 13.7089C42.2065 14.613 43.0411 15.3259 43.1802 16.3517C43.4236 18.2034 43.2932 19.0554 41.4415 19.7248C39.7984 20.3247 38.3901 19.8378 37.4599 18.3773C37.173 17.9253 36.6949 17.7601 36.2776 17.5427C34.7475 16.7516 33.3131 15.8214 32.0091 14.7C31.6179 14.3609 31.1832 14.4131 30.7659 14.7C29.4445 15.6041 28.636 17.6992 29.0707 19.2554C29.2446 19.8813 29.2706 20.542 29.601 21.1245C29.5749 21.2114 29.5749 21.3331 29.5141 21.3853C27.9405 22.8805 27.6797 24.9409 27.1755 26.8882C26.8104 28.2879 26.454 29.7049 25.3847 30.7394C23.446 32.6172 21.0727 33.8343 18.6211 34.9297C17.0824 35.6165 15.6045 36.4076 14.3526 37.616C12.6835 39.233 11.4925 41.1194 10.5449 43.1972V43.2146Z" fill="#85A71F"/>
<path d="M10.5452 43.2153C11.4841 41.1375 12.6751 39.2423 14.3529 37.6341C15.6048 36.4257 17.0827 35.6346 18.6214 34.9478C21.073 33.8524 23.4463 32.644 25.385 30.7575C26.4543 29.7143 26.8107 28.306 27.1758 26.9063C27.68 24.9677 27.9408 22.9073 29.5144 21.4033C29.5752 21.3512 29.5752 21.2295 29.6013 21.1425C30.4272 20.8296 30.8271 20.1602 31.0183 19.3604C31.1313 18.8822 31.3313 18.4476 31.5225 18.0129C31.6269 17.7869 31.7312 17.6217 32.0355 17.6217C32.3571 17.6217 32.3571 17.8825 32.4093 18.039C32.5571 18.4476 32.6266 19.0648 33.0091 19.1257C33.4003 19.1778 33.496 18.5432 33.722 18.2041C33.8089 18.0737 33.9133 17.9433 34.0263 17.8216C34.2001 17.6391 34.4088 17.4304 34.6783 17.5347C34.9391 17.6391 34.8695 17.9346 34.8608 18.1694C34.8174 19.1691 35.1825 19.9168 36.1649 20.2732C37.1733 20.647 37.9731 21.2382 38.5643 22.1684C38.9989 22.8552 39.8074 22.9247 40.5377 22.9856C41.0332 23.029 41.0941 23.2551 41.1201 23.6636C41.2245 25.2719 40.5377 26.4629 39.225 27.3323C38.8598 27.5757 38.486 27.8017 38.1209 28.0365C37.295 28.5668 36.7734 30.0968 36.9994 31.2357C37.3211 32.8613 37.2255 34.487 36.9647 36.1127C36.8169 37.0255 36.5995 37.9296 36.3561 38.7903C36.0779 39.7553 35.4172 40.6246 34.8435 41.5027C33.3308 43.789 31.0879 45.0148 28.6624 46.0928C25.8109 47.3534 22.8204 47.4838 19.8298 47.2664C17.926 47.1273 15.9612 46.8317 14.2573 45.8668C12.9446 45.1191 11.5623 44.4324 10.5713 43.224L10.5452 43.2153Z" fill="#102D46"/>
<path d="M120.013 37.4253C116.197 37.4253 112.381 37.4166 108.573 37.434C108.086 37.434 107.929 37.3297 107.947 36.8168C107.982 35.3302 107.79 33.7915 108.616 32.4701C109.329 31.3138 110.198 30.2532 111.181 29.2796C111.902 28.558 112.546 27.7408 113.146 26.9149C113.511 26.4107 113.971 26.0195 114.354 25.5501C115.475 24.1765 116.71 22.8899 117.788 21.5076C118.735 20.2992 119.9 19.256 120.7 17.9259C120.944 17.5173 121.378 17.2217 121.639 16.7957C121.717 16.6653 121.952 16.5958 121.865 16.4045C121.778 16.2133 121.57 16.3263 121.422 16.3263C117.797 16.3263 114.171 16.3263 110.546 16.3263C109.242 16.3263 107.938 16.3176 106.634 16.3263C106.165 16.3263 106.017 16.3263 106.304 15.7699C107.104 14.2138 107.816 12.6055 108.495 10.9885C108.651 10.6234 108.825 10.519 109.147 10.519C109.999 10.519 110.85 10.519 111.702 10.519C118.292 10.519 124.873 10.519 131.463 10.519C132.019 10.519 132.132 10.6321 132.054 11.258C131.976 11.8926 132.054 12.5707 132.019 13.2401C131.958 14.5354 131.463 15.6047 130.68 16.5871C128.681 19.1082 126.525 21.5076 124.491 24.0026C122.891 25.9673 121.265 27.9147 119.631 29.8446C119.222 30.3228 118.848 30.827 118.388 31.253C118.083 31.5399 118.327 31.6094 118.553 31.6181C118.953 31.6442 119.361 31.6181 119.761 31.6181C122.891 31.6181 126.021 31.6181 129.142 31.6355C129.985 31.6355 130.828 31.7311 131.671 31.7659C131.915 31.7746 131.95 31.8789 132.002 32.0962C132.289 33.3742 132.08 34.6695 132.123 35.9561C132.167 37.434 132.141 37.434 130.68 37.434C127.125 37.434 123.569 37.434 120.013 37.434V37.4253Z" fill="#102D46"/>
<path d="M70.591 10.7626C70.8692 10.4931 71.1822 10.5278 71.4864 10.5278C74.164 10.5191 76.8416 10.4844 79.5192 10.5018C81.7882 10.5191 83.4487 11.4667 84.3702 13.6314C84.7961 14.6399 85.1787 15.7005 85.7177 16.622C86.6913 18.2911 87.5694 20.0037 88.3605 21.7424C89.195 23.5941 90.2556 25.3328 90.9859 27.228C91.0641 27.4453 91.1858 27.7235 91.4119 27.7322C91.6205 27.7322 91.6727 27.4279 91.7335 27.2367C91.9509 26.5238 92.3595 25.8979 92.6811 25.2372C93.4896 23.5767 94.246 21.8902 95.1327 20.2732C96.4106 17.9434 97.3582 15.4657 98.6709 13.1533C99.5664 11.5711 100.853 10.6582 102.661 10.5452C103.913 10.467 105.174 10.5018 106.426 10.5105C107.156 10.5105 107.382 10.8669 107.086 11.5015C106.391 13.0055 105.626 14.4921 104.922 15.996C103.644 18.7171 102.148 21.3338 100.957 24.0983C100.497 25.1763 99.8098 26.1587 99.4099 27.2715C98.9491 28.5407 98.3058 29.723 97.5929 30.8706C96.9235 31.9486 96.628 33.2004 96.0107 34.3132C95.4978 35.2521 94.8545 36.1388 94.5589 37.1994C94.4981 37.4254 94.2373 37.4341 94.0112 37.4341C92.2551 37.4341 90.4991 37.4254 88.7517 37.4341C88.43 37.4341 88.2735 37.295 88.1953 37.0429C88.0214 36.4865 87.6389 36.0606 87.3607 35.565C87.1434 35.1738 87.0043 34.6957 86.8217 34.261C85.9785 32.2789 84.857 30.4359 83.9963 28.4712C82.7793 25.6893 81.3014 23.0377 80.0408 20.2819C79.3888 18.8562 78.6499 17.4478 77.7892 16.1438C77.0676 15.0484 76.0505 14.1617 74.9725 13.3706C73.6076 12.3709 72.1211 11.5711 70.591 10.7626Z" fill="#102D46"/>
<path d="M64.0883 10.267C65.9313 10.1192 67.7135 10.6495 69.4608 11.2755C71.9298 12.1622 74.1553 13.4662 76.0766 15.2745C76.3895 15.5701 76.3113 15.7526 76.1027 16.0047C74.4683 17.8825 72.4079 18.9083 69.9303 18.3954C69.0783 18.2216 68.1742 17.7956 67.3396 17.3696C64.1752 15.7526 60.6804 16.622 58.0637 18.7171C57.2552 19.3604 56.5945 20.2037 56.1164 21.1426C54.8558 23.5941 55.2557 25.8718 56.8901 27.993C58.0637 29.5231 59.5677 30.6011 61.4455 31.1314C63.2798 31.6443 65.0967 31.6182 66.8876 30.914C67.5309 30.6619 68.1394 30.3403 68.7654 30.0534C70.8257 29.0971 72.747 29.2797 74.5552 30.6967C75.0334 31.0792 75.4333 31.5573 75.9201 31.9051C76.3809 32.2267 76.2244 32.3919 75.9549 32.7136C75.2768 33.5395 74.364 34.0698 73.5207 34.6696C71.5212 36.078 69.2696 36.8951 66.8876 37.4515C64.5664 37.9905 62.3148 37.7906 60.0023 37.3298C57.1596 36.7647 54.8297 35.3042 52.752 33.4612C50.5786 31.5313 49.2572 29.0449 48.6661 26.1761C48.1618 23.7506 48.4661 21.4468 49.3789 19.1518C50.3004 16.8567 51.7957 15.0311 53.717 13.5706C54.9601 12.6317 56.3076 11.7536 57.8203 11.2755C58.82 10.9625 59.8024 10.5539 60.9065 10.5278C61.9497 10.5018 62.9842 10.1627 64.1144 10.267H64.0883Z" fill="#102D46"/>
<path d="M84.1181 47.3272C83.3965 47.3272 83.0401 46.936 82.901 46.2492C82.8575 46.0493 82.8749 45.6928 82.6576 45.6668C82.3098 45.6233 82.3707 46.0319 82.2664 46.2405C82.1273 46.5013 82.0925 46.8056 81.8665 47.0403C81.6057 47.3098 81.2579 47.4663 80.9884 47.2664C80.745 47.0838 80.2234 47.1012 80.3364 46.484C80.3886 46.2058 80.0669 45.8406 80.0408 45.4581C80.0321 45.2756 79.7974 45.0408 80.0756 44.9365C80.3799 44.8235 80.6668 44.9974 80.8667 45.2408C80.9189 45.3016 80.9102 45.4234 80.9449 45.5103C80.9884 45.6494 80.8667 45.858 81.1362 45.8928C81.3883 45.9189 81.4144 45.7189 81.5274 45.5798C81.7013 45.3799 81.7534 45.0582 82.0664 44.9713C82.1794 44.9452 82.3533 44.8757 82.3968 44.9278C83.014 45.5364 83.6138 44.9104 84.2224 44.9278C85.1091 44.9452 85.5003 45.2495 85.4916 45.9537C85.4742 46.7621 84.9179 47.3272 84.1268 47.3272H84.1181Z" fill="#102D46"/>
<path d="M73.7989 44.9278C73.825 44.6583 73.5381 43.9889 74.2423 43.9889C74.9117 43.9889 74.7986 44.6496 74.816 45.1278C74.8334 45.5711 74.816 46.0058 74.6769 46.4405C74.4596 47.0838 73.9293 47.3794 72.9469 47.3272C72.3297 47.2924 71.8429 46.8404 71.6951 46.284C71.5473 45.7276 71.5473 45.1799 71.556 44.6235C71.556 44.2584 71.7733 43.9628 72.1298 43.9802C72.4601 43.9976 72.7122 44.2236 72.6774 44.6496C72.6427 44.9974 72.6948 45.3538 72.6774 45.7102C72.6514 46.1362 72.7731 46.3622 73.2599 46.3622C73.7467 46.3622 73.7989 46.084 73.8076 45.7276C73.8076 45.519 73.8076 45.3016 73.8076 44.9365L73.7989 44.9278Z" fill="#102D46"/>
<path d="M125.099 42.598C124.821 42.685 124.534 42.6415 124.238 42.8328C123.682 43.1892 123.213 42.7371 122.795 42.4329C122.395 42.146 122.378 41.6417 122.5 41.2158C122.613 40.7985 122.926 40.4942 123.43 40.5377C124.464 40.6246 125.499 40.5029 126.534 40.3986C127.186 40.3377 127.446 40.7202 127.551 41.2245C127.629 41.607 127.594 42.0156 127.612 42.4155C127.612 42.6154 127.516 42.7371 127.325 42.7458C127.125 42.7458 126.942 42.685 126.925 42.4502C126.907 42.1894 126.907 41.9373 126.907 41.6765C126.907 41.294 126.838 40.955 126.36 40.955C125.934 40.955 125.716 41.1897 125.716 41.6157C125.716 41.8504 125.708 42.0851 125.699 42.3198C125.403 42.1373 125.351 41.8156 125.247 41.5287C125.177 41.3549 125.282 41.0767 124.934 41.0854C124.56 41.0941 124.204 41.0419 123.839 40.9897C123.595 40.955 123.143 41.0071 123.056 41.3896C122.978 41.72 123.221 41.9199 123.491 42.1025C123.778 42.3025 124.082 42.2764 124.36 42.2155C124.586 42.1634 124.804 42.0764 125.038 42.1547C125.021 42.3025 124.995 42.4589 125.108 42.5893L125.099 42.598Z" fill="#102D46"/>
<path d="M94.4633 45.7277C94.4633 45.7277 94.4633 45.7711 94.4633 45.7972C94.4633 47.2751 94.046 47.6055 92.5507 47.3012C91.9161 47.1708 91.6466 46.6927 91.7596 45.719C91.8205 45.1713 92.2291 44.9192 92.7681 44.9192C93.2027 44.9192 93.6548 44.9887 93.5853 44.3106C93.5505 44.0064 93.8026 44.0846 93.9765 44.0672C94.2633 44.0411 94.4372 44.1715 94.4459 44.4584C94.4546 44.8757 94.4459 45.3017 94.4459 45.719C94.4459 45.719 94.4459 45.719 94.4546 45.719L94.4633 45.7277ZM92.6029 45.9363C92.655 46.3797 92.8637 46.5362 93.2636 46.4666C93.4635 46.4319 93.4722 46.2667 93.4375 46.1537C93.2723 45.6842 92.9159 45.9972 92.6116 45.9363H92.6029Z" fill="#102D46"/>
<path d="M104.096 47.3099C102.722 47.3186 101.887 46.2493 102.305 45.0322C102.487 44.4932 102.948 44.1455 103.548 44.0759C104.035 44.0151 104.513 44.1541 105 44.2063C105.339 44.2411 105.504 44.5019 105.478 44.7018C105.443 44.9453 105.139 45.1365 104.869 45.0409C104.522 44.9105 104.2 45.0235 103.87 45.0235C103.339 45.0235 103.296 45.3452 103.27 45.6842C103.226 46.1102 103.461 46.4058 103.878 46.4666C104.226 46.5188 104.6 46.5275 104.93 46.4318C105.174 46.3623 105.313 46.3884 105.374 46.5883C105.443 46.8144 105.434 47.0491 105.13 47.1708C104.774 47.3099 104.409 47.336 104.104 47.3186L104.096 47.3099Z" fill="#102D46"/>
<path d="M86.0393 45.4147C86.1002 45.0757 86.2653 44.9279 86.6565 44.9018C87.465 44.8496 88.2648 45.1278 89.082 44.9366C89.3776 44.867 89.708 44.9366 89.4906 45.4321C89.3254 45.8059 89.6384 46.1797 89.6297 46.5883C89.6123 47.2229 89.2298 47.3012 88.7517 47.3186C88.2909 47.336 88.0214 47.1969 88.0214 46.6492C88.0214 46.284 88.3431 45.632 87.5694 45.6407C86.926 45.6494 86.9087 46.1797 86.9173 46.6752C86.9173 46.9882 86.9434 47.336 86.4827 47.3186C86.0306 47.3012 86.1697 46.9447 86.1523 46.6839C86.1349 46.3536 86.1349 46.0232 86.1262 45.7016C86.1958 45.5886 86.2132 45.4756 86.048 45.4234L86.0393 45.4147Z" fill="#102D46"/>
<path d="M107.164 44.9104C107.295 45.3886 107.651 45.3538 107.982 45.3277C108.277 45.3103 108.425 45.3973 108.39 45.7189C108.364 45.9884 108.364 46.2492 107.973 46.2145C107.712 46.1884 107.451 46.2145 107.164 46.2145C107.243 46.7448 107.53 46.8143 107.921 46.6578C108.138 46.5709 108.347 46.51 108.495 46.71C108.581 46.823 108.729 46.9708 108.608 47.1534C108.468 47.3707 108.234 47.3185 108.025 47.3272C106.837 47.3736 106.243 46.8201 106.243 45.6668C106.243 44.0933 106.243 44.0759 107.86 44.0933C108.086 44.0933 108.512 43.8238 108.521 44.4062C108.529 44.9713 108.164 44.9104 107.808 44.9104C107.599 44.9104 107.39 44.9104 107.164 44.9104Z" fill="#102D46"/>
<path d="M100.288 45.6755C100.288 46.7767 99.8156 47.3244 98.8709 47.3186C98.1319 47.3186 97.6712 46.8926 97.5669 46.1102C97.4886 45.5799 97.8537 45.0409 98.5405 44.954C99.0534 44.8844 99.3838 44.7106 99.5403 44.2411C99.6359 43.9629 99.8533 44.0846 100.018 44.0759C100.297 44.0585 100.288 44.2846 100.288 44.4671C100.288 44.867 100.288 45.2669 100.288 45.6668V45.6755ZM98.9752 45.8146C98.7753 45.8755 98.5666 45.919 98.584 46.2058C98.6014 46.4145 98.7144 46.6405 98.897 46.5449C99.0621 46.4666 99.4186 46.5449 99.3925 46.1798C99.3751 45.9189 99.2186 45.8233 98.9752 45.8059V45.8146Z" fill="#102D46"/>
<path d="M62.8712 42.2329C62.793 41.7461 63.2885 41.2419 62.8017 40.7637C62.7321 40.7029 62.8886 40.5464 63.0016 40.5551C63.6449 40.5899 64.3404 40.2682 64.9316 40.7029C65.2184 40.9115 65.2271 40.6247 65.3575 40.5638C65.8705 40.3291 66.4094 40.2595 66.8963 40.5638C67.2614 40.7898 67.5744 41.0767 67.5657 41.6244C67.557 42.3633 67.0267 42.5807 66.5138 42.7372C65.9922 42.8936 65.4184 42.885 65.0793 42.3199C64.9402 42.0852 64.8272 41.8157 64.7577 41.5462C64.7142 41.3549 65.1402 41.0419 64.6447 40.9637C64.2274 40.9028 63.8014 40.8942 63.5493 41.3897C63.4015 41.6853 63.4537 41.9808 63.4189 42.2764C63.3928 42.4764 63.558 42.798 63.1581 42.798C62.706 42.798 62.8973 42.459 62.8712 42.2329ZM66.2095 42.2156C66.3921 42.1286 66.8702 42.1808 66.8702 41.5983C66.8702 41.0854 66.479 40.9463 66.1226 40.9637C65.7835 40.9811 65.3575 41.0767 65.3923 41.6157C65.4184 42.0504 65.5836 42.2851 66.2095 42.2156Z" fill="#102D46"/>
<path d="M110.259 44.0846C110.503 44.1107 110.746 44.102 111.007 44.1802C111.502 44.328 111.45 44.5888 111.198 44.8236C110.911 45.1104 111.033 45.2321 111.242 45.4669C111.65 45.9363 111.659 46.7013 111.303 47.0143C110.894 47.3794 109.694 47.4142 109.347 47.0752C109.233 46.9621 109.034 46.8752 109.12 46.684C109.19 46.5275 109.347 46.4753 109.529 46.4666C109.842 46.4579 110.364 46.597 110.425 46.3449C110.529 45.9015 109.938 46.1015 109.703 45.8929C109.294 45.5277 109.138 45.1017 109.26 44.5801C109.39 44.0238 109.816 44.0324 110.259 44.0846Z" fill="#102D46"/>
<path d="M111.476 39.4249C111.389 40.1378 110.903 40.5029 110.572 40.9724C110.529 41.0245 110.459 41.0593 110.416 41.1115C110.19 41.3723 109.894 41.6852 109.981 41.9895C110.033 42.146 110.538 42.1721 110.833 42.2503C111.05 42.3112 111.45 42.0938 111.442 42.485C111.442 42.8328 111.059 42.911 110.746 42.9197C110.225 42.9371 109.712 42.9371 109.19 42.9371C108.616 42.9371 108.503 42.7371 108.764 42.2068C109.016 41.7026 109.407 41.294 109.799 40.9115C110.033 40.6768 110.12 40.4334 110.172 40.1378C109.764 40.0161 109.338 40.2595 108.981 39.9813C108.851 39.8857 108.642 39.8422 108.703 39.6336C108.755 39.4597 108.929 39.4336 109.103 39.4336C109.877 39.4336 110.659 39.4336 111.468 39.4336L111.476 39.4249Z" fill="#102D46"/>
<path d="M72.095 41.5374C72.095 42.8153 71.7212 43.0761 70.365 42.7805C69.8347 42.6675 69.3913 42.0851 69.4261 41.4939C69.4695 40.8593 69.8086 40.4768 70.4693 40.4159C70.8866 40.3724 71.356 40.3811 71.2778 39.7378C71.2604 39.5466 71.4169 39.4422 71.5908 39.4249C71.8516 39.3988 71.7733 39.6335 71.8342 39.7639C72.0863 40.3377 72.1037 40.9375 72.0863 41.5374H72.095ZM70.6606 42.2502C70.8605 42.0851 71.3299 42.1459 71.2865 41.6243C71.2604 41.2157 71.0691 40.9114 70.6345 40.9636C70.3389 40.9984 69.9303 41.0679 69.9738 41.5374C70.0085 41.8938 70.1129 42.2415 70.6606 42.2502Z" fill="#102D46"/>
<path d="M96.0107 44.9279C96.4193 44.8757 96.8801 44.8844 97.054 45.3539C97.2626 45.9276 97.4886 46.5362 97.1583 47.1621C97.1061 47.2577 97.054 47.336 96.9583 47.3099C96.3846 47.136 95.8195 47.3273 95.2544 47.2838C94.8719 47.2577 94.7241 46.4058 95.0023 46.0059C95.0892 45.8755 95.3066 45.7016 95.2718 45.6321C94.8806 44.7453 95.5413 44.9453 96.0194 44.9192L96.0107 44.9279Z" fill="#102D46"/>
<path d="M75.3637 46.1101C75.3637 45.971 75.3985 45.8146 75.3637 45.6842C75.1812 45.0408 75.5985 44.8757 76.0766 44.7887C77.4241 44.5453 78.3978 45.745 77.9196 47.0403C77.7718 47.4489 77.4067 47.3098 77.1285 47.3011C76.8242 47.2925 76.9199 47.0751 76.9286 46.8491C76.9286 46.4753 77.1633 45.858 76.5721 45.8233C75.9636 45.7798 76.1375 46.3883 76.1027 46.7795C76.0853 46.9969 76.2766 47.3098 75.8071 47.3359C75.3811 47.3533 75.355 47.136 75.3724 46.8143C75.3898 46.5796 75.3724 46.3449 75.3724 46.1101H75.3637Z" fill="#102D46"/>
<path d="M56.4119 40.4072C57.2639 40.4072 57.6116 40.6333 57.6029 41.1896C57.5943 42.3111 57.1422 42.937 56.3772 42.9109C55.7686 42.8936 54.9341 42.1894 54.9254 41.6939C54.908 40.9636 55.56 40.4072 56.4119 40.4072ZM56.5163 41.9721C56.4467 42.172 56.438 42.4067 56.6988 42.4589C56.9249 42.511 56.9683 42.2502 57.0466 42.0851C57.3248 41.5287 56.864 41.2853 56.5423 41.0071C56.4206 40.9028 56.2294 40.8593 56.1077 41.0332C56.0033 41.1896 56.0468 41.3548 56.212 41.4504C56.4119 41.5635 56.6901 41.6156 56.5076 41.9634L56.5163 41.9721Z" fill="#102D46"/>
<path d="M54.7428 42.0242C54.2907 43.024 52.9606 42.9023 52.1782 42.4763C51.4132 42.059 51.2828 40.8941 51.8827 40.0943C52.5173 39.2423 53.7691 39.1815 54.7863 40.0074C54.3603 40.2073 53.8995 40.1725 53.5605 40.0421C53.0041 39.8161 52.6042 40.1378 52.4303 40.442C52.2304 40.7811 52.0131 41.2766 52.3608 41.746C52.6738 42.172 53.0563 42.3633 53.5692 42.2329C53.943 42.1373 54.2821 41.8678 54.7515 42.0416L54.7428 42.0242Z" fill="#102D46"/>
<path d="M81.623 40.3812C82.0229 40.2855 82.3793 40.6941 82.7966 40.9462C82.8575 40.981 82.9183 41.1375 82.8923 41.1723C82.5706 41.5983 82.5706 42.1981 82.1533 42.5719C81.6839 42.9892 81.171 42.9544 80.7015 42.598C80.2755 42.2763 79.9886 41.8851 80.1973 41.2679C80.4146 40.6333 80.858 40.4159 81.6317 40.3812H81.623ZM81.7013 42.5458C81.849 42.2068 81.9447 41.9982 82.0229 41.7808C82.1968 41.3201 81.8838 41.1375 81.5361 40.9984C81.3535 40.9289 81.1188 41.1201 81.2405 41.1984C81.7447 41.5113 81.3796 42.059 81.6926 42.5371L81.7013 42.5458Z" fill="#102D46"/>
<path d="M102.235 41.4766C102.235 41.5722 102.253 41.6678 102.235 41.7548C102.14 42.0851 102.653 42.5546 102.053 42.7632C101.322 43.0153 100.592 42.9979 99.9662 42.4676C99.775 42.3112 99.775 42.0069 99.9315 41.9026C100.175 41.7287 100.297 41.3114 100.714 41.4418C100.783 41.4592 100.844 41.5114 100.905 41.52C101.096 41.5374 101.279 41.7895 101.47 41.52C101.548 41.4157 101.548 41.294 101.47 41.1984C101.322 41.0158 101.114 40.9376 100.905 41.0332C100.384 41.2853 100.418 40.9463 100.436 40.6159C100.436 40.5116 100.497 40.4594 100.601 40.4247C101.496 40.0595 102.244 40.5377 102.244 41.4853L102.235 41.4766Z" fill="#102D46"/>
<path d="M78.4412 41.807C78.815 41.1115 79.1454 40.4595 79.5105 39.8162C79.6322 39.5988 79.8495 39.3119 80.1103 39.451C80.3277 39.564 80.1973 39.8683 80.0929 40.077C79.7017 40.8594 79.3366 41.6505 78.9193 42.4155C78.6933 42.8328 78.2065 42.8589 78.0065 42.459C77.5718 41.6157 77.2676 40.7116 76.7112 39.9205C76.6156 39.7901 76.5895 39.4771 76.7807 39.451C76.9546 39.4336 77.2502 39.4771 77.3719 39.7205C77.6066 40.1987 77.85 40.6768 78.0761 41.155C78.1717 41.3636 78.2065 41.5983 78.4499 41.7896L78.4412 41.807Z" fill="#102D46"/>
<path d="M86.2827 42.7805C85.3786 42.7805 84.9005 42.3719 84.9092 41.5721C84.9092 40.894 85.4047 40.4246 86.135 40.4072C86.8478 40.3898 87.4651 40.755 87.4824 41.207C87.5085 42.0851 86.9782 42.7805 86.2914 42.7892L86.2827 42.7805ZM86.2654 40.8506C86.2132 40.868 86.1436 40.8854 86.0915 40.9201C85.8742 41.0592 85.8394 42.2068 86.0393 42.3806C86.1089 42.4415 86.2654 42.485 86.274 42.398C86.3088 41.9547 86.6044 41.5982 86.6913 41.1896C86.7174 41.0505 86.5001 40.8854 86.274 40.8506H86.2654Z" fill="#102D46"/>
<path d="M95.4978 42.7979C95.2892 42.7979 95.1066 42.8153 94.9153 42.7979C94.3937 42.7545 94.1503 42.5197 94.3416 41.9634C94.4633 41.6069 94.6371 41.2592 94.4546 40.8506C94.3676 40.6507 94.5676 40.442 94.7415 40.4333C95.1674 40.4159 95.6369 40.2334 96.0107 40.6159C96.3411 40.9549 96.6106 42.2155 96.3845 42.6067C96.1672 42.9805 95.776 42.6675 95.4978 42.7892V42.7979ZM95.0283 41.7808C95.0979 41.9808 94.8806 42.4241 95.2718 42.398C95.5413 42.3807 95.4891 41.9025 95.5413 41.6243C95.576 41.4591 95.6021 41.2331 95.2978 41.2418C94.9066 41.2505 95.0544 41.5461 95.0197 41.7895L95.0283 41.7808Z" fill="#102D46"/>
<path d="M111.659 41.5287C111.633 40.868 112.128 40.4246 112.911 40.3986C113.65 40.3725 114.484 40.9462 114.493 41.4766C114.493 42.1894 113.858 42.7371 112.963 42.7806C112.12 42.824 111.702 42.4241 111.668 41.52L111.659 41.5287ZM113.041 42.2329C113.398 42.2764 113.702 42.2677 113.658 41.72C113.624 41.2766 113.537 40.9202 112.998 40.9636C112.598 40.9984 112.181 41.0593 112.207 41.6243C112.233 42.1546 112.563 42.2764 113.041 42.2329Z" fill="#102D46"/>
<path d="M117.336 41.4157C117.336 42.3981 116.927 42.7893 115.927 42.7806C115.18 42.7806 114.789 42.3199 114.789 41.4505C114.789 40.7116 115.223 40.3812 116.154 40.3986C117.014 40.416 117.336 40.6942 117.327 41.4157H117.336ZM115.988 42.2329C116.484 42.2416 116.736 42.0764 116.779 41.6505C116.832 41.1375 116.432 40.9637 116.093 40.9637C115.78 40.9637 115.223 40.9724 115.232 41.4505C115.241 41.8678 115.615 42.1634 115.988 42.2416V42.2329Z" fill="#102D46"/>
<path d="M104.843 43.7021C104.843 43.6412 104.809 43.563 104.835 43.5021C105.295 42.5806 104.6 41.8765 104.356 41.0854C104.296 40.8854 103.965 40.6941 104.217 40.4942C104.496 40.2769 104.739 40.5377 104.93 40.755C104.974 40.8072 105 40.8767 105.043 40.9376C105.182 41.1636 105.017 41.5983 105.365 41.633C105.756 41.6765 105.782 41.1897 106.008 40.981C106.069 40.9202 106.086 40.8072 106.147 40.7376C106.313 40.5637 106.478 40.2421 106.765 40.4681C106.999 40.6507 106.843 40.8419 106.695 41.068C106.269 41.7287 105.93 42.4415 105.521 43.1196C105.374 43.363 105.339 43.7456 104.852 43.6934L104.843 43.7021Z" fill="#102D46"/>
<path d="M131.402 41.7374C131.402 41.946 131.384 42.1633 131.402 42.372C131.428 42.7023 131.306 42.8675 130.959 42.7893C130.541 42.7023 130.141 43.0762 129.698 42.7371C129.229 42.3807 129.133 42.0242 129.602 41.6765C129.898 41.4592 129.933 41.1636 129.837 40.9376C129.524 40.2334 129.794 40.1986 130.367 40.4073C130.428 40.4333 130.506 40.416 130.576 40.4073C131.176 40.3638 131.463 40.6246 131.402 41.2418C131.384 41.407 131.402 41.5722 131.402 41.7374ZM130.698 41.9286C130.698 41.7547 130.706 41.6417 130.698 41.52C130.68 41.3201 130.68 41.0593 130.376 41.0854C130.046 41.1201 130.046 41.3462 130.141 41.607C130.185 41.72 130.228 41.8243 130.254 41.9373C130.307 42.146 130.254 42.4937 130.576 42.4328C130.819 42.3894 130.654 42.0677 130.698 41.9286Z" fill="#102D46"/>
<path d="M74.8074 41.9807C74.6248 42.5632 73.9989 43.0239 73.5294 42.9109C72.6862 42.7023 72.3384 42.0329 72.5558 41.0244C72.634 40.6854 73.399 40.3203 73.8945 40.3985C74.7639 40.5289 75.0942 40.8854 75.0334 41.6243C74.7987 41.433 74.5726 41.2418 74.3205 41.0592C74.0858 40.894 73.825 40.7202 73.5555 40.9462C73.2686 41.1809 73.4164 41.4852 73.486 41.7808C73.599 42.2155 73.8772 41.9547 74.0945 41.9633C74.3292 41.9633 74.5639 41.9807 74.7987 41.9894L74.8074 41.9807Z" fill="#102D46"/>
<path d="M60.437 41.7634C60.437 41.9981 60.4283 42.2328 60.437 42.4676C60.4457 42.6501 60.437 42.8327 60.211 42.7718C60.0719 42.7371 59.8372 42.7284 59.8546 42.4589C59.8807 42.1285 59.8807 41.7982 59.8807 41.4765C59.8807 41.2244 59.9502 40.9375 59.5242 40.9462C59.1678 40.9549 58.9157 41.0853 58.8809 41.4504C58.8461 41.7808 58.8809 42.1111 58.8548 42.4415C58.8374 42.6414 58.8027 42.9022 58.5419 42.9196C58.2637 42.9457 58.2028 42.6588 58.1941 42.4849C58.1594 41.9199 58.1767 41.3548 58.1767 40.7897C58.1767 40.7202 58.2028 40.6332 58.2463 40.5985C58.7679 40.1812 59.3764 40.442 59.9328 40.4333C60.2893 40.4333 60.4979 40.7289 60.437 41.1375C60.411 41.3461 60.437 41.5634 60.437 41.7721V41.7634Z" fill="#102D46"/>
<path d="M121.961 42.0069C121.5 42.8762 121.213 43.024 120.457 42.7719C119.483 42.4589 119.257 41.9286 119.631 40.8941C119.779 40.4855 120.778 40.2508 121.37 40.4855C122.135 40.7985 122.274 41.0419 121.987 41.607C121.752 41.4157 121.517 41.2158 121.274 41.0419C120.778 40.6941 120.552 40.7898 120.492 41.3722C120.474 41.5374 120.474 41.7026 120.492 41.8591C120.509 42.0938 120.526 42.3459 120.787 42.4502C121.048 42.5546 121.257 42.3981 121.378 42.1894C121.535 41.9373 121.717 41.8938 121.969 41.9895L121.961 42.0069Z" fill="#102D46"/>
<path d="M91.3336 41.5461C91.4205 41.2157 91.0902 40.6593 91.5162 40.4942C91.9682 40.3203 92.5594 40.329 93.0375 40.4507C93.4114 40.5463 93.7243 40.9201 93.7417 41.4157C93.7504 41.7373 93.8373 42.0503 93.8634 42.372C93.8808 42.598 93.7765 42.8066 93.507 42.7892C93.2462 42.7719 93.1592 42.5893 93.1679 42.3459C93.1679 42.2329 93.1679 42.1112 93.1766 41.9981C93.2027 41.4678 93.194 41.0158 92.4203 41.0853C91.664 41.1462 91.8204 41.7026 91.7161 42.1372C91.664 42.3546 92.116 42.6936 91.6727 42.7545C91.2119 42.824 91.3423 42.372 91.3249 42.0851C91.3249 41.9199 91.3249 41.7547 91.3249 41.5461H91.3336Z" fill="#102D46"/>
<path d="M118.283 39.4857C118.396 39.9986 118.727 40.3203 119.196 40.5115C119.292 40.5463 119.466 40.5289 119.44 40.7028C119.422 40.8506 119.301 40.9462 119.153 40.9462C118.866 40.9462 118.527 40.9288 118.466 41.2766C118.396 41.6504 118.614 41.9286 118.935 42.1459C119.109 42.2589 119.44 42.398 119.205 42.6588C119.048 42.824 118.796 43.024 118.466 42.8501C118.231 42.7284 118.075 42.5284 117.884 42.3633C117.71 42.2155 117.753 41.9981 117.797 41.8417C118.014 41.0679 117.24 40.1116 118.283 39.4857Z" fill="#102D46"/>
<path d="M83.553 39.5901C83.8833 39.8248 83.9963 40.2073 84.3441 40.3986C84.5701 40.5203 84.5875 40.8072 84.2571 40.981C83.7268 41.2592 83.6921 41.607 84.205 41.9547C84.2397 41.9808 84.2832 42.0156 84.3006 42.059C84.4223 42.2764 84.6657 42.4589 84.544 42.7458C84.4745 42.9284 84.2571 42.9979 84.1354 42.9023C83.892 42.7197 83.4226 42.9023 83.3791 42.4242C83.3269 41.8156 83.4573 41.2071 83.1096 40.5985C83.0053 40.416 83.3791 39.9639 83.553 39.5901Z" fill="#102D46"/>
<path d="M62.2714 40.5985C62.1323 40.7724 61.941 40.9201 61.8975 41.1027C61.7758 41.5809 61.9236 42.0155 62.2366 42.3893C62.3322 42.5024 62.5409 42.5806 62.367 42.7806C62.2279 42.9457 62.0801 42.937 61.8715 42.8675C61.2716 42.6762 61.2021 42.2068 61.1586 41.6939C61.1325 41.3809 61.2803 41.0419 60.9413 40.7897C60.7848 40.668 60.9239 40.5376 61.0282 40.4507C61.2108 40.2942 61.3238 40.103 61.4107 39.8769C61.4629 39.7378 61.4194 39.5205 61.6715 39.5466C61.9236 39.5727 61.8888 39.7726 61.8628 39.9204C61.8019 40.2768 62.141 40.3725 62.2627 40.5898L62.2714 40.5985Z" fill="#102D46"/>
<path d="M98.7405 40.529C98.81 40.3203 98.9752 40.1378 98.81 39.877C98.6796 39.677 98.7144 39.4684 99.0361 39.4336C99.3056 39.4075 99.5142 39.4771 99.5403 39.7814C99.6098 40.7116 99.4707 41.6418 99.4273 42.572C99.4186 42.7545 99.2795 42.7893 99.123 42.7632C98.897 42.7284 98.7231 42.6328 98.7318 42.3546C98.7405 41.8852 98.7405 41.4157 98.7492 40.9463C98.7492 40.8072 98.7492 40.6681 98.7492 40.5203L98.7405 40.529Z" fill="#85A71F"/>
<path d="M89.9253 40.9897C88.856 40.8593 88.7256 40.981 88.7082 42.0242C88.7082 42.3198 88.8821 42.8414 88.4735 42.8414C88.1171 42.8414 87.8476 42.4154 87.9258 41.946C87.9867 41.5374 88.0214 41.1201 88.0736 40.7115C88.0997 40.4855 88.2388 40.3898 88.4648 40.3985C88.6734 40.3985 88.9169 40.4507 89.0907 40.3725C89.6471 40.1117 89.8558 40.3725 89.9601 40.8506C89.9514 40.8941 89.934 40.9375 89.9253 40.981V40.9897Z" fill="#102D46"/>
<path d="M128.037 41.7634C128.02 41.0679 128.246 40.3811 128.177 39.677C128.159 39.5205 128.246 39.3379 128.359 39.3466C128.49 39.3466 128.698 39.4422 128.689 39.6509C128.655 40.555 128.803 41.4504 128.959 42.3372C129.011 42.6241 128.82 42.7718 128.533 42.7631C128.246 42.7631 128.011 42.6849 128.046 42.3198C128.064 42.1372 128.046 41.946 128.046 41.7547L128.037 41.7634Z" fill="#102D46"/>
<path d="M91.0381 44.9539C90.9337 45.5364 91.2293 46.1362 91.1945 46.7796C91.1772 47.1186 91.0554 47.3272 90.7425 47.3881C90.3773 47.4576 90.4382 47.1012 90.4034 46.936C90.2122 45.9624 90.3252 44.9974 90.5773 44.0411C90.6208 43.8759 90.6642 43.7803 90.8468 43.8064C91.0467 43.8325 91.0294 43.9889 91.0294 44.128C91.0294 44.3888 91.0294 44.6497 91.0294 44.9626L91.0381 44.9539Z" fill="#102D46"/>
<path d="M79.3627 46.3449C79.3627 46.5101 79.3627 46.6753 79.3627 46.8405C79.3627 47.1447 79.2497 47.3447 78.9194 47.336C78.5803 47.3273 78.5021 47.1013 78.5108 46.8144C78.5368 45.9363 78.7194 45.0583 78.6499 44.1803C78.6325 43.9803 78.7629 43.8325 78.9194 43.8325C79.1802 43.8325 79.2323 44.1194 79.2236 44.2846C79.2062 44.9801 79.3193 45.6668 79.3714 46.3536L79.3627 46.3449Z" fill="#102D46"/>
<path d="M89.9253 40.9897C89.934 40.9463 89.9514 40.9028 89.9601 40.8593C90.2556 40.7898 90.3252 40.5637 90.3513 40.3029C90.4469 40.2508 90.5425 40.1986 90.6381 40.1552C91.038 40.9202 90.8033 41.7548 90.8555 42.5546C90.8729 42.8154 90.699 42.9371 90.4469 42.9197C90.1252 42.9023 89.9166 42.7197 89.9079 42.3981C89.8905 41.9286 89.9079 41.4679 89.9166 40.9984L89.9253 40.9897Z" fill="#85A71F"/>
<path d="M98.7405 40.529C98.7405 40.6681 98.7405 40.8072 98.7405 40.955C97.167 40.6507 97.5495 41.9982 97.2713 42.8676C96.6366 42.1199 96.8975 41.3636 96.9061 40.642C96.9061 40.4942 97.0887 40.416 97.2278 40.416C97.732 40.4334 98.2536 40.2769 98.7405 40.529Z" fill="#102D46"/>
<path d="M121.961 42.0069C121.709 41.9113 121.517 41.9547 121.37 42.2068C121.248 42.4155 121.039 42.572 120.778 42.4676C120.526 42.3633 120.5 42.1112 120.483 41.8765C120.474 41.7113 120.474 41.5461 120.483 41.3897C120.544 40.8072 120.761 40.7116 121.265 41.0593C121.517 41.2332 121.743 41.4331 121.978 41.6244C122.022 41.7635 122.056 41.8939 121.961 42.0243V42.0069Z" fill="#85A71F"/>
<path d="M74.8073 41.9808C74.5726 41.9808 74.3379 41.9634 74.1032 41.9547C73.8858 41.9547 73.599 42.2068 73.4946 41.7721C73.4164 41.4766 73.2686 41.1723 73.5642 40.9376C73.8337 40.7202 74.1032 40.8854 74.3292 41.0506C74.5726 41.2245 74.8073 41.4244 75.0421 41.6157C74.9725 41.7461 74.9899 41.9199 74.8073 41.9808Z" fill="#85A71F"/>
<path d="M125.099 42.598C124.986 42.4676 125.021 42.3111 125.03 42.1633C125.125 41.9633 124.934 41.6678 125.238 41.5374C125.343 41.8242 125.395 42.1459 125.69 42.3285C125.725 42.3719 125.725 42.4154 125.69 42.4589C125.595 42.5545 125.49 42.6414 125.395 42.7371C125.29 42.6936 125.195 42.6501 125.09 42.6067L125.099 42.598Z" fill="#85A71F"/>
<path d="M90.6382 40.1551C90.5425 40.2073 90.4469 40.2595 90.3513 40.3029C89.9601 40.2682 90.0209 39.99 90.047 39.7466C90.0644 39.5727 90.1513 39.4423 90.3426 39.4249C90.5947 39.4075 90.5512 39.6075 90.5686 39.7552C90.586 39.8856 90.6121 40.0247 90.6295 40.1551H90.6382Z" fill="#102D46"/>
<path d="M86.0397 45.4147C86.2055 45.4757 86.1793 45.5804 86.1182 45.6938C85.8304 45.6677 85.9002 45.5455 86.0397 45.4147Z" fill="#85A71F"/>
<path d="M125.395 42.7197C125.49 42.6328 125.595 42.5372 125.69 42.4415C125.742 42.6936 125.682 42.824 125.395 42.7197Z" fill="#102D46"/>
<path d="M125.238 41.5287C124.943 41.6678 125.134 41.9547 125.03 42.1547C124.795 42.0764 124.586 42.1634 124.351 42.2155C124.073 42.2764 123.769 42.3024 123.482 42.1025C123.213 41.9199 122.969 41.72 123.047 41.3896C123.134 41.0071 123.595 40.9463 123.83 40.9897C124.195 41.0506 124.56 41.1027 124.925 41.0854C125.264 41.0767 125.169 41.3549 125.238 41.5287Z" fill="#F1F0F1"/>
<path d="M92.6029 45.9363C92.9072 46.0058 93.2636 45.6928 93.4288 46.1536C93.4722 46.2666 93.4636 46.4318 93.2549 46.4666C92.8637 46.5361 92.6464 46.3796 92.5942 45.9363H92.6029Z" fill="#F1F0F1"/>
<path d="M98.9752 45.8146C99.2099 45.832 99.3664 45.9189 99.3925 46.1884C99.4186 46.5535 99.0621 46.4753 98.897 46.5535C98.7144 46.6405 98.6014 46.4231 98.584 46.2145C98.5579 45.9276 98.7666 45.8841 98.9752 45.8233V45.8146Z" fill="#F1F0F1"/>
<path d="M66.2095 42.2156C65.5749 42.2851 65.4184 42.0504 65.3923 41.6157C65.3575 41.068 65.7835 40.9724 66.1226 40.9637C66.479 40.9463 66.8702 41.0854 66.8702 41.5983C66.8702 42.1808 66.4008 42.1199 66.2095 42.2156Z" fill="#F1F0F1"/>
<path d="M70.6606 42.2502C70.1129 42.2415 70.0086 41.8938 69.9738 41.5374C69.9303 41.0679 70.3389 40.9984 70.6345 40.9636C71.0605 40.9114 71.2517 41.2157 71.2865 41.6243C71.3213 42.1459 70.8605 42.0764 70.6606 42.2502Z" fill="#F1F0F1"/>
<path d="M56.5163 41.9721C56.6988 41.6244 56.4206 41.5722 56.2207 41.4592C56.0555 41.3636 56.0034 41.2071 56.1164 41.0419C56.2381 40.868 56.4293 40.9028 56.551 41.0158C56.8727 41.3027 57.3334 41.5374 57.0553 42.0938C56.977 42.2503 56.9336 42.5111 56.7075 42.4676C56.4467 42.4155 56.4554 42.1721 56.525 41.9808L56.5163 41.9721Z" fill="#85A71F"/>
<path d="M81.7013 42.5459C81.3883 42.0677 81.7534 41.5201 81.2492 41.2071C81.1188 41.1289 81.3622 40.9376 81.5448 41.0071C81.8925 41.1462 82.1968 41.3288 82.0316 41.7896C81.9534 42.0069 81.8491 42.2155 81.71 42.5546L81.7013 42.5459Z" fill="#85A71F"/>
<path d="M86.2654 40.8419C86.4914 40.8767 86.7087 41.0419 86.6826 41.181C86.5957 41.5983 86.3001 41.946 86.2654 42.3894C86.2654 42.4763 86.1089 42.4415 86.0306 42.372C85.8307 42.1981 85.8741 41.0506 86.0828 40.9115C86.1349 40.8767 86.2045 40.8593 86.2567 40.8419H86.2654Z" fill="#85A71F"/>
<path d="M95.0284 41.7895C95.0632 41.5461 94.9154 41.2592 95.3066 41.2418C95.6108 41.2331 95.5761 41.4592 95.55 41.6243C95.4978 41.9025 95.55 42.3807 95.2805 42.3981C94.8806 42.4241 95.1066 41.9808 95.0371 41.7808L95.0284 41.7895Z" fill="#F1F0F1"/>
<path d="M113.041 42.2329C112.563 42.2764 112.224 42.1547 112.207 41.6244C112.181 41.068 112.607 40.9985 112.998 40.9637C113.537 40.9202 113.624 41.2766 113.658 41.72C113.702 42.259 113.398 42.2764 113.041 42.2329Z" fill="#F1F0F1"/>
<path d="M115.988 42.2329C115.614 42.1547 115.241 41.8591 115.232 41.4418C115.223 40.9723 115.771 40.955 116.093 40.955C116.432 40.955 116.832 41.1288 116.779 41.6417C116.736 42.0764 116.484 42.2416 115.988 42.2242V42.2329Z" fill="#F1F0F1"/>
<path d="M130.698 41.9286C130.663 42.0677 130.819 42.3894 130.576 42.4329C130.246 42.4937 130.306 42.146 130.254 41.9373C130.228 41.8243 130.176 41.7113 130.141 41.607C130.046 41.3549 130.046 41.1201 130.376 41.0854C130.672 41.0593 130.672 41.3114 130.698 41.52C130.706 41.6331 130.698 41.7548 130.698 41.9286Z" fill="#85A71F"/>
</g>
<defs>
<clipPath id="clip0_34_16164">
<rect width="132.149" height="47.4055" fill="white"/>
</clipPath>
</defs>
</svg>
