<svg width="24" height="24" viewBox="0 0 24 24" fill="none" xmlns="http://www.w3.org/2000/svg">
<path d="M14.6729 7.40538H8.73464C8.73464 7.7827 9.03085 8.08948 9.40464 8.10712H10.5401H11.3441H14.6729C15.3323 8.10712 15.8648 8.64311 15.8648 9.29901V14.6696C15.8648 15.329 15.3288 15.8615 14.6729 15.8615H13.4599V14.0207H14.2991C14.3908 14.0207 14.4825 13.9819 14.5495 13.9185C14.6165 13.8515 14.6518 13.7633 14.6518 13.6681V12.455C14.6518 12.3634 14.613 12.2717 14.5495 12.2047C14.4825 12.1377 14.3944 12.1024 14.2991 12.1024H13.4599V11.6334H15.0044C15.0961 11.6334 15.1878 11.5946 15.2548 11.5312C15.3218 11.4642 15.357 11.376 15.357 11.2808V9.95137C15.357 9.85969 15.3182 9.768 15.2548 9.701C15.1878 9.634 15.0996 9.59874 15.0044 9.59874H12.2892C11.6897 9.59874 11.2031 10.0854 11.2031 10.6848V12.1095H10.6741C10.4802 12.1095 10.3215 12.2682 10.3215 12.4621V13.6751C10.3215 13.7704 10.3567 13.8585 10.4237 13.9255C10.4907 13.9925 10.5789 14.0278 10.6741 14.0278H11.2031V15.8615H9.30238C8.64296 15.8615 8.11049 15.3255 8.11049 14.6696V9.39422C8.09285 9.02043 7.78607 8.72422 7.40875 8.72422V9.41185V14.6696C7.40875 15.7169 8.25859 16.5667 9.3059 16.5667H11.5592C11.6509 16.5667 11.7426 16.5279 11.8096 16.4644C11.8766 16.3974 11.9118 16.3093 11.9118 16.2141V13.6751C11.9118 13.5799 11.8766 13.4918 11.8096 13.4248C11.7426 13.3578 11.6544 13.3225 11.5592 13.3225H11.0303V12.8147H11.5592C11.7532 12.8147 11.9118 12.656 11.9118 12.4621V10.6848C11.9118 10.4768 12.0811 10.304 12.2927 10.304H14.6553V10.9282H13.1108C13.0191 10.9282 12.9274 10.9669 12.8604 11.0304C12.7934 11.0974 12.7582 11.1856 12.7582 11.2808V12.455C12.7582 12.5467 12.7969 12.6384 12.8604 12.7054C12.9274 12.7724 13.0156 12.8077 13.1108 12.8077H13.95V13.3155H13.1108C13.0191 13.3155 12.9274 13.3543 12.8604 13.4177C12.7934 13.4847 12.7582 13.5729 12.7582 13.6681V16.2141C12.7582 16.3058 12.7969 16.3974 12.8604 16.4644C12.9274 16.5314 13.0156 16.5667 13.1108 16.5667H14.6765C15.7238 16.5667 16.5736 15.7169 16.5736 14.6696V9.29901C16.5736 8.25169 15.7238 7.40186 14.6765 7.40186L14.6729 7.40538Z" fill="#2D6DF6"/>
</svg>
