<svg width="24" height="24" viewBox="0 0 24 24" fill="none" xmlns="http://www.w3.org/2000/svg">
<path d="M14.6729 7.40538H8.67117C8.67117 7.7827 8.96738 8.08948 9.34116 8.10712H10.5401H11.2101H14.6729C15.3323 8.10712 15.8648 8.64311 15.8648 9.29901V14.6696C15.8648 15.329 15.3288 15.8615 14.6729 15.8615H9.30238C8.64296 15.8615 8.11049 15.3255 8.11049 14.6696V9.38011C8.09285 9.00632 7.78607 8.71011 7.40875 8.71011V9.39774V14.6696C7.40875 15.7169 8.25859 16.5667 9.3059 16.5667H14.6765C15.7238 16.5667 16.5736 15.7169 16.5736 14.6696V9.29901C16.5736 8.25169 15.7238 7.40186 14.6765 7.40186L14.6729 7.40538Z" fill="#2D6DF6"/>
<path d="M11.9894 10.0854C10.9386 10.0854 10.0852 10.9388 10.0852 11.9897C10.0852 13.0405 10.9386 13.8939 11.9894 13.8939C13.0402 13.8939 13.8936 13.0405 13.8936 11.9897C13.8936 10.9388 13.0402 10.0854 11.9894 10.0854ZM11.9894 13.1886C11.3265 13.1886 10.7905 12.6526 10.7905 11.9897C10.7905 11.3267 11.3265 10.7907 11.9894 10.7907C12.6524 10.7907 13.1883 11.3267 13.1883 11.9897C13.1883 12.6526 12.6524 13.1886 11.9894 13.1886Z" fill="#2D6DF6"/>
<path d="M14.4085 10.0994C14.5495 10.0994 14.6835 10.043 14.7822 9.94424C14.881 9.8455 14.9374 9.70797 14.9374 9.57045C14.9374 9.43292 14.881 9.2954 14.7822 9.19666C14.6835 9.09792 14.546 9.0415 14.4085 9.0415C14.2709 9.0415 14.1334 9.09792 14.0347 9.19666C13.9359 9.2954 13.8795 9.43292 13.8795 9.57045C13.8795 9.70797 13.9359 9.8455 14.0347 9.94424C14.1334 10.043 14.2709 10.0994 14.4085 10.0994Z" fill="#2D6DF6"/>
</svg>
