<svg width="24" height="24" viewBox="0 0 24 24" fill="none" xmlns="http://www.w3.org/2000/svg">
<path d="M9.69732 10.0991H7.98001C7.88833 10.0991 7.79664 10.1379 7.72964 10.2014C7.66264 10.2684 7.62738 10.3565 7.62738 10.4518V11.9293V12.6169C8.00469 12.6169 8.31148 12.3207 8.32911 11.9469V11.5414V11.2875V10.8079H9.34116V15.4944H8.32911V13.0154C7.9518 13.0154 7.64501 13.3116 7.62738 13.6854V14.0239V14.3448V15.847C7.62738 15.9387 7.66617 16.0304 7.72964 16.0974C7.79664 16.1644 7.8848 16.1996 7.98001 16.1996H9.69732C9.789 16.1996 9.88069 16.1608 9.94769 16.0974C10.0147 16.0304 10.0499 15.9422 10.0499 15.847V10.4553C10.0499 10.3636 10.0112 10.2719 9.94769 10.2049C9.88069 10.1379 9.79253 10.1026 9.69732 10.1026V10.0991Z" fill="#2D6DF6"/>
<path d="M8.82633 7.14802C8.48075 7.14802 8.14575 7.28554 7.90244 7.53238C7.65207 7.77922 7.51455 8.11422 7.51807 8.46685C7.51807 8.81243 7.6556 9.14743 7.90244 9.39074C8.14928 9.64111 8.48428 9.77864 8.83691 9.77511C9.18249 9.77864 9.51748 9.63758 9.7608 9.39074C10.0112 9.1439 10.1487 8.8089 10.1452 8.45627C10.1487 8.1107 10.0076 7.7757 9.7608 7.53238C9.51396 7.28201 9.17896 7.14449 8.82633 7.14802ZM9.26359 8.89353C9.12959 9.02401 9.01322 9.06985 8.84043 9.07338C8.65354 9.06985 8.53717 9.02048 8.4067 8.89353C8.27975 8.75953 8.23038 8.64317 8.22686 8.47038C8.23038 8.28348 8.27975 8.16712 8.4067 8.03664C8.5407 7.9097 8.65707 7.86033 8.82986 7.8568C9.01675 7.86033 9.13312 7.9097 9.26712 8.03664C9.39406 8.17064 9.44343 8.28701 9.44696 8.4598C9.44343 8.64669 9.39406 8.76306 9.26712 8.89353H9.26359Z" fill="#2D6DF6"/>
<path d="M16.3056 11.1504C16.0799 10.7695 15.7555 10.4663 15.357 10.2512C14.955 10.0325 14.5001 9.92676 14.017 9.92676C13.5234 9.92676 13.0473 10.0396 12.6101 10.2653C12.5078 10.3182 12.4126 10.3746 12.3209 10.4345C11.9471 10.1348 11.4499 10.0008 10.8645 10.0008C10.7728 10.0008 10.6812 10.0396 10.6142 10.1031C10.5472 10.1701 10.5119 10.2582 10.5119 10.3534V15.8439C10.5119 15.9356 10.5507 16.0273 10.6142 16.0943C10.6812 16.1613 10.7693 16.1965 10.8645 16.1965H12.5818C12.6735 16.1965 12.7652 16.1577 12.8322 16.0943C12.8992 16.0273 12.9345 15.9391 12.9345 15.8439V12.3811C13.0156 12.3317 13.0967 12.2859 13.1813 12.2506C13.2942 12.2012 13.4282 12.1765 13.5939 12.1765C13.7138 12.1765 13.8019 12.1942 13.8725 12.2259C13.943 12.2541 13.9959 12.2929 14.0488 12.3529C14.1616 12.4869 14.218 12.635 14.218 12.8571V15.8474C14.218 15.9391 14.2568 16.0308 14.3203 16.0978C14.3873 16.1648 14.4755 16.2 14.5707 16.2H16.2986C16.3902 16.2 16.4819 16.1613 16.5489 16.0978C16.6159 16.0308 16.6512 15.9426 16.6512 15.8474V15.4384V14.1089C16.2739 14.1089 15.9671 14.4404 15.9459 14.8142V15.4384V15.4736V15.4948H14.9233V12.8571C14.9233 12.501 14.8105 12.1589 14.5848 11.8944C14.4649 11.7534 14.3133 11.6441 14.144 11.5735C13.9747 11.503 13.7878 11.4713 13.5939 11.4713C13.3506 11.4713 13.1178 11.5136 12.9098 11.6018C12.7194 11.6829 12.5395 11.7851 12.3738 11.9121C12.2856 11.9791 12.2327 12.0813 12.2327 12.1942V15.4948H11.2207V10.7308C11.5416 10.7731 11.7673 10.8718 11.9154 11.0058C11.9436 11.0305 11.9753 11.0693 12.0212 11.1222C12.1446 11.2703 12.3597 11.2914 12.5113 11.1715C12.6453 11.0622 12.7864 10.9705 12.938 10.893C13.2765 10.7202 13.6327 10.632 14.0206 10.632C14.4049 10.632 14.7329 10.7131 15.0256 10.8718C15.3218 11.034 15.5404 11.2421 15.7061 11.5136C15.8684 11.7851 15.9495 12.0813 15.9495 12.4304V13.5553C16.3268 13.5553 16.6336 13.2591 16.6512 12.8853V12.6984V12.434C16.6512 11.972 16.5383 11.5348 16.3091 11.1539L16.3056 11.1504Z" fill="#2D6DF6"/>
</svg>
