<svg width="147" height="51" viewBox="0 0 147 51" fill="none" xmlns="http://www.w3.org/2000/svg">
<path d="M127.158 41.4281C127.208 41.3283 127.168 41.2684 127.103 41.2534C124.284 42.3763 118.11 43.4992 114.267 44.0732C110.943 44.5722 108.094 44.6521 106.502 44.7619L105.778 44.8218C105.693 44.8367 105.643 44.8866 105.633 44.9565C105.613 45.0164 105.658 45.0613 105.708 45.0963C105.998 45.4207 106.936 46.294 108.807 46.5685C110.953 46.863 114.147 46.304 118.125 45.1561C121.464 44.2029 125.287 42.551 127.153 41.4281H127.158Z" fill="#2D6DF6"/>
<path d="M127.448 43.0996C125.661 44.3223 123.236 45.5001 120.331 46.5083C117.386 47.5314 114.217 48.3997 110.769 48.9687C110.704 48.9886 110.649 49.0336 110.634 49.0984C110.634 49.1433 110.649 49.1933 110.679 49.2182C111.248 49.6674 111.981 49.9319 112.88 50.0317C113.993 50.1565 115.33 50.0067 116.867 49.6025C118.235 49.2382 119.542 48.6343 121.03 47.9206C122.442 47.2369 123.784 46.4434 124.927 45.6249C126.095 44.7915 126.979 43.973 127.528 43.2593C127.532 43.1595 127.503 43.1146 127.448 43.1046V43.0996Z" fill="#2D6DF6"/>
<path d="M112.955 11.5183C113.668 12.2869 114.597 12.8359 115.724 13.1902L115.809 13.2201C116.124 13.305 134.924 18.2558 139.904 19.5983C142.08 20.1822 143.807 20.6513 144.616 20.8859C144.7 20.8909 144.745 20.8559 144.755 20.806C144.755 20.7661 144.73 20.7262 144.685 20.7062C141.541 19.4436 122.167 12.0124 114.866 9.2176L111.792 8.02982C111.687 8.01983 111.637 8.02482 111.597 8.06475C111.567 8.09969 111.562 8.15458 111.562 8.18453C111.587 8.44404 111.747 9.84144 112.371 10.7997C112.55 11.0791 112.745 11.3137 112.955 11.5283V11.5183Z" fill="#2D6DF6"/>
<path d="M113.768 4.12222C114.142 4.58636 114.502 4.8858 115.191 5.30003C115.42 5.43977 115.65 5.58949 115.914 5.71426L117.646 6.59262C118.629 7.09169 133.152 13.8541 135.273 14.9071C137.783 16.1398 140.289 17.3226 141.387 17.8766C141.497 17.8966 141.551 17.8666 141.521 17.7369C138.817 16.05 128.426 9.51218 121.01 4.93072L115.69 1.7167L114.716 1.11782L112.91 0.0248538C112.81 -0.0100811 112.765 -0.00509037 112.73 0.0248538C112.675 0.0448167 112.655 0.0947237 112.655 0.129659C112.635 0.379194 112.615 1.74166 113.035 2.78471C113.229 3.24386 113.469 3.72796 113.768 4.12222Z" fill="#2D6DF6"/>
<path d="M126.849 46.3535C126.824 46.3535 126.784 46.3535 126.759 46.3735C124.353 48.7391 120.805 50.0716 119.627 50.4359C119.562 50.4459 119.512 50.4958 119.503 50.5607C119.503 50.6206 119.542 50.6854 119.597 50.7104C119.782 50.8002 121.209 51.5688 123.914 50.2013C125.456 49.4228 126.235 48.1701 126.929 46.5032C126.954 46.4034 126.894 46.3635 126.844 46.3635L126.849 46.3535Z" fill="#2D6DF6"/>
<path d="M144.146 26.4459C142.939 26.7903 138.327 27.9781 134.26 29.0112C130.736 29.9195 126.789 30.9975 126.789 30.9975C126.375 31.1023 126.524 31.2719 126.569 31.3318C126.674 31.4965 126.904 31.8559 127.163 32.295C127.797 33.3531 128.655 33.2183 129.424 32.9488C129.569 32.8989 143.607 27.0448 144.241 26.6206C144.351 26.5607 144.281 26.5108 144.276 26.4759C144.261 26.436 144.186 26.4459 144.151 26.4459H144.146Z" fill="#2D6DF6"/>
<path d="M137.978 36.1826L137.888 36.2176C136.032 37.7597 133.207 40.2301 130.277 42.7204C129.998 42.945 129.893 43.3592 129.778 43.8583C129.594 44.6918 129.165 45.7797 129.165 45.7797C129.08 46.0293 129.199 46.1291 129.434 45.8895C131.69 43.4591 136.69 37.9294 138.043 36.3523C138.073 36.2475 138.033 36.1926 137.973 36.1876L137.978 36.1826Z" fill="#2D6DF6"/>
<path d="M146.871 22.7029C144.376 22.2438 114.038 16.8638 114.018 16.8638C113.963 16.8588 113.898 16.8888 113.853 16.9337C113.833 16.9886 113.843 17.0535 113.858 17.1134C114.352 18.6804 115.535 20.2525 117.581 20.8863C117.816 20.9612 118.015 20.9812 118.245 21.0061C118.245 21.0061 143.972 22.693 146.837 22.8926C146.906 22.8926 146.956 22.8626 146.956 22.8127C146.956 22.7628 146.921 22.7179 146.866 22.7079L146.871 22.7029Z" fill="#2D6DF6"/>
<path d="M145.609 24.4346C144.705 24.4595 142.849 24.4695 140.533 24.4795C137.863 24.4895 134.559 24.5044 131.485 24.5094C127.348 24.5244 120.78 24.5643 120.78 24.5643C120.74 24.5693 120.685 24.5893 120.655 24.6392C120.625 24.6891 120.625 24.729 120.655 24.7739C120.74 25.0534 121.124 25.7521 121.539 26.1913C122.367 27.0497 123.26 27.4989 124.194 27.5937C124.303 27.6037 124.413 27.6037 124.528 27.6037C124.643 27.6037 124.748 27.5887 124.877 27.5687C125.002 27.5538 144.556 24.7989 145.614 24.6292C145.664 24.6192 145.699 24.5843 145.709 24.5444C145.709 24.4945 145.664 24.4396 145.609 24.4346Z" fill="#2D6DF6"/>
<path d="M142.574 29.1807C141.227 30.0091 137.719 32.1551 134.729 33.9568C133.052 34.9749 130.931 36.1577 129.838 36.8414C129.708 36.9212 129.609 36.9163 129.669 37.2556C129.669 37.2556 129.718 37.58 129.753 37.9693C129.868 39.5963 130.532 39.4166 131.51 38.663L131.625 38.5682C135.004 35.7884 141.277 30.5082 142.644 29.3603C142.679 29.2406 142.644 29.2006 142.579 29.1807H142.574Z" fill="#2D6DF6"/>
<path d="M85.9898 11.5684C79.2673 11.5783 72.9441 16.5291 72.6696 26.1761C72.4251 34.9498 76.9916 41.0884 84.7222 41.0884C91.0753 41.0884 93.3062 36.6616 93.3062 36.6616C93.6655 39.6261 95.2725 40.5294 98.4616 40.5294V11.5684H85.9898ZM93.0018 28.6316C93.0018 32.6391 90.706 36.457 85.7103 36.457C81.2486 36.457 78.0496 33.4576 78.2542 26.236C78.4539 19.3089 81.7926 16.2596 86.1944 16.2596C86.5388 16.2596 86.8632 16.2446 87.1776 16.2197L93.0018 16.2247V28.6316Z" fill="#2D6DF6"/>
<path d="M43.1546 11.5684L43.1745 31.6509C43.1745 34.5805 40.754 36.0527 37.555 36.0527C34.1863 36.0527 31.9854 34.5855 31.9854 31.6509L31.9454 16.6239C31.9405 12.3419 29.2604 11.5684 26.8998 11.5684V32.8837C26.8998 38.2686 31.7408 40.9087 37.3903 40.9087C43.0398 40.9087 48.2401 38.2686 48.2401 32.8837V17.2827C48.2401 13.0706 46.653 11.5734 43.1546 11.5734V11.5684Z" fill="#2D6DF6"/>
<path d="M14.9172 24.5392L8.73373 22.8424C7.0319 22.3732 5.47979 21.6346 5.47979 19.5585C5.47979 17.4823 6.78736 16.3345 9.53723 16.3345H15.037C17.4675 16.3345 20.3671 15.526 20.3721 11.5684L10.0213 11.5783C3.6482 11.5833 0 14.8023 0 19.4187C0 23.7107 2.72492 26.1262 7.59086 27.4188L12.9708 28.8462C15.1967 29.4451 15.9902 30.8375 15.9902 32.2648C15.9902 34.4408 14.6178 35.7533 11.279 35.7733L0.948234 35.8531V40.5294H11.4537C17.8268 40.5294 21.48 37.1058 21.48 32.6042C21.48 28.1026 19.6933 25.8368 14.9222 24.5392H14.9172Z" fill="#2D6DF6"/>
<path d="M65.6328 11.5684C59.3694 11.5684 55.0525 15.1866 55.0525 22.6427V40.5244H60.0981V22.473C60.0981 18.6352 62.1692 16.3345 66.067 16.3345H67.5642C71.9909 16.3345 72.7096 14.0437 72.7096 11.5684H65.6278H65.6328Z" fill="#2D6DF6"/>
</svg>
