<svg width="110" height="38" viewBox="0 0 110 38" fill="none" xmlns="http://www.w3.org/2000/svg">
<g clip-path="url(#clip0_102_89)">
<path d="M94.7453 30.8679C94.7825 30.7935 94.7527 30.7489 94.7044 30.7377C92.6034 31.5744 88.0035 32.4111 85.1402 32.8387C82.6637 33.2106 80.5404 33.2701 79.3541 33.3519L78.8149 33.3965C78.7517 33.4077 78.7145 33.4449 78.7071 33.4969C78.6922 33.5415 78.7257 33.575 78.7629 33.601C78.9786 33.8427 79.6777 34.4935 81.0721 34.698C82.6711 34.9174 85.051 34.5009 88.0147 33.6457C90.5024 32.9354 93.3508 31.7046 94.7416 30.8679H94.7453Z" fill="white"/>
<path d="M94.961 32.1136C93.6297 33.0246 91.8225 33.9022 89.6583 34.6534C87.4643 35.4157 85.103 36.0627 82.5335 36.4866C82.4852 36.5015 82.4443 36.535 82.4331 36.5833C82.4331 36.6168 82.4443 36.654 82.4666 36.6726C82.8905 37.0072 83.4371 37.2043 84.1065 37.2787C84.9357 37.3716 85.9323 37.2601 87.0776 36.9589C88.0965 36.6874 89.0707 36.2375 90.1789 35.7057C91.2312 35.1963 92.2315 34.605 93.0831 33.9952C93.9532 33.3742 94.6114 32.7643 95.0204 32.2326C95.0242 32.1582 95.0019 32.1248 94.961 32.1173V32.1136Z" fill="white"/>
<path d="M84.1622 8.58245C84.694 9.1551 85.3856 9.56415 86.226 9.82817L86.2893 9.85048C86.5235 9.91369 100.531 13.6025 104.242 14.6028C105.864 15.0379 107.15 15.3874 107.753 15.5622C107.816 15.5659 107.849 15.5399 107.857 15.5027C107.857 15.4729 107.838 15.4432 107.805 15.4283C105.462 14.4875 91.0267 8.95058 85.5864 6.86819L83.2958 5.98317C83.2177 5.97573 83.1805 5.97945 83.1508 6.0092C83.1285 6.03523 83.1248 6.07613 83.1248 6.09845C83.1433 6.29181 83.2623 7.33301 83.7272 8.04697C83.861 8.25521 84.0061 8.42999 84.1622 8.58988V8.58245Z" fill="white"/>
<path d="M84.7684 3.07158C85.0473 3.41741 85.3151 3.64052 85.8282 3.94916C85.9993 4.05328 86.1703 4.16484 86.3674 4.25781L87.6578 4.91227C88.3903 5.28413 99.2113 10.3228 100.792 11.1074C102.662 12.0259 104.529 12.9072 105.347 13.3199C105.429 13.3348 105.47 13.3125 105.447 13.2158C103.432 11.959 95.6899 7.08763 90.1641 3.67399L86.2001 1.27924L85.475 0.833008L84.1289 0.018643C84.0545 -0.00738693 84.021 -0.00366836 83.995 0.018643C83.9541 0.0335173 83.9392 0.0707029 83.9392 0.0967328C83.9243 0.282661 83.9095 1.29783 84.2218 2.07501C84.3668 2.41712 84.5453 2.77782 84.7684 3.07158Z" fill="white"/>
<path d="M94.5147 34.5381C94.4961 34.5381 94.4664 34.5381 94.4478 34.553C92.6555 36.3156 90.0116 37.3084 89.134 37.5799C89.0856 37.5873 89.0485 37.6245 89.041 37.6729C89.041 37.7175 89.0708 37.7658 89.1117 37.7844C89.2493 37.8513 90.3128 38.424 92.3282 37.4051C93.4773 36.825 94.0574 35.8917 94.5742 34.6497C94.5928 34.5753 94.5482 34.5455 94.511 34.5455L94.5147 34.5381Z" fill="white"/>
<path d="M107.403 19.7047C106.503 19.9613 103.067 20.8463 100.037 21.6161C97.4114 22.2928 94.47 23.096 94.47 23.096C94.1614 23.1741 94.2729 23.3006 94.3064 23.3452C94.3845 23.4679 94.5556 23.7356 94.7489 24.0629C95.2212 24.8512 95.8608 24.7508 96.4334 24.55C96.5413 24.5128 107.002 20.1509 107.474 19.8349C107.556 19.7902 107.504 19.7531 107.5 19.727C107.489 19.6973 107.433 19.7047 107.407 19.7047H107.403Z" fill="white"/>
<path d="M102.807 26.9596L102.74 26.9857C101.357 28.1347 99.2522 29.9754 97.0694 31.8309C96.8612 31.9983 96.7831 32.3069 96.6975 32.6788C96.5599 33.2998 96.2401 34.1104 96.2401 34.1104C96.1769 34.2964 96.2662 34.3707 96.441 34.1922C98.1217 32.3813 101.848 28.2611 102.855 27.0861C102.878 27.008 102.848 26.9671 102.803 26.9633L102.807 26.9596Z" fill="white"/>
<path d="M109.434 16.9158C107.574 16.5737 84.9692 12.5651 84.9543 12.5651C84.9134 12.5614 84.865 12.5837 84.8316 12.6172C84.8167 12.6581 84.8241 12.7064 84.8353 12.751C85.2034 13.9187 86.0847 15.09 87.6093 15.5623C87.7841 15.6181 87.9329 15.6329 88.1039 15.6515C88.1039 15.6515 107.273 16.9084 109.408 17.0571C109.46 17.0571 109.497 17.0348 109.497 16.9976C109.497 16.9605 109.471 16.927 109.43 16.9196L109.434 16.9158Z" fill="white"/>
<path d="M108.493 18.2061C107.82 18.2247 106.436 18.2321 104.711 18.2396C102.722 18.247 100.26 18.2582 97.9693 18.2619C94.8866 18.273 89.993 18.3028 89.993 18.3028C89.9632 18.3065 89.9223 18.3214 89.9 18.3586C89.8777 18.3957 89.8777 18.4255 89.9 18.459C89.9632 18.6672 90.2496 19.1878 90.5582 19.515C91.1755 20.1546 91.8411 20.4893 92.5365 20.56C92.6183 20.5674 92.7001 20.5674 92.7856 20.5674C92.8712 20.5674 92.9493 20.5562 93.0459 20.5414C93.1389 20.5302 107.708 18.4776 108.497 18.3511C108.534 18.3437 108.56 18.3177 108.567 18.2879C108.567 18.2507 108.534 18.2098 108.493 18.2061Z" fill="white"/>
<path d="M106.232 21.7425C105.228 22.3597 102.614 23.9587 100.386 25.3011C99.1369 26.0597 97.5565 26.941 96.7421 27.4505C96.6454 27.51 96.5711 27.5062 96.6157 27.7591C96.6157 27.7591 96.6529 28.0008 96.6789 28.2909C96.7644 29.5031 97.259 29.3692 97.9878 28.8077L98.0734 28.7371C100.591 26.6658 105.265 22.7316 106.284 21.8763C106.31 21.7871 106.284 21.7573 106.236 21.7425H106.232Z" fill="white"/>
<path d="M64.0709 8.6196C59.0619 8.62704 54.3505 12.3159 54.146 19.5038C53.9638 26.0411 57.3663 30.6149 63.1263 30.6149C67.8601 30.6149 69.5223 27.3165 69.5223 27.3165C69.79 29.5254 70.9874 30.1984 73.3635 30.1984V8.6196H64.0709ZM69.2954 21.3334C69.2954 24.3194 67.5849 27.1641 63.8626 27.1641C60.5382 27.1641 58.1546 24.9292 58.3071 19.5485C58.4558 14.3871 60.9435 12.115 64.2233 12.115C64.4799 12.115 64.7216 12.1039 64.9559 12.0853L69.2954 12.089V21.3334Z" fill="white"/>
<path d="M32.1543 8.6196L32.1692 23.5831C32.1692 25.7659 30.3657 26.8629 27.9821 26.8629C25.4721 26.8629 23.8322 25.7696 23.8322 23.5831L23.8024 12.3865C23.7987 9.19598 21.8018 8.6196 20.043 8.6196V24.5016C20.043 28.5139 23.65 30.481 27.8594 30.481C32.0688 30.481 35.9435 28.5139 35.9435 24.5016V12.8774C35.9435 9.73889 34.761 8.62332 32.1543 8.62332V8.6196Z" fill="white"/>
<path d="M11.1148 18.2841L6.50749 17.0198C5.23946 16.6702 4.08298 16.1199 4.08298 14.573C4.08298 13.0261 5.05725 12.1708 7.10617 12.1708H11.204C13.015 12.1708 15.1755 11.5684 15.1792 8.61955L7.46687 8.62699C2.71827 8.63071 0 11.0292 0 14.4689C0 17.6668 2.03034 19.4666 5.65593 20.4297L9.66455 21.4932C11.323 21.9394 11.9143 22.9769 11.9143 24.0404C11.9143 25.6617 10.8917 26.6397 8.40395 26.6546L0.706527 26.7141V30.1984H8.5341C13.2827 30.1984 16.0047 27.6474 16.0047 24.2933C16.0047 20.9392 14.6734 19.2509 11.1185 18.2841H11.1148Z" fill="white"/>
<path d="M48.9029 8.6196C44.2361 8.6196 41.0195 11.3156 41.0195 16.8711V30.1947H44.779V16.7447C44.779 13.8851 46.3222 12.1708 49.2264 12.1708H50.342C53.6403 12.1708 54.1758 10.464 54.1758 8.6196H48.8992H48.9029Z" fill="white"/>
</g>
<defs>
<clipPath id="clip0_102_89">
<rect width="109.501" height="38" fill="white"/>
</clipPath>
</defs>
</svg>
