<svg width="32" height="29" viewBox="0 0 32 29" fill="none" xmlns="http://www.w3.org/2000/svg">
<path d="M27.625 22.0781L21.3438 15.7969C22.7031 14.1562 23.4531 12.0469 23.4531 9.75C23.4531 4.40625 19.0469 0 13.7031 0C8.3125 0 4 4.40625 4 9.75C4 15.1406 8.35938 19.5 13.7031 19.5C15.9531 19.5 18.0625 18.75 19.75 17.3906L26.0312 23.6719C26.2656 23.9062 26.5469 24 26.875 24C27.1562 24 27.4375 23.9062 27.625 23.6719C28.0938 23.25 28.0938 22.5469 27.625 22.0781ZM6.25 9.75C6.25 5.625 9.57812 2.25 13.75 2.25C17.875 2.25 21.25 5.625 21.25 9.75C21.25 13.9219 17.875 17.25 13.75 17.25C9.57812 17.25 6.25 13.9219 6.25 9.75Z" fill="#2D6DF6"/>
</svg>
