<svg width="103" height="65" viewBox="0 0 103 65" fill="none" xmlns="http://www.w3.org/2000/svg">
<g clip-path="url(#clip0_360_3078)">
<path d="M44.4126 15.1358C44.3834 19.8748 44.3559 24.6138 44.3267 29.351C44.2883 29.391 44.2865 29.4347 44.3157 29.4802C44.2627 29.7913 44.4583 30.1496 43.952 30.3407C43.3103 30.5826 43.1714 29.9714 42.7838 29.8004C42.8039 29.7076 42.7582 29.6803 42.6741 29.6948C42.038 29.1436 41.4512 28.5433 40.9466 27.8702C40.9905 27.4336 40.6998 27.2498 40.3598 27.1025C40.3598 27.1025 40.3032 27.0534 40.305 27.0534C40.3763 26.7132 40.2191 26.5749 39.8882 26.5913C38.4751 25.1941 36.8353 24.1699 34.9159 23.6005C34.4223 22.8819 34.0146 22.0815 33.1445 21.7104C33.1006 21.5339 33.0988 21.332 33.0074 21.1865C32.8374 20.9154 32.863 20.4388 32.4462 20.4187C32.0787 20.4006 32.2487 20.9263 31.9709 21.0609C31.2287 21.2083 30.9581 20.6043 30.5614 20.195C30.311 19.9367 29.9381 19.6383 29.7352 20.0931C29.5798 20.4406 29.4573 20.9954 29.9893 21.3011C30.0807 21.6958 30.2123 22.0597 30.4774 22.3908C30.9691 23.0057 30.7918 23.7606 30.0532 24.0935C28.419 24.8303 27.3057 25.9491 26.6988 27.6919C26.3459 28.7052 25.2747 29.2055 24.2437 29.4929C23.4357 29.7185 22.7465 30.1788 21.9842 30.4898C21.3645 30.7427 21.4979 31.4849 21.8581 31.8888C22.6149 32.7365 23.2364 33.7589 24.3917 34.1774C24.4685 34.3702 24.5709 34.4648 24.7464 34.2647C24.8469 34.2792 24.9493 34.292 25.0499 34.3047C25.3222 34.9396 25.6732 34.8705 26.0681 34.4175C26.505 34.4211 26.9419 34.4248 27.3788 34.4302C27.5415 34.9214 27.9126 34.6758 28.2179 34.6631C28.7699 34.7358 29.322 34.8068 29.8741 34.8796C30.0075 35.2834 30.2452 35.6436 30.2123 36.1093C30.0861 37.9013 30.2159 39.6732 30.7899 41.3905C30.8996 41.7161 30.5468 42.1727 31.0733 42.3765C31.0623 42.4784 31.0532 42.5784 31.0422 42.6785C30.821 42.7094 30.7881 42.8386 30.8594 43.0223C30.5121 43.9919 29.6968 44.1193 28.823 44.1411C28.7352 44.0138 28.6018 44.0065 28.4647 44.0065C27.1411 44.0065 25.8158 44.0065 24.4923 44.0119C24.2839 44.0119 24.0481 43.9574 23.9183 44.2011C21.8508 44.203 19.785 44.2066 17.7175 44.2084C16.8693 43.8755 15.9461 43.921 15.076 43.6936C14.3831 43.5135 13.7707 43.2934 13.8969 42.3947C14.3923 41.6888 14.8804 40.9793 14.9498 40.0843C15.0211 40.0552 15.1528 40.0315 15.1564 39.9952C15.2643 38.7308 15.2825 37.4665 15.2423 36.1985C15.3484 35.58 15.4526 34.9632 15.5586 34.3447C16.0924 33.8426 15.9406 32.9276 15.2186 32.3181C15.1674 31.8561 15.2953 31.4813 15.7505 31.2739C16.5512 31.5814 17.308 31.2575 18.0722 31.0956C18.2458 31.0592 18.3738 30.8719 18.3445 30.6481L18.3683 30.6299C18.6846 30.6463 18.8418 30.4953 18.8491 30.1842C18.9058 30.0769 18.9624 29.9695 19.0173 29.8622C19.5748 29.3765 20.0008 28.8253 19.9679 28.0376C20.0483 27.5045 19.6388 27.3062 19.3006 27.0425C18.7942 26.6477 18.2586 26.2675 18.1453 25.5653C18.2769 25.1905 18.0502 25.0486 17.7449 24.9595C17.5475 24.7757 17.3483 24.5938 17.1508 24.4119C17.0192 24.0481 16.7359 23.9662 16.3867 24.0062C16.2258 23.9298 16.0668 23.8516 15.9059 23.7752C15.6482 23.4368 15.2423 23.324 14.8767 23.2039C13.6921 22.811 13.0505 22.0342 12.9554 20.7971C12.9408 20.6007 13.034 20.3496 12.758 20.2405C12.8567 19.7456 12.535 19.3909 12.1749 19.2908C11.8111 19.189 11.4583 19.5619 11.2937 19.8803C10.7727 20.8899 10.1878 21.8832 9.91903 22.9984C9.66859 24.039 8.93737 24.7575 8.2683 25.5052C7.81128 26.0182 7.45298 26.5513 7.25555 27.208C6.9978 28.0612 6.52982 28.8071 5.99968 29.5166C5.70719 29.5348 5.55181 29.6712 5.59751 29.9805C5.46954 30.1133 5.34158 30.2461 5.21544 30.3789C4.93392 30.3207 4.7566 30.4116 4.72735 30.7154C3.56288 30.8082 2.39841 30.8646 1.24125 30.6427C1.16995 30.4626 1.08038 30.4571 0.976181 30.619C0.104198 30.2697 0.297972 29.4311 0.11151 28.7671L0.107854 28.7325C0.0914017 28.0048 0.0731212 27.2771 0.0566687 26.5513C0.0566687 26.5003 0.0566687 26.4476 0.0566687 26.3966C0.0584967 26.2293 0.0603248 26.0619 0.0639809 25.8964C0.11151 25.8509 0.113338 25.8018 0.0694651 25.7526C0.065809 23.4204 0.127963 21.0846 0.0329039 18.756C-0.0201097 17.4644 0.221194 16.1946 0.127963 14.9084C0.0914017 14.4208 0.244959 13.957 0.623366 13.5986C0.833593 13.4003 1.04565 13.2384 1.32168 13.4949C1.41491 13.5822 1.49535 13.5695 1.56116 13.4603C2.1114 13.182 2.6909 13.2984 3.26491 13.3293C3.35265 13.5604 3.44406 13.564 3.54277 13.3348C3.66891 13.3221 3.79504 13.3093 3.92118 13.2984C4.01441 13.302 4.10764 13.3057 4.20087 13.3093C6.72542 13.3221 9.24996 13.3239 11.7727 13.3548C12.3248 13.3621 12.8366 13.182 13.3722 13.1329C13.5057 13.1856 13.6355 13.1892 13.6556 13.0182C13.6684 12.9073 13.5715 12.8509 13.4545 12.8582C13.4508 10.0766 13.4472 7.29504 13.4454 4.51167C13.4454 3.78217 13.4307 3.05267 13.4454 2.32317C13.4709 0.858715 13.8951 0.416649 15.5494 0.089193C15.6134 0.0837354 15.6774 0.080097 15.7414 0.0746394C18.7595 0.0655434 21.7776 0.0564474 24.7958 0.0473514L24.8488 0.0910122L24.9018 0.0455322C26.0096 0.0655434 27.1192 0.0855546 28.227 0.105566C28.2855 0.329327 28.3751 0.362073 28.5049 0.151046C29.0259 0.0109674 29.5359 0.176515 30.0075 0.322051C30.5176 0.478502 30.8941 0.804138 31.0075 1.44632C31.2506 2.82163 31.1025 4.19513 31.1281 5.56862C31.1537 6.86571 31.1281 8.16462 31.1227 9.46171C31.0093 9.44534 30.9069 9.47626 30.9088 9.60179C30.9106 9.72731 31.0203 9.74914 31.13 9.74187C31.1099 10.5769 31.2049 11.4101 31.0203 12.2469C30.8503 13.0164 31.1812 13.333 32.086 13.3421C33.9726 13.3584 35.8573 13.3475 37.7439 13.3475C39.029 13.3475 40.3141 13.3657 41.5974 13.3402C42.2555 13.3275 42.8624 13.4876 43.4876 13.6531C43.9666 13.7805 44.1695 14.0898 44.3377 14.4809C44.2975 14.7046 44.228 14.932 44.4163 15.1285L44.4126 15.1358Z" fill="#01588B"/>
<path d="M37.9267 42.713C37.6982 42.8749 37.764 43.115 37.7786 43.3151C38.1058 47.8395 37.7914 52.3711 37.8919 56.8973C37.9175 58.0925 37.5044 58.4181 36.2851 58.389C33.841 58.3326 34.1371 58.6691 34.1316 56.1714C34.1188 48.8382 34.1298 41.5032 34.1006 34.17C34.0987 33.5333 34.245 33.2677 34.914 33.1894C36.1443 33.0475 37.3709 33.113 38.5994 33.0948C39.2155 33.0857 39.3617 33.6097 39.4275 33.9535C39.7566 35.689 40.5079 37.3008 40.8607 39.0218C41.4201 41.7579 42.261 44.4175 43.0288 47.0972C43.2756 47.9559 43.473 48.8291 43.7198 49.6859C43.8021 49.9679 43.952 50.2936 44.2938 50.3027C44.6704 50.3136 44.6393 49.9042 44.7015 49.6841C45.1347 48.156 45.4235 46.5806 45.95 45.087C46.9079 42.3728 47.2315 39.493 48.2314 36.7969C48.6153 35.7636 48.9992 34.7285 49.0522 33.6133C49.0705 33.2568 49.2734 33.2404 49.5422 33.2404C50.8949 33.2404 52.2495 33.2549 53.6023 33.2222C54.2019 33.2076 54.1598 33.5551 54.1598 33.9608C54.1543 37.9994 54.1616 42.038 54.1616 46.0785C54.1616 49.9079 54.147 53.7391 54.1671 57.5685C54.1708 58.1379 54.0538 58.4017 53.4231 58.3599C52.7431 58.3162 52.0576 58.3453 51.3739 58.369C50.6481 58.3945 50.3629 58.0961 50.3684 57.3521C50.3995 53.3316 50.4013 49.3112 50.3867 45.2908C50.3867 44.8687 50.639 44.141 50.1326 44.0846C49.5732 44.0228 49.725 44.7941 49.6116 45.2016C49.1966 46.6733 48.4673 48.0468 48.1967 49.5604C47.736 52.1346 46.8074 54.596 46.4052 57.1829C46.2754 58.0124 45.8129 58.3763 44.9501 58.369C41.921 58.3417 42.5736 58.8365 41.7491 55.9458C40.9046 52.9878 40.0198 50.0407 39.2484 47.0645C38.9102 45.7637 38.6287 44.4521 38.1863 43.1787C38.1259 43.0022 38.0912 42.8276 37.9285 42.7093L37.9267 42.713Z" fill="#3EAAD9"/>
<path d="M79.1311 53.4535C78.8514 54.4686 78.5223 55.4747 78.3139 56.5043C78.2006 57.0628 78.0087 57.5667 77.7582 58.0616C77.2829 58.1889 76.7967 58.1762 76.3086 58.1998C75.7766 58.2253 75.2282 58.047 74.7127 58.3108C74.0253 58.4381 73.9467 57.8778 73.8754 57.474C73.7054 56.5116 73.5738 55.5092 73.2648 54.616C72.8298 53.3589 72.4166 52.0928 72.1241 50.8066C71.5794 48.4089 70.5849 46.1312 70.1809 43.7081C69.9378 42.2564 69.2523 40.9174 69.1865 39.4348C69.2596 39.3147 69.2833 39.2074 69.1115 39.151C68.7989 37.9485 68.4845 36.746 68.1719 35.5435C68.1883 35.5271 68.2194 35.4962 68.2176 35.4926C68.192 35.4616 68.1609 35.4362 68.1317 35.4089C68.0988 35.2906 68.064 35.1742 68.0311 35.056C68.1335 34.8176 68.0421 34.7267 67.7971 34.7503C67.947 34.2974 67.3218 33.8298 67.8264 33.3841C68.033 33.4096 68.2615 33.5297 68.404 33.2604C68.6399 33.2313 68.8757 33.2004 69.1097 33.1713L69.1773 33.1986L69.2395 33.1585C69.8391 33.184 70.5228 33.0403 71.0145 33.2822C71.5209 33.5315 71.3673 34.3065 71.5574 34.8358C72.5172 37.5355 72.8535 40.3971 73.7164 43.1205C74.422 45.3472 74.773 47.6594 75.4549 49.8897C75.517 50.0898 75.506 50.3136 75.5298 50.5246C75.422 50.9412 75.6358 51.2559 75.9996 51.2759C76.2482 51.2887 76.3597 50.943 76.2592 50.6501C76.3268 50.3882 76.3927 50.1244 76.4603 49.8624C76.7564 49.706 76.6851 49.4604 76.6175 49.2166C76.5444 48.7818 76.963 48.4871 76.9502 48.0687C76.9849 48.0196 76.9831 47.9705 76.9466 47.9232C76.9648 47.8613 76.9849 47.7995 77.0032 47.7376C77.612 47.4483 77.3999 46.7953 77.6047 46.3295C78.0598 45.2908 78.2171 44.1647 78.2518 43.0295C78.707 41.4977 79.1622 39.966 79.6155 38.436C79.8513 38.3305 79.7855 38.1577 79.7161 37.9831C79.7161 37.8666 79.7179 37.7502 79.7197 37.6356C79.8806 37.2717 80.1347 36.9297 80.0213 36.4931C80.0616 36.3803 80.1018 36.2675 80.142 36.1548C80.6081 35.7582 80.6063 35.2415 80.5259 34.7012C80.5076 34.3719 80.4875 34.0445 80.4674 33.7152C80.769 33.7607 80.8019 33.5915 80.758 33.3586C81.3997 33.0239 82.0907 33.2349 82.7579 33.1731C82.895 33.2568 83.034 33.255 83.1766 33.1858C83.4727 33.1949 83.7689 33.204 84.065 33.2131L84.0997 33.2477L84.1473 33.2331C84.3538 33.4023 84.3758 33.5497 84.2844 33.8426C83.6555 35.8346 83.268 37.8921 82.6135 39.8805C82.491 40.2534 82.5477 40.6827 82.5221 41.0866C82.1638 41.1357 82.2004 41.3413 82.3229 41.5814C82.2753 41.747 82.226 41.9125 82.1784 42.0781C82.1583 42.0799 82.1382 42.0835 82.12 42.0853C82.1309 42.1163 82.1419 42.1454 82.1529 42.1763C81.9719 42.7748 81.7909 43.3752 81.6099 43.9737C81.4015 44.0173 81.3101 44.1047 81.4874 44.2939C81.5697 45.0616 81.131 45.7092 80.9902 46.426C80.4473 47.392 80.323 48.4944 79.9811 49.5259C79.9702 49.5568 80.0835 49.6277 80.1402 49.6805C79.8842 50.6647 79.6283 51.6507 79.3724 52.6349C79.0141 52.8259 78.919 53.0915 79.1366 53.4481L79.1311 53.4535Z" fill="#01588B"/>
<path d="M63.2306 49.7187C62.1649 49.7187 61.0973 49.7133 60.0315 49.7224C59.7647 49.7242 59.4283 49.7024 59.4301 50.0971C59.4374 51.6325 59.3314 53.1952 60.2107 54.5778C60.8907 55.6457 61.8121 55.6512 62.8358 55.3383C63.0186 55.2819 63.1721 55.1491 63.2398 54.9599C63.5963 53.9466 64.2214 53.0079 64.1684 51.8763C64.1392 51.2651 64.375 50.9704 65.0276 51.0086C65.6546 51.0449 66.2853 51.0304 66.9142 51.0177C67.3858 51.0086 67.5924 51.1905 67.6271 51.6817C67.7606 53.5372 67.3822 55.2764 66.2524 56.7518C65.6729 57.5067 64.9051 58.1853 63.9454 58.5C61.7444 59.2241 59.3058 58.9821 58.0024 57.3175C56.9385 55.9586 56.3626 54.4268 56.1469 52.7168C55.8983 50.7375 55.8526 48.7491 56.0318 46.7862C56.1908 45.0398 56.3955 43.2315 57.2584 41.6561C57.8726 40.5336 58.6897 39.4166 60.0261 39.1055C61.7262 38.7108 63.4628 38.8072 64.9636 39.8114C65.5267 40.188 65.9855 40.8083 66.3219 41.4123C67.2231 43.035 67.894 44.7487 67.5814 46.6625C67.4882 47.2337 67.4553 47.7722 67.607 48.3398C67.8026 49.0693 67.4608 49.5696 66.6747 49.6096C65.5303 49.6678 64.3787 49.6241 63.2306 49.6241C63.2306 49.6551 63.2306 49.6878 63.2306 49.7187ZM61.8377 46.3259C61.8377 46.3259 61.8377 46.3096 61.8377 46.3023C62.3843 46.3023 62.9327 46.2896 63.4793 46.3059C63.8686 46.3187 63.9984 46.1531 64.0094 45.7747C64.0405 44.8087 63.8376 43.9064 63.3257 43.0859C62.5872 41.9016 61.0516 41.8926 60.229 43.0277C59.7793 43.6481 59.5818 44.3266 59.5508 45.0671C59.5032 46.1895 59.6239 46.3096 60.7719 46.3259C61.1266 46.3314 61.483 46.3259 61.8377 46.3259Z" fill="#3EAAD9"/>
<path d="M92.1176 58.1744C90.8745 58.9221 89.5254 58.9512 88.1452 58.7402C87.6151 58.1326 86.7047 58.1125 86.1837 57.4849C86.0192 57.2866 85.8163 57.1557 85.5384 57.2612C84.3319 55.7112 83.8602 53.8811 83.6628 52C83.4745 50.2136 83.5221 48.4089 83.6427 46.6079C83.7323 45.2726 83.8694 43.981 84.341 42.6912C85.4762 39.5785 87.9094 38.5089 90.8654 39.1001C92.942 39.5167 93.9072 40.8647 94.6165 42.7148C95.4209 44.8142 95.271 46.9408 95.2564 49.0857C95.0315 49.2148 94.8067 49.3458 94.5836 49.475C93.6404 49.7115 92.6806 49.5532 91.73 49.586C91.4119 49.5096 91.0957 49.5023 90.7813 49.606C89.774 49.6041 88.7668 49.5896 87.7595 49.6023C87.2312 49.6078 86.957 49.8043 86.9789 50.4301C87.0173 51.5307 87.1654 52.6113 87.3591 53.6883C87.5164 54.5669 88.4322 55.3856 89.3079 55.5038C90.2786 56.0277 91.1761 55.5984 91.2255 54.5869L91.2419 54.5669C91.4686 54.5833 91.5765 54.4887 91.5326 54.254C91.8489 53.5627 91.7666 52.8223 91.7264 52.111C91.6825 51.3288 92.0024 51.0959 92.7153 51.1596C93.0115 51.1869 93.3131 51.1596 93.6129 51.165C95.4794 51.2014 95.207 50.9413 95.2161 52.8387C95.2198 53.5136 95.0534 54.1558 94.7884 54.7743C94.3825 54.9744 94.3588 55.3274 94.4154 55.7094C94.1833 56.5171 93.7628 57.192 92.9621 57.5395C92.7519 57.6305 92.7775 57.8633 92.5947 57.9361C92.3625 57.8688 92.1432 57.8288 92.1212 58.1744H92.1176ZM91.5655 46.2659C91.7026 46.2495 91.8653 46.2204 91.8799 46.0676C91.9366 45.4236 92.1066 44.705 91.8141 44.1575C91.4558 43.4898 91.4083 42.4729 90.3279 42.3728C89.4961 42.0217 88.7412 42.1527 88.1342 42.8076C87.4999 43.4935 87.2513 44.343 87.1544 45.269C87.0721 46.0585 87.3098 46.4369 88.1416 46.3314C88.69 46.5006 89.2366 46.4606 89.7813 46.3096C90.3754 46.295 90.9714 46.2805 91.5655 46.2677V46.2659Z" fill="#01588B"/>
<path d="M95.5068 39.5003C95.7225 39.4785 95.9382 39.433 96.1521 39.4366C96.7444 39.4475 96.9784 39.1783 96.9473 38.5907C96.887 37.4301 96.8705 36.2694 96.8175 35.1088C96.7974 34.6631 96.8632 34.4611 97.4098 34.3156C98.3842 34.0573 99.2836 34.4466 100.22 34.4065C100.596 34.3902 100.455 34.7704 100.457 34.9778C100.466 36.1675 100.468 37.3591 100.439 38.547C100.422 39.1874 100.642 39.5203 101.333 39.4312C101.494 39.4112 101.66 39.4294 101.823 39.4312C102.598 39.4385 102.94 39.8375 102.848 40.6282L102.799 40.6773L102.848 40.7283C102.848 40.7828 102.852 40.8356 102.85 40.8902C102.819 42.4256 102.819 42.4365 101.232 42.5238C100.847 42.5456 100.682 42.6639 100.576 43.0587C100.411 43.6772 100.452 44.2903 100.446 44.9051C100.432 47.1719 100.43 49.4404 100.424 51.7071C100.406 51.7126 100.388 51.7181 100.369 51.7235C100.386 51.749 100.404 51.7744 100.421 51.7999C100.433 52.7441 100.47 53.6901 100.45 54.6342C100.435 55.3346 100.746 55.5893 101.428 55.5802C102.779 55.5638 102.782 55.5838 102.775 56.9355C102.773 57.3667 102.74 57.7978 102.72 58.229C101.971 58.4618 101.209 58.5801 100.419 58.5473C100.168 58.5364 99.8759 58.4054 99.6638 58.6728C98.0752 58.3436 97.2928 57.2848 97.0113 55.7767C97.1411 55.6512 97.1447 55.4874 97.1447 55.3255C97.1447 51.7563 97.1447 48.187 97.1356 44.6177C97.1356 44.4085 97.2581 44.0974 96.8724 44.0447C96.8486 43.6444 96.8248 43.2442 96.8011 42.844C96.876 42.5838 96.77 42.5093 96.525 42.582C95.8614 42.6839 95.4593 42.4565 95.4446 41.7397C95.5854 40.9957 95.4885 40.2462 95.505 39.5003H95.5068Z" fill="#01588B"/>
<path d="M103 60.5738C102.351 61.0032 101.623 60.7903 100.938 60.7921C96.8084 60.8085 92.6788 60.7921 88.5492 60.7921C82.4746 60.7921 76.4018 60.7994 70.3271 60.7976C61.7371 60.7976 53.1471 60.7903 44.557 60.7921C42.5736 60.7921 40.5847 60.7412 38.6067 60.8467C37.4331 60.9086 36.2759 60.9213 35.1115 60.794C34.9488 60.7758 34.7806 60.7994 34.6215 60.7685C34.4351 60.7321 34.2029 60.6557 34.2048 60.4465C34.2084 60.2009 34.4716 60.2118 34.6471 60.2064C35.6599 60.1754 36.6708 60.1409 37.6835 60.1409C44.7983 60.1463 51.9131 60.1645 59.0261 60.1682C71.5227 60.1736 84.0193 60.1718 96.5141 60.1718C98.3476 60.1718 100.181 60.1554 102.013 60.1481C102.393 60.1481 102.799 60.0936 102.998 60.572L103 60.5738Z" fill="#3EAAD9"/>
<path d="M56.2164 61.9911C57.0171 62.1948 57.7867 62.0711 58.5472 62.1184C58.8726 62.1384 59.2034 62.1548 59.4886 61.9383C59.6477 61.8182 59.8688 61.7346 60.0279 61.8219C60.633 62.1566 61.2362 62.2367 61.8907 61.982C62.0406 61.9238 62.2307 62.0202 62.2801 62.1985C62.3258 62.3713 62.1576 62.4004 62.0369 62.4568C61.5708 62.6733 61.3276 63.0225 61.3715 63.5519C61.388 63.7557 61.3002 63.9867 61.1028 64.0031C60.5142 64.0486 60.2125 64.4834 59.8323 64.8217C59.5361 65.0855 59.3808 65.0764 59.2071 64.6398C59.0115 64.1468 58.8707 63.7302 59.0462 63.1808C59.2016 62.6896 59.0133 62.3531 58.3406 62.5077C57.6569 62.6642 56.944 62.6878 56.2456 62.7933C55.9824 62.8334 55.6899 63.0225 55.6424 62.5623C55.5967 62.1057 55.9221 62.0402 56.2182 61.9929L56.2164 61.9911ZM60.5471 62.9934C60.4739 62.7551 60.4557 62.4222 60.0791 62.4641C59.7866 62.4968 59.5745 62.7151 59.5892 63.0207C59.6038 63.3136 59.7957 63.5465 60.1028 63.561C60.4538 63.5774 60.5471 63.3154 60.5471 62.9953V62.9934Z" fill="#3EAAD9"/>
<path d="M96.876 44.0447C97.2617 44.0974 97.1393 44.4085 97.1393 44.6177C97.1484 48.187 97.1484 51.7563 97.1484 55.3255C97.1484 55.4874 97.1447 55.653 97.015 55.7767C96.7517 55.613 96.823 55.3401 96.823 55.1109C96.8139 51.4997 96.8139 47.8886 96.8157 44.2757C96.8157 44.1975 96.8559 44.1211 96.876 44.0428V44.0447Z" fill="#3EAAD9"/>
<path d="M54.0648 62.1275C53.3281 62.4696 53.1599 62.9917 53.3646 63.672C53.4048 63.803 53.4652 63.9595 53.2769 64.0031C53.1562 64.0322 53.0008 64.014 52.8875 63.9613C52.584 63.8194 52.4707 63.5174 52.4414 63.2245C52.3647 62.4568 51.9442 62.2658 51.255 62.4605C51.0832 62.5096 50.8693 62.6697 50.7724 62.3986C50.6829 62.1512 50.8821 62.0002 51.0741 61.8856C51.1417 61.8456 51.2276 61.8292 51.3081 61.8219C52.2349 61.7364 53.1105 62.0366 54.0648 62.1294V62.1275Z" fill="#3EAAD9"/>
<path d="M80.9226 63.3063C80.8604 62.7587 81.003 62.4404 81.6556 62.4295C82.1327 62.4222 82.5989 62.2002 83.0961 62.2657C83.2259 62.2821 83.3904 62.2475 83.4434 62.4076C83.5074 62.5986 83.3557 62.746 83.2204 62.786C82.5952 62.9716 82.1547 63.3391 81.8457 63.9139C81.747 64.0977 81.4893 64.2851 81.215 64.1577C80.8366 63.9812 80.9463 63.6138 80.9226 63.3081V63.3063Z" fill="#3EAAD9"/>
<path d="M31.0696 42.3801C30.5432 42.1764 30.896 41.7197 30.7863 41.3941C30.2123 39.6768 30.0843 37.9049 30.2086 36.113C30.2415 35.6472 30.0021 35.287 29.8704 34.8832C30.3073 34.7686 30.4481 35.1142 30.4426 35.3798C30.3951 37.6174 30.7991 39.8041 31.1592 41.9962C31.1793 42.1163 31.1007 42.2528 31.0696 42.3801Z" fill="#3EAAD9"/>
<path d="M92.825 64.194C92.4905 64.0576 92.0536 64.0612 91.624 64.0158C91.348 63.9867 91.0866 63.8466 91.1323 63.4918C91.1706 63.1935 91.39 63.1098 91.6624 63.0989C92.0134 63.0861 92.3699 63.1389 92.6989 62.9497C92.9146 62.826 93.1705 62.6932 93.3278 63.0025C93.4667 63.2753 93.7793 63.5282 93.6001 63.8811C93.4685 64.1413 93.2053 64.2395 92.825 64.1922V64.194Z" fill="#3EAAD9"/>
<path d="M13.8951 42.4019C13.7689 43.3005 14.3813 43.5207 15.0741 43.7008C15.9443 43.9263 16.8675 43.8809 17.7157 44.2156C16.4415 44.6504 15.2368 44.5922 14.0888 43.8026C13.4801 43.3842 13.3832 42.9458 13.8951 42.4037V42.4019Z" fill="#3EAAD9"/>
<path d="M72.9504 62.0183C73.6725 61.9473 73.9467 62.3185 73.9961 62.9406C74.0546 63.6847 73.6268 64.4815 73.1552 64.516C72.8974 64.5342 72.7566 64.3596 72.6415 64.1722C72.4989 63.9412 72.6378 63.772 72.7822 63.5937C73.3873 62.8478 73.3837 62.846 72.9504 62.0183Z" fill="#3EAAD9"/>
<path d="M12.758 20.2477C13.0359 20.3586 12.9408 20.6097 12.9554 20.8043C13.0505 22.0396 13.6921 22.8182 14.8767 23.2111C15.2423 23.333 15.6482 23.444 15.9059 23.7824C13.7397 23.7569 12.5313 22.4307 12.6099 20.4969C12.6136 20.3823 12.6319 20.2859 12.758 20.2458V20.2477Z" fill="#3EAAD9"/>
<path d="M78.2481 43.0314C78.2152 44.1666 78.0562 45.2926 77.601 46.3314C77.3962 46.7989 77.6083 47.4502 76.9996 47.7395C77.2939 46.1386 77.4657 44.5049 78.2481 43.0314Z" fill="#3EAAD9"/>
<path d="M23.9165 44.2048C24.0481 43.961 24.2839 44.0156 24.4905 44.0156C25.814 44.0101 27.1393 44.012 28.4628 44.0101C28.5999 44.0101 28.7334 44.0174 28.8211 44.1448C28.3806 44.4649 27.876 44.3012 27.408 44.2939C26.2436 44.2776 25.0736 44.4376 23.9165 44.2048Z" fill="#3EAAD9"/>
<path d="M29.9874 21.2992C29.4536 20.9935 29.5779 20.4387 29.7333 20.0912C29.9362 19.6364 30.3092 19.9348 30.5596 20.1931C30.9563 20.6024 31.2269 21.2064 31.969 21.059C31.5029 21.6303 31.247 21.6484 30.8393 21.1136C30.6803 20.9044 30.587 20.566 30.2781 20.6206C29.9289 20.6825 30.0989 21.0754 29.9874 21.301V21.2992Z" fill="#3EAAD9"/>
<path d="M38.4897 63.8593C37.7055 63.1353 37.7183 62.1929 38.4897 61.3798V63.8593Z" fill="#3EAAD9"/>
<path d="M15.2405 36.2039C15.2807 37.4718 15.2624 38.7362 15.1546 40.0005C15.1509 40.0351 15.0193 40.0606 14.948 40.0897C14.9316 38.7853 14.6391 37.4627 15.2405 36.2039Z" fill="#3EAAD9"/>
<path d="M85.5366 57.2629C85.8145 57.1574 86.0174 57.2884 86.1819 57.4867C86.7029 58.1125 87.6133 58.1343 88.1434 58.7419C87.3957 59.0858 86.9351 58.4909 86.4214 58.1725C86.0722 57.956 85.8273 57.5722 85.5366 57.2629Z" fill="#3EAAD9"/>
<path d="M99.6674 58.6728C99.8795 58.4053 100.172 58.5381 100.422 58.5472C101.212 58.5782 101.974 58.4599 102.724 58.2289C102.824 58.5181 102.704 58.7565 102.428 58.7655C101.508 58.7947 100.574 59.0548 99.6674 58.6728Z" fill="#3EAAD9"/>
<path d="M18.3427 30.6536C18.3738 30.8755 18.2458 31.0647 18.0703 31.1011C17.308 31.263 16.5494 31.5886 15.7487 31.2794C16.5768 30.9246 17.4543 30.7718 18.3409 30.6536H18.3427Z" fill="#3EAAD9"/>
<path d="M84.5586 62.766C84.1802 62.7605 83.7762 62.6678 83.8164 62.2912C83.8566 61.9201 84.3063 61.9474 84.6262 61.9419C84.9278 61.9364 85.3263 61.951 85.2989 62.3385C85.2715 62.7333 84.8565 62.7405 84.5567 62.766H84.5586Z" fill="#3EAAD9"/>
<path d="M74.7145 58.3108C75.2282 58.047 75.7784 58.2271 76.3104 58.1998C76.7966 58.1761 77.2829 58.187 77.76 58.0615C77.8331 58.3089 77.6576 58.4727 77.4858 58.4745C76.5608 58.4818 75.6175 58.7055 74.7145 58.3108Z" fill="#3EAAD9"/>
<path d="M80.1347 49.6859C80.0798 49.6332 79.9665 49.5622 79.9756 49.5313C80.3175 48.4998 80.44 47.3974 80.9847 46.4314C80.9774 47.5866 80.6063 48.649 80.1347 49.6859Z" fill="#3EAAD9"/>
<path d="M33.1445 21.7085C34.0146 22.0796 34.4223 22.8801 34.9159 23.5986C33.9945 23.2748 33.5174 22.5381 33.1445 21.7085Z" fill="#3EAAD9"/>
<path d="M71.0858 63.7521C71.296 63.7539 71.519 63.7484 71.5154 64.0195C71.5099 64.4252 71.2357 64.678 70.8865 64.7617C70.6763 64.8127 70.616 64.5452 70.6013 64.3488C70.5758 63.9922 70.7202 63.7739 71.0858 63.7521Z" fill="#3EAAD9"/>
<path d="M48.9115 63.8593C48.8859 64.0867 48.948 64.3978 48.6245 64.356C48.193 64.3014 48.109 63.9193 48.0779 63.5591C48.0578 63.3354 48.098 63.0752 48.396 63.0934C48.8895 63.1244 48.8511 63.5446 48.9115 63.8593Z" fill="#3EAAD9"/>
<path d="M15.2167 32.3253C15.937 32.9347 16.0906 33.8498 15.5568 34.3519C15.5951 33.6515 14.9736 33.0603 15.2167 32.3253Z" fill="#3EAAD9"/>
<path d="M19.966 28.043C19.9989 28.8307 19.5712 29.3837 19.0154 29.8676C18.935 29.0544 19.4889 28.5687 19.966 28.043Z" fill="#3EAAD9"/>
<path d="M91.2218 54.5869C91.1706 55.5984 90.2749 56.0277 89.3042 55.5038C89.4139 55.3346 89.6022 55.351 89.7411 55.3855C90.4888 55.5675 90.7539 54.8962 91.2218 54.5851V54.5869Z" fill="#3EAAD9"/>
<path d="M95.5068 39.5002C95.4903 40.2479 95.5872 40.9974 95.4465 41.7397C95.026 41.2121 95.0626 39.8313 95.5068 39.5002Z" fill="#3EAAD9"/>
<path d="M80.5204 34.703C80.6008 35.2415 80.6027 35.76 80.1365 36.1565C79.9573 35.5926 80.1127 35.1141 80.5204 34.703Z" fill="#3EAAD9"/>
<path d="M71.0968 62.2767C70.8609 62.264 70.6142 62.2804 70.6233 62.033C70.6343 61.7382 70.9213 61.7874 71.1205 61.7764C71.3088 61.7673 71.53 61.791 71.4953 62.0566C71.4624 62.3167 71.2101 62.2294 71.0949 62.2767H71.0968Z" fill="#3EAAD9"/>
<path d="M76.2574 50.6502C76.3579 50.9431 76.2464 51.2887 75.9978 51.276C75.6322 51.2578 75.4183 50.9413 75.528 50.5247C75.7784 50.5247 75.9923 50.7375 76.2574 50.6502Z" fill="#3EAAD9"/>
<path d="M26.0663 34.4193C25.6714 34.8722 25.3204 34.9414 25.048 34.3065C25.4173 34.0791 25.7372 34.2901 26.0663 34.4193Z" fill="#3EAAD9"/>
<path d="M47.1236 62.0838C46.6264 62.3403 46.2681 62.2748 45.7544 62.1529C46.2462 61.8655 46.6045 61.8928 47.1236 62.0838Z" fill="#3EAAD9"/>
<path d="M80.0177 36.4932C80.1328 36.9298 79.8769 37.27 79.716 37.6356C79.3943 37.2536 79.4784 36.9298 80.0177 36.4932Z" fill="#3EAAD9"/>
<path d="M94.41 55.7094C94.3551 55.3273 94.3771 54.9744 94.7829 54.7743C94.9291 55.1927 94.803 55.5038 94.41 55.7094Z" fill="#3EAAD9"/>
<path d="M94.5818 49.4767C94.8067 49.3457 95.0315 49.2166 95.2545 49.0874C95.1997 49.6968 95.0937 49.7587 94.5818 49.4767Z" fill="#3EAAD9"/>
<path d="M40.3598 27.1006C40.6998 27.2479 40.9905 27.4317 40.9466 27.8683C40.5572 27.7573 40.3214 27.5336 40.3598 27.1006Z" fill="#3EAAD9"/>
<path d="M28.216 34.6649C27.9108 34.6776 27.5397 34.9232 27.377 34.432C27.6877 34.4011 28.0607 34.1482 28.216 34.6649Z" fill="#3EAAD9"/>
<path d="M16.3867 24.0134C16.7359 23.9734 17.0192 24.0552 17.1508 24.4191C16.8017 24.4591 16.5238 24.3681 16.3867 24.0134Z" fill="#3EAAD9"/>
<path d="M17.7449 24.9667C18.0521 25.0558 18.2787 25.1977 18.1453 25.5725C17.7431 25.5452 17.6938 25.2887 17.7449 24.9667Z" fill="#3EAAD9"/>
<path d="M44.4126 15.1358C44.2243 14.9393 44.292 14.7119 44.334 14.4882C44.7344 14.6592 44.7435 14.8756 44.4126 15.1358Z" fill="#3EAAD9"/>
<path d="M68.4004 33.2622C68.2578 33.5315 68.0293 33.4114 67.8227 33.3859C67.9233 32.9184 68.1499 33.0348 68.4004 33.2622Z" fill="#3EAAD9"/>
<path d="M79.1311 53.4536C78.9135 53.097 79.0104 52.8314 79.3669 52.6404C79.515 52.9769 79.281 53.2025 79.1311 53.4536Z" fill="#3EAAD9"/>
<path d="M76.6138 49.2185C76.6815 49.4623 76.7528 49.7079 76.4566 49.8643C76.2482 49.586 76.2318 49.3549 76.6138 49.2185Z" fill="#3EAAD9"/>
<path d="M80.7544 33.3622C80.7982 33.5951 80.7653 33.7643 80.4637 33.7188C80.3979 33.4696 80.3687 33.2495 80.7544 33.3622Z" fill="#3EAAD9"/>
<path d="M18.8473 30.1896C18.84 30.5007 18.6827 30.6535 18.3665 30.6353C18.3811 30.3315 18.52 30.1605 18.8473 30.1896Z" fill="#3EAAD9"/>
<path d="M39.8864 26.5894C40.2172 26.5731 40.3744 26.7113 40.3032 27.0515C40.0235 27.0224 39.8845 26.8678 39.8864 26.5894Z" fill="#3EAAD9"/>
<path d="M5.59934 29.9877C5.55364 29.6803 5.70719 29.542 6.00151 29.5238C6.03624 29.824 5.88086 29.9586 5.59934 29.9877Z" fill="#3EAAD9"/>
<path d="M4.72918 30.7226C4.75843 30.4188 4.93758 30.3296 5.21727 30.386C5.15146 30.6371 5.07285 30.8699 4.72918 30.7226Z" fill="#3EAAD9"/>
<path d="M92.1176 58.1743C92.1395 57.8287 92.3589 57.8687 92.5911 57.936C92.5417 58.2271 92.3388 58.2216 92.1176 58.1743Z" fill="#3EAAD9"/>
<path d="M79.7124 37.9849C79.7819 38.1577 79.8477 38.3305 79.6119 38.4378C79.3194 38.2159 79.3687 38.0685 79.7124 37.9849Z" fill="#3EAAD9"/>
<path d="M82.3174 41.5869C82.1967 41.3467 82.1583 41.1412 82.5166 41.092C82.5715 41.3049 82.6245 41.5177 82.3174 41.5869Z" fill="#3EAAD9"/>
<path d="M90.7794 49.6077C91.0939 49.5059 91.412 49.5113 91.7282 49.5877C91.4138 49.7042 91.0975 49.7187 90.7794 49.6077Z" fill="#3EAAD9"/>
<path d="M69.1097 39.151C69.2815 39.2074 69.2577 39.3165 69.1846 39.4348C69.0566 39.4657 68.9927 39.3911 68.9872 39.2856C68.9854 39.242 69.0658 39.1965 69.1078 39.151H69.1097Z" fill="#3EAAD9"/>
<path d="M0.976181 30.6262C1.08038 30.4643 1.16813 30.4697 1.24125 30.6498C1.13705 30.8154 1.05296 30.7572 0.976181 30.6262Z" fill="#3EAAD9"/>
<path d="M24.7427 34.2646C24.5672 34.4647 24.4649 34.3701 24.3881 34.1773C24.5453 34.0481 24.666 34.07 24.7427 34.2646Z" fill="#3EAAD9"/>
<path d="M28.5012 0.156496C28.3714 0.367523 28.2819 0.334777 28.2234 0.111016C28.3458 -0.0581697 28.4372 -0.0308817 28.5012 0.156496Z" fill="#3EAAD9"/>
<path d="M96.5269 42.5821C96.7736 42.5093 96.8797 42.5821 96.8029 42.844C96.6 42.8713 96.5141 42.7785 96.5269 42.5821Z" fill="#3EAAD9"/>
<path d="M31.1263 9.74733C31.0166 9.7546 30.9088 9.73095 30.9051 9.60725C30.9033 9.48172 31.0057 9.45262 31.119 9.46717C31.1208 9.56177 31.1245 9.65455 31.1263 9.74733Z" fill="#3EAAD9"/>
<path d="M13.4545 12.8635C13.5715 12.8563 13.6684 12.9127 13.6556 13.0236C13.6355 13.1946 13.5057 13.191 13.3722 13.1382C13.3997 13.0473 13.4271 12.9545 13.4545 12.8635Z" fill="#3EAAD9"/>
<path d="M81.4801 44.2993C81.3028 44.1101 81.3942 44.0228 81.6026 43.9791C81.7214 44.1465 81.7068 44.2629 81.4801 44.2993Z" fill="#3EAAD9"/>
<path d="M91.5289 54.2539C91.5747 54.4886 91.4668 54.5814 91.2383 54.5668C91.2036 54.3413 91.2657 54.2066 91.5289 54.2539Z" fill="#3EAAD9"/>
<path d="M1.56116 13.4675C1.49535 13.5749 1.41491 13.5894 1.32168 13.5021C1.30157 13.3857 1.32899 13.2892 1.46427 13.3002C1.50083 13.3038 1.53008 13.4093 1.56116 13.4675Z" fill="#3EAAD9"/>
<path d="M3.54277 13.342C3.44589 13.5712 3.35265 13.5676 3.26491 13.3365C3.35997 13.1673 3.4532 13.171 3.54277 13.342Z" fill="#3EAAD9"/>
<path d="M67.7953 34.7503C68.0403 34.7248 68.1317 34.8176 68.0293 35.0559C67.7898 35.0778 67.7295 34.9613 67.7953 34.7503Z" fill="#3EAAD9"/>
<path d="M30.8576 43.0258C30.7863 42.8421 30.8192 42.7129 31.0404 42.682C31.2195 42.9221 31.0605 42.9858 30.8576 43.0258Z" fill="#3EAAD9"/>
<path d="M83.1729 33.1913C83.0303 33.2586 82.8895 33.2604 82.7543 33.1785C82.8987 33.0494 83.0395 33.0512 83.1729 33.1913Z" fill="#3EAAD9"/>
<path d="M4.20087 13.3165C4.10764 13.3129 4.01441 13.3093 3.92118 13.3056C4.0199 13.1983 4.11313 13.2147 4.20087 13.3165Z" fill="#3EAAD9"/>
<path d="M44.3157 29.4801C44.2847 29.4346 44.2883 29.391 44.3267 29.351C44.3377 29.3837 44.3523 29.4146 44.3578 29.4474C44.3578 29.4565 44.3304 29.4692 44.3157 29.4819V29.4801Z" fill="#3EAAD9"/>
<path d="M68.1298 35.4089C68.1591 35.4362 68.1901 35.4635 68.2157 35.4926C68.2176 35.4944 68.1865 35.5254 68.17 35.5436C68.1426 35.5145 68.1134 35.489 68.0914 35.4581C68.0878 35.4526 68.1152 35.4253 68.1298 35.4089Z" fill="#3EAAD9"/>
<path d="M0.0694675 25.7599C0.113341 25.809 0.113341 25.8581 0.0639833 25.9036C0.0438747 25.8654 0.0255942 25.829 0.00548553 25.7908C0.0274222 25.7799 0.0475308 25.769 0.0694675 25.7581V25.7599Z" fill="#3EAAD9"/>
<path d="M0.107858 28.7416L0.111514 28.7761C0.0950617 28.7798 0.0786092 28.7852 0.0621567 28.7907C0.0767811 28.7743 0.0914056 28.7579 0.107858 28.7416Z" fill="#3EAAD9"/>
<path d="M69.2376 33.1586L69.1755 33.1986C69.1755 33.1986 69.106 33.1713 69.1078 33.1713C69.1426 33.0731 69.1846 33.0658 69.2376 33.1586Z" fill="#3EAAD9"/>
<path d="M102.848 40.7282L102.799 40.6773L102.848 40.6282L102.898 40.6773L102.848 40.7282Z" fill="#3EAAD9"/>
<path d="M100.422 51.7999C100.406 51.7745 100.388 51.749 100.371 51.7235C100.39 51.7181 100.408 51.7126 100.426 51.7072L100.457 51.7544L100.422 51.7999Z" fill="#3EAAD9"/>
<path d="M0.0585008 26.4056C0.0585008 26.4566 0.0585008 26.5093 0.0585008 26.5603C0.0383922 26.5221 0.0164555 26.4839 0.00183105 26.4438C0.00183105 26.4384 0.0402202 26.4184 0.0603289 26.4056H0.0585008Z" fill="#3EAAD9"/>
<path d="M82.1474 42.1817C82.1364 42.1508 82.1254 42.1217 82.1145 42.0908C82.1346 42.0871 82.1547 42.0853 82.173 42.0835L82.1931 42.1417L82.1455 42.1817H82.1474Z" fill="#3EAAD9"/>
<path d="M24.9 0.0528161L24.8469 0.0982961L24.7939 0.0546353L24.8451 0.00915527L24.9 0.0528161Z" fill="#3EAAD9"/>
<path d="M42.6741 29.693C42.7601 29.6785 42.8039 29.7076 42.7838 29.7985C42.7034 29.8076 42.6577 29.7822 42.6741 29.693Z" fill="#3EAAD9"/>
<path d="M15.7396 0.0818868C15.6756 0.0873444 15.6116 0.0909828 15.5476 0.0964404C15.6043 -0.00543477 15.6683 -0.0127116 15.7396 0.0818868Z" fill="#3EAAD9"/>
<path d="M84.1436 33.2368L84.0961 33.2514L84.0613 33.2168C84.107 33.1477 84.1418 33.124 84.1436 33.2368Z" fill="#3EAAD9"/>
<path d="M76.9429 47.925C76.9813 47.9723 76.9813 48.0215 76.9465 48.0706C76.8296 48.0251 76.8131 47.976 76.9429 47.925Z" fill="#3EAAD9"/>
<path d="M61.8358 46.326C61.4812 46.326 61.1247 46.3296 60.7701 46.326C59.6221 46.3096 59.5014 46.1895 59.5489 45.0671C59.58 44.3267 59.7756 43.6481 60.2271 43.0277C61.0498 41.8944 62.5872 41.9035 63.3239 43.086C63.8357 43.9082 64.0386 44.8087 64.0076 45.7747C63.9948 46.1531 63.8668 46.3187 63.4774 46.3059C62.9308 46.2896 62.3843 46.3023 61.8358 46.3023C61.8358 46.3096 61.8358 46.3187 61.8358 46.326Z" fill="#F0F5F8"/>
<path d="M88.1397 46.3295C87.308 46.435 87.0703 46.0566 87.1526 45.2671C87.2476 44.3411 87.4981 43.4916 88.1324 42.8057C88.7375 42.149 89.4943 42.0198 90.3261 42.3709C91.3333 43.4825 91.7757 44.7723 91.5655 46.2658C90.9714 46.2804 90.3754 46.2949 89.7813 46.3077C89.2329 46.2367 88.6863 46.2385 88.1416 46.3295H88.1397Z" fill="#F0F5F8"/>
<path d="M91.5637 46.2659C91.7739 44.7723 91.3315 43.4825 90.3242 42.371C91.4046 42.4728 91.454 43.4898 91.8123 44.1556C92.1048 44.7032 91.9348 45.4236 91.8781 46.0658C91.8653 46.2204 91.7026 46.2477 91.5637 46.2641V46.2659Z" fill="#3EAAD9"/>
<path d="M88.1397 46.3295C88.6845 46.2386 89.2329 46.2386 89.7795 46.3077C89.2347 46.4587 88.6882 46.4969 88.1397 46.3295Z" fill="#3EAAD9"/>
<path d="M60.547 62.9934C60.547 63.3136 60.4556 63.5756 60.1028 63.5592C59.7975 63.5446 59.6038 63.3118 59.5891 63.0189C59.5745 62.7133 59.7847 62.495 60.0791 62.4622C60.4538 62.4204 60.4739 62.7533 60.547 62.9916V62.9934Z" fill="#F0F5F8"/>
</g>
<defs>
<clipPath id="clip0_360_3078">
<rect width="103" height="65" fill="white"/>
</clipPath>
</defs>
</svg>
