<svg width="130" height="45" viewBox="0 0 130 45" fill="none" xmlns="http://www.w3.org/2000/svg">
<g clip-path="url(#clip0_34_16074)">
<path d="M26.0512 13.3387C26.8372 14.548 27.42 15.8482 27.9322 17.203C28.206 17.9122 28.2766 18.6851 28.6475 19.3488C28.7093 19.4579 28.727 19.6034 28.7358 19.7307C28.8153 21.5674 28.9478 23.4041 28.7182 25.2317C28.6475 25.8227 28.4444 26.3773 28.153 26.9047C27.8969 27.3684 27.8439 27.9231 27.579 28.3959C26.9608 29.4779 26.6164 30.7144 25.8658 31.7237C25.5125 32.2056 25.124 32.6602 24.7796 33.1421C24.497 33.524 24.0466 33.6513 23.7199 33.9514C22.095 35.4425 20.1169 36.2791 18.1476 37.0974C17.4499 37.3883 16.6286 37.5793 15.8162 37.4975C15.6661 36.7791 15.6131 36.0427 16.0281 35.4244C16.4344 34.8152 16.5315 34.1787 16.4785 33.4877C16.4079 32.4875 15.1892 31.5328 14.4209 31.5237C13.3612 31.5146 12.8402 32.1329 12.3633 32.9239C11.7981 33.8605 12.2132 34.6606 12.7165 35.4335C12.8225 35.588 12.902 35.7244 12.902 35.9154C12.902 36.4336 12.902 36.961 12.9197 37.4793C12.2927 37.5793 11.6833 37.5247 11.0828 37.2792C10.2262 36.9246 9.31664 36.6882 8.49536 36.2791C6.38477 35.2152 4.54794 33.7877 3.1085 31.8328C2.71111 31.2873 2.33138 30.7326 1.92515 30.1871C1.30699 29.3779 1.0244 28.3959 0.750642 27.4139C0.24728 25.659 -0.0529717 23.8951 1.38073e-05 22.0857C0.0441684 20.64 0.220787 19.2124 0.5387 17.794C0.838951 16.4847 1.47478 15.339 2.1371 14.2025C2.30488 13.9206 2.28722 13.5205 2.66695 13.3932C2.76409 13.5569 2.74643 13.7388 2.74643 13.9206C2.74643 17.1848 2.74643 20.4581 2.72877 23.7223C2.72877 24.0133 2.84357 24.1406 3.08201 24.1042C3.8503 23.986 4.61859 24.0406 5.38688 24.0133C5.76661 23.9951 5.91673 23.8223 5.91673 23.4314C5.91673 21.8129 5.97855 20.1853 5.96972 18.5669C5.96972 16.2119 6.14634 13.857 5.89907 11.502C5.87258 11.2292 5.84608 10.9474 5.83725 10.6655C5.83725 10.42 5.96089 10.2563 6.19049 10.2018C6.44659 10.1381 6.47308 10.3654 6.52606 10.52C6.77333 11.2474 7.10891 11.9384 7.44448 12.6204C7.94784 13.6387 8.53068 14.6298 8.98989 15.6664C9.89948 17.7304 11.2065 19.5761 12.0012 21.6947C12.2573 22.3675 12.6989 22.9676 13.0609 23.6041C13.3965 24.186 15.1009 24.2679 15.4718 23.7041C15.772 23.2404 16.0546 22.7494 16.2489 22.2311C16.6816 21.0946 17.2821 20.0489 17.8473 18.9851C18.907 17.003 19.8608 14.9753 20.8851 12.975C21.2295 12.293 21.5651 11.6111 21.9184 10.9292C22.0332 10.711 22.2098 10.4655 22.4659 10.5382C22.722 10.6109 22.5895 10.911 22.5895 11.1019C22.5895 15.239 22.5895 19.3761 22.5718 23.5132C22.5718 23.7951 22.6337 24.0224 22.9427 24.0224C23.7905 24.0406 24.6383 24.0769 25.4861 23.9769C25.7686 23.9405 25.8658 23.8041 25.8658 23.5314C25.8834 22.5948 25.9364 21.6674 25.9453 20.7309C25.9629 18.4032 25.9629 16.0755 25.8658 13.7478C25.8658 13.566 25.8658 13.4296 26.0247 13.3387H26.0512Z" fill="#FF393C"/>
<path d="M26.0512 13.3388C25.8834 13.4297 25.8834 13.5752 25.8922 13.7479C25.9894 16.0756 25.9894 18.4033 25.9717 20.731C25.9717 21.6675 25.9099 22.5949 25.8922 23.5314C25.8922 23.8042 25.7951 23.9406 25.5125 23.977C24.6648 24.077 23.817 24.0406 22.9692 24.0224C22.6601 24.0224 22.5983 23.7951 22.5983 23.5133C22.6071 19.3762 22.616 15.2391 22.616 11.102C22.616 10.9111 22.7484 10.611 22.4923 10.5383C22.2274 10.4564 22.0596 10.711 21.9448 10.9292C21.5916 11.6021 21.256 12.2931 20.9116 12.9751C19.8872 14.9663 18.9335 17.003 17.8738 18.9852C17.3086 20.0399 16.7081 21.0947 16.2754 22.2312C16.0811 22.7495 15.7985 23.2405 15.4983 23.7042C15.1362 24.277 13.4318 24.1952 13.0874 23.6042C12.7253 22.9768 12.2838 22.3767 12.0277 21.6948C11.2241 19.5762 9.92594 17.7213 9.01636 15.6664C8.55715 14.6299 7.97431 13.6388 7.47095 12.6204C7.13537 11.9385 6.7998 11.2475 6.55253 10.5201C6.49955 10.3655 6.47305 10.1291 6.21696 10.2018C5.98735 10.2564 5.85489 10.4201 5.86372 10.6656C5.86372 10.9474 5.89904 11.2202 5.92554 11.5021C6.1728 13.857 5.98735 16.212 5.99618 18.5669C5.99618 20.1854 5.95203 21.813 5.9432 23.4314C5.9432 23.8224 5.79307 24.0043 5.41334 24.0133C4.64505 24.0406 3.87676 23.9952 3.10847 24.1043C2.87004 24.1406 2.75524 24.0133 2.75524 23.7224C2.7729 20.4582 2.7729 17.1849 2.7729 13.9207C2.7729 13.7388 2.79056 13.557 2.69342 13.3933C2.84355 13.2478 2.79939 13.0569 2.79939 12.8841C2.79939 10.3746 2.86121 7.86507 2.79056 5.35554C2.76407 4.3099 2.85238 3.27336 2.78173 2.23681C2.74641 1.80037 2.86121 1.53669 3.39106 1.59125C3.89443 1.6458 4.41545 1.59125 4.92764 1.59125C5.75775 1.59125 6.01385 1.83674 6.34059 2.60961C6.76447 3.61887 7.27667 4.59177 7.71821 5.59195C7.98314 6.19205 8.23924 6.78306 8.60131 7.32861C8.75143 7.55593 8.89273 7.80142 9.17532 7.90144C9.1135 8.47427 9.39609 8.93799 9.65219 9.4017C10.0584 10.1473 10.3587 10.9383 10.7825 11.6748C11.1799 12.384 11.542 13.1296 11.9041 13.857C12.4604 14.9754 13.0079 16.0938 13.6349 17.1758C13.7851 17.4395 13.8734 17.7395 14.0323 18.0032C14.1295 18.1578 14.2178 18.4124 14.4297 18.376C14.624 18.3396 14.6505 18.0941 14.7211 17.9123C14.8359 17.6122 14.9154 17.2849 15.0832 17.0121C15.8073 15.8028 16.3107 14.4844 17.0525 13.2751C17.4322 12.6568 17.759 12.0022 18.0592 11.3384C18.5538 10.2655 19.2072 9.25622 19.5252 8.09238C19.7813 7.99236 19.8431 7.71959 19.9314 7.51956C20.4436 6.40118 21.1589 5.4101 21.7417 4.34627C22.0508 3.77345 22.2274 3.12788 22.457 2.50959C22.7573 1.71854 22.9516 1.58215 23.7817 1.58215C24.3292 1.58215 24.8679 1.58215 25.4154 1.58215C25.7951 1.58215 25.9806 1.69126 25.9806 2.15498C25.9717 5.53739 25.9806 8.9198 25.9806 12.3022C25.9806 12.6477 25.9806 12.9841 26.0865 13.3206L26.0512 13.3388Z" fill="#3602FF"/>
<path d="M45.6382 13.6478C45.6382 10.4837 45.6382 7.31037 45.6382 4.14618C45.6382 3.42787 45.5411 2.70956 45.5764 1.99126C45.5764 1.78213 45.6117 1.62756 45.8502 1.62756C46.5213 1.62756 47.1836 1.56391 47.8548 1.64574C48.3846 1.70939 48.6937 2.00944 48.9321 2.40951C49.4885 3.38241 49.8947 4.42805 50.3363 5.46459C50.5659 6.01014 50.8749 6.52841 51.184 7.03759C52.2526 8.78335 53.0474 10.6746 53.9569 12.5022C54.6369 13.8752 55.3699 15.2208 56.094 16.5665C56.306 16.9484 56.4826 17.3485 56.6239 17.7576C56.7034 17.9941 56.8447 18.185 57.0831 18.2032C57.3304 18.2214 57.3127 17.9395 57.4098 17.7849C58.2046 16.4938 58.6991 15.0299 59.5293 13.7479C59.9885 13.0477 60.2799 12.2385 60.6508 11.4838C61.3837 10.0017 62.0726 8.49239 62.9027 7.05578C63.5032 6.01923 64.0683 4.9645 64.5099 3.84613C64.7572 3.20965 65.1192 2.63682 65.3753 2.00944C65.4901 1.71848 65.6756 1.59119 65.9935 1.59119C66.6646 1.60937 67.3358 1.59119 68.0069 1.59119C68.4926 1.59119 68.6251 1.77304 68.5721 2.26403C68.5368 2.59136 68.5544 2.91869 68.5544 3.24602C68.5544 9.66533 68.5544 16.0846 68.5544 22.5039C68.5544 22.8676 68.5191 23.2313 68.5456 23.5859C68.5721 23.9678 68.316 24.0497 68.0776 24.0133C67.327 23.8951 66.5763 23.9587 65.8257 23.9496C65.4371 23.9496 65.3047 23.786 65.3047 23.4405C65.287 22.6221 65.2782 21.7947 65.2782 20.9764C65.2782 17.6122 65.2782 14.2479 65.2782 10.8837C65.2782 10.7473 65.3577 10.5655 65.181 10.4927C65.0221 10.4291 64.9073 10.5746 64.8278 10.6837C64.6688 10.8928 64.4922 11.0928 64.3951 11.3293C63.7946 12.7113 63.0881 14.0297 62.3816 15.3481C61.4721 17.0393 60.8274 18.876 59.7942 20.4945C59.4233 21.0855 59.1937 21.7583 58.7345 22.2948C58.4077 22.6767 58.3901 23.2313 58.0986 23.6496C57.9573 23.8496 57.8337 23.9587 57.6041 23.9496C57.4805 23.9496 57.348 23.9405 57.2244 23.9496C56.4738 24.0406 55.9086 23.9133 55.5377 23.0859C55.0078 21.9038 54.3455 20.7945 53.8245 19.6034C53.2681 18.3305 52.6676 17.0757 51.9523 15.8755C51.237 14.6753 50.5924 13.4296 49.9477 12.1839C49.7004 11.702 49.5503 11.1656 49.3472 10.6564C49.2942 10.52 49.2236 10.3564 49.047 10.4018C48.9057 10.4382 48.9057 10.62 48.888 10.7291C48.8527 11.0201 48.835 11.3202 48.835 11.6111C48.835 15.3845 48.8438 19.167 48.8438 22.9404C48.8438 24.0769 48.941 23.9224 47.8636 23.9405C47.2719 23.9587 46.6803 23.9133 46.0886 23.9405C45.7442 23.9496 45.6117 23.8496 45.6206 23.4768C45.6382 21.0764 45.6382 18.6851 45.647 16.2847C45.647 15.4027 45.647 14.5116 45.647 13.6297L45.6382 13.6478Z" fill="#3602FF"/>
<path d="M110.643 16.5392C109.018 16.5029 107.19 16.5847 105.371 16.4847C104.664 16.4483 104.532 16.6302 104.629 17.3485C104.841 18.8487 105.777 19.758 106.889 20.649C108.037 21.5674 109.256 21.4674 110.501 21.2855C111.817 21.0946 112.762 20.249 113.486 19.1488C113.672 18.876 113.822 18.776 114.193 18.776C114.961 18.7942 115.667 19.076 116.418 19.1306C116.621 19.1488 116.807 19.2397 116.683 19.4579C116.18 20.3035 115.809 21.2401 115.146 21.9856C114.581 22.6312 113.892 23.0677 113.168 23.4768C111.252 24.5497 109.203 24.6316 107.119 24.2042C106.607 24.0951 106.139 23.8041 105.644 23.6041C104.947 23.3222 104.452 22.7676 103.887 22.3039C103.304 21.822 103.022 21.1219 102.58 20.5399C101.918 19.6671 101.706 18.576 101.494 17.5485C101.308 16.6847 101.273 15.7573 101.361 14.8571C101.503 13.4387 101.882 12.0839 102.598 10.8382C103.198 9.8017 104.072 9.04702 104.964 8.28325C105.609 7.72861 106.377 7.42855 107.119 7.27398C108.046 7.07395 109.027 6.96484 110.016 7.04667C111.535 7.16487 112.85 7.77407 114.104 8.59239C114.643 8.947 114.926 9.54711 115.349 10.0108C116.127 10.8655 116.409 11.9839 116.842 13.0386C117.248 14.0388 117.133 15.0117 117.125 16.021C117.125 16.4483 116.93 16.5574 116.577 16.5574C115.517 16.5574 114.466 16.5574 113.407 16.5574C112.559 16.5574 111.711 16.5574 110.66 16.5574L110.643 16.5392ZM109.124 14.1843C110.422 14.1843 111.72 14.1843 113.018 14.1752C113.592 14.1752 113.76 13.9842 113.627 13.4205C113.327 12.1657 112.674 11.0928 111.517 10.5837C109.556 9.72896 107.428 9.96536 105.786 11.5929C105.212 12.1657 104.885 12.875 104.726 13.6751C104.655 14.0388 104.797 14.2025 105.194 14.1934C106.51 14.1752 107.817 14.1934 109.133 14.1934L109.124 14.1843Z" fill="#3602FF"/>
<path d="M78.1095 24.3498C76.9085 24.4771 75.7781 24.1315 74.7008 23.686C74.0384 23.4132 73.4556 22.9222 72.8551 22.4949C71.8749 21.7948 71.3715 20.7037 70.7798 19.6944C69.7908 18.0305 69.7554 16.1847 69.8702 14.3298C69.9056 13.757 69.9762 13.1478 70.3295 12.6204C70.5767 12.2476 70.665 11.7748 70.8858 11.3839C71.6718 10.02 72.6785 8.82886 74.0208 8.0469C74.9745 7.49226 76.0519 7.14675 77.1823 7.10128C78.2685 7.05582 79.3547 7.07401 80.4144 7.31041C81.2886 7.50135 82.0746 7.94689 82.834 8.4197C83.2403 8.67429 83.7171 8.84704 84.0174 9.28348C84.5737 10.1018 85.2449 10.8201 85.7306 11.7203C86.7461 13.6024 86.7903 15.5846 86.4371 17.5758C86.1545 19.1398 85.3862 20.5218 84.3176 21.7038C83.3374 22.7949 82.1187 23.4678 80.7588 23.9497C79.8845 24.2588 79.0014 24.3043 78.1095 24.3225V24.3498ZM73.0935 15.7937C73.0935 15.8846 73.0759 16.0938 73.0935 16.3029C73.1995 17.3303 73.2878 18.3942 74.0561 19.1398C74.6831 19.749 75.2924 20.3672 76.0696 20.8401C77.2971 21.5765 78.5775 21.5493 79.7609 21.1401C81.8803 20.4036 83.0901 18.6851 83.461 16.4575C83.779 14.5935 83.2579 12.9023 81.9068 11.5748C80.644 10.3473 79.0632 9.9927 77.3677 10.1745C76.5111 10.2655 75.6898 10.6019 75.0452 11.1656C73.7205 12.3295 73.0052 13.8297 73.0935 15.7937Z" fill="#3602FF"/>
<path d="M123.447 14.8117C123.465 15.921 123.386 17.4303 123.527 18.9397C123.606 19.8217 123.986 20.4945 124.816 20.84C125.178 20.9946 125.487 21.231 125.902 21.2765C126.635 21.3583 127.139 20.8673 127.739 20.6218C128.093 20.4854 128.516 20.4309 128.64 20.6945C128.79 20.9946 129.011 21.2946 129.064 21.6583C129.09 21.8311 129.135 22.0129 129.188 22.1857C129.444 23.1131 129.347 23.3314 128.516 23.7314C127.289 24.3224 126 24.5679 124.648 24.3588C123.439 24.177 122.441 23.6405 121.619 22.6676C121.045 21.9948 120.595 21.3128 120.577 20.4309C120.569 19.9126 120.533 19.458 120.154 19.067C120.083 18.9942 120.101 18.8215 120.101 18.6942C120.101 16.2028 120.101 13.7024 120.092 11.2111C120.092 11.1929 120.092 11.1747 120.092 11.1656C120.098 10.5716 119.809 10.2806 119.226 10.2927C118.679 10.2927 118.14 10.2927 117.593 10.3109C117.257 10.32 117.107 10.22 117.116 9.829C117.133 9.17434 117.089 8.51968 117.063 7.86502C117.045 7.59225 117.133 7.45586 117.416 7.39221C118.131 7.21945 118.855 7.32856 119.571 7.32856C119.995 7.32856 120.118 7.21945 120.109 6.77392C120.083 5.12818 120.092 3.49153 120.092 1.84579C120.092 1.31842 120.339 0.963815 120.834 0.818335C121.337 0.672855 121.796 0.381895 122.335 0.354618C122.423 0.354618 122.538 0.300063 122.582 0.236415C122.767 -0.0363598 123.032 -0.0272673 123.271 0.0454727C123.545 0.127305 123.403 0.418265 123.412 0.600115C123.43 2.61865 123.439 4.63718 123.447 6.65572C123.447 7.21945 123.58 7.37403 124.154 7.34675C125.47 7.2831 126.777 7.32856 128.093 7.31947C128.569 7.31947 129.055 7.34675 129.532 7.33766C129.815 7.33766 129.938 7.42858 129.965 7.71954C130.035 8.4924 129.991 9.26527 129.974 10.029C129.974 10.2745 129.841 10.3109 129.629 10.3109C128.543 10.3109 127.448 10.3109 126.362 10.3109C125.558 10.3109 124.763 10.3473 123.96 10.3291C123.571 10.3291 123.43 10.4291 123.439 10.8565C123.465 12.0385 123.447 13.2205 123.447 14.8026V14.8117Z" fill="#3602FF"/>
<path d="M93.9875 23.9679C93.5018 23.9952 93.0073 23.877 92.5127 24.0315C92.3714 24.077 92.1418 24.0952 92.1065 23.8224C92.0535 23.3223 91.718 22.9222 91.6031 22.4494C91.3206 21.3674 90.6759 20.4582 90.3227 19.4216C89.8016 17.8759 89.0775 16.4302 88.5565 14.8845C87.9295 13.0296 87.1524 11.2202 86.3841 9.41988C86.1633 8.89252 85.7571 8.44698 85.6246 7.85597C85.5716 7.62866 85.5716 7.4559 85.8366 7.41953C86.7108 7.28314 87.5851 7.31042 88.4682 7.35588C88.9539 7.38316 89.0863 7.75595 89.2541 8.08328C89.8723 9.31077 90.4198 10.5655 90.7024 11.9294C90.7642 12.2476 90.985 12.5295 91.1439 12.8205C91.7798 13.9479 92.1065 15.2118 92.601 16.3938C92.9808 17.294 93.387 18.1851 93.6343 19.1307C93.6696 19.2761 93.7756 19.4216 93.9168 19.4398C94.067 19.4671 94.1641 19.3216 94.2436 19.1943C94.5968 18.6397 94.7381 17.9941 94.9766 17.394C95.7272 15.5391 96.4072 13.6479 97.1048 11.7748C97.3962 10.9838 97.723 10.2109 98.1027 9.45625C98.3235 9.01981 98.4559 8.547 98.5972 8.07419C98.7474 7.55592 99.0829 7.29224 99.6216 7.29224C100.416 7.29224 101.22 7.30133 102.015 7.40135C102.236 7.42862 102.306 7.51955 102.253 7.75595C102.165 8.16512 101.953 8.52882 101.759 8.86524C101.282 9.71084 101.114 10.6746 100.673 11.5384C100.151 12.5659 99.7806 13.6661 99.392 14.739C98.9063 16.0574 98.3588 17.3485 97.7848 18.6124C97.096 20.1127 96.5396 21.6584 95.9303 23.1768C95.6919 23.7588 95.3386 24.0406 94.7116 23.9497C94.4732 23.9133 94.2348 23.9497 93.9963 23.9497L93.9875 23.9679Z" fill="#3602FF"/>
<path d="M12.8932 37.4702C12.8932 36.9519 12.8755 36.4246 12.8755 35.9063C12.8755 35.7154 12.796 35.5881 12.69 35.4244C12.1867 34.6515 11.7628 33.8514 12.3368 32.9149C12.8137 32.1238 13.3435 31.5055 14.3944 31.5146C15.1627 31.5146 16.3814 32.4784 16.452 33.4786C16.4962 34.1696 16.4079 34.8061 16.0016 35.4153C15.5866 36.0336 15.6396 36.7792 15.7897 37.4884C15.7897 37.7521 15.7897 38.0158 15.772 38.2794C15.6219 39.7979 16.9201 40.8253 17.9268 41.0436C18.4743 41.1618 19.119 41.0708 19.534 40.4707C19.9137 39.9252 20.4259 39.4887 20.5231 38.7613C20.5496 38.5431 20.894 38.5249 21.0882 38.5431C21.7771 38.5886 22.4482 38.7795 23.0929 39.025C23.4638 39.1614 23.3136 39.616 23.243 39.8797C22.9692 41.0163 22.4835 42.071 21.5651 42.8075C21.2384 43.0712 20.8233 43.253 20.4436 43.4531C19.9491 43.7168 19.4634 43.9804 19.0571 44.3896C18.7039 44.7442 17.3881 44.5351 17.0172 44.1714C16.6993 43.8531 16.3107 43.6077 15.8957 43.4531C15.4806 43.2985 15.1009 43.1439 14.836 42.753C14.5975 42.3983 14.2443 42.3983 13.9529 42.6075C13.2287 43.1439 12.3898 43.5531 11.8511 44.3441C11.754 44.4896 11.5773 44.4987 11.4184 44.4987C10.8709 44.5078 10.3322 44.5169 9.78467 44.526C9.59922 44.526 9.40494 44.4805 9.3078 44.335C8.90158 43.7077 8.21276 43.5167 7.62992 43.1712C6.75566 42.6438 6.19931 41.871 5.79309 40.9526C5.63413 40.598 5.51933 40.2252 5.36921 39.8706C5.21025 39.4797 5.2809 39.1887 5.67829 38.9978C6.30528 38.6977 6.98527 38.6068 7.66525 38.5795C7.8242 38.5795 8.02731 38.5795 8.03615 38.7886C8.07147 39.8343 8.87508 40.2707 9.55506 40.7799C10.1997 41.2709 10.968 41.189 11.595 40.6526C12.4251 39.9525 12.8755 39.0523 12.9991 37.9703C13.0168 37.8066 13.0344 37.6066 12.8755 37.4702H12.8932Z" fill="#3602FF"/>
<path d="M19.4899 8.1196C19.1808 9.28344 18.5185 10.2927 18.0239 11.3656C17.7148 12.0294 17.3969 12.684 17.0172 13.3023C16.2842 14.5025 15.772 15.83 15.0479 17.0393C14.8889 17.3121 14.8006 17.6303 14.6858 17.9395C14.624 18.1213 14.5887 18.3668 14.3944 18.4032C14.1825 18.4396 14.0942 18.185 13.997 18.0304C13.8381 17.7667 13.7498 17.4667 13.5996 17.203C12.9815 16.121 12.4251 15.0026 11.8688 13.8842C11.5067 13.1477 11.1535 12.4113 10.7472 11.702C10.3322 10.9655 10.0231 10.1654 9.61688 9.42891C9.36079 8.9561 9.06937 8.50148 9.14001 7.92865C11.3566 7.11033 13.6614 6.95576 15.984 7.1467C16.7523 7.21035 17.5206 7.40129 18.2712 7.67406C18.6774 7.81954 19.1278 7.84682 19.481 8.14687L19.4899 8.1196Z" fill="#FF393C"/>
</g>
<defs>
<clipPath id="clip0_34_16074">
<rect width="130" height="44.5714" fill="white"/>
</clipPath>
</defs>
</svg>
