<svg width="93" height="66" viewBox="0 0 93 66" fill="none" xmlns="http://www.w3.org/2000/svg">
<g clip-path="url(#clip0_34_16085)">
<path d="M92.9752 3.08868C93.0331 3.867 93 4.87471 92.6772 5.83327C92.495 6.374 92.3791 6.98846 91.7417 7.25063C91.6755 7.27521 91.6341 7.37352 91.5927 7.43906C90.9635 8.4222 89.9618 8.9875 89.0429 9.65112C88.2234 10.241 87.4038 10.8227 86.5842 11.4044C85.6819 12.0516 84.7795 12.6988 83.8689 13.3461C83.455 13.641 83.041 13.9278 82.6437 14.2391C82.1884 14.5914 82.0476 15.1485 81.7993 15.6319C81.5426 16.1234 81.2032 16.5577 80.9218 17.0246C80.5161 17.7128 80.0194 18.3355 79.6303 19.0401C79.0177 20.1543 78.4879 21.3013 77.8587 22.3991C77.6352 22.7924 77.3455 23.1447 77.1137 23.5215C76.7494 24.1114 76.3438 24.6849 76.0127 25.2994C75.7146 25.8565 75.2593 26.3235 75.0855 26.9379C74.9116 27.5442 74.5805 28.0603 74.2493 28.5765C73.9017 29.1254 73.5788 29.1008 73.2642 28.5273C72.8586 27.7818 72.2625 27.1755 71.7906 26.4791C71.0787 25.4386 70.2757 24.4555 69.5141 23.456C68.827 22.5548 68.1812 21.6208 67.4859 20.736C66.7905 19.843 66.1779 18.8762 65.3335 18.0979C65.2258 17.9914 65.1513 17.8603 65.2672 17.7374C65.6232 17.3769 65.648 16.869 65.8633 16.4348C66.5504 15.0502 67.163 13.6328 67.8087 12.2237C67.9246 11.9615 68.0074 11.6747 68.1812 11.4535C68.6117 10.9046 68.2392 10.413 68.0653 9.96244C67.7508 9.15136 67.5438 8.3075 67.2706 7.48822C66.9974 6.66894 66.7574 5.84147 66.4842 5.03038C66.2772 4.40772 66.062 3.77688 65.8136 3.17881C65.6563 2.78555 65.5653 2.33495 65.2424 1.99085C64.9361 1.65494 65.0851 1.17157 65.5156 1.0241C66.6828 0.630844 67.8418 0.671808 68.9843 1.15518C69.9197 1.55663 70.8717 1.94988 71.6416 2.60531C72.2956 3.16242 72.9082 3.00676 73.5871 2.83471C74.2742 2.66266 74.9696 2.53157 75.6484 2.33495C76.9729 1.94169 78.3306 1.71229 79.6883 1.46651C80.4168 1.33542 81.1784 1.44193 81.8407 1.74506C82.8341 2.20386 83.753 2.19567 84.7878 1.82699C86.0627 1.37639 87.4038 1.11422 88.7201 0.770121C89.6059 0.540723 90.4916 0.303132 91.3857 0.0655403C91.7417 -0.0245805 92.1059 -0.00819492 92.4619 0.0409619C92.7599 0.0819259 92.8344 0.368674 92.8924 0.622651C93.0497 1.3682 92.9917 2.12193 92.9917 3.08868H92.9752Z" fill="#FF282E"/>
<path d="M71.9562 29.0025C71.8817 29.0845 71.7741 29.0927 71.6582 29.0927C66.9726 29.1009 62.2953 29.109 57.6097 29.1336C57.0964 29.1336 56.848 28.7977 56.5914 28.4618C55.9954 27.6917 55.3248 26.9789 54.7205 26.217C54.2155 25.5698 53.694 24.9307 53.131 24.3326C52.8744 24.0623 52.4688 24.1196 52.1211 24.0787C50.9207 23.9476 49.7038 23.882 48.5365 23.6281C47.5348 23.415 46.6821 22.7842 45.8874 22.137C45.4486 21.7847 45.043 21.375 44.6208 20.9982C43.8675 20.3182 43.9668 19.4825 44.3724 18.737C45.2582 17.0738 46.4338 15.5745 47.3692 13.9442C47.957 12.9201 48.6358 11.9697 49.3312 11.0275C49.861 10.323 50.5316 9.72488 51.3263 9.29066C51.674 9.09403 52.0466 8.96295 52.4605 8.94656C52.8082 8.93017 52.8744 8.70078 52.9158 8.36487C53.0482 7.33258 52.8744 6.26751 53.189 5.2598C53.2552 5.05498 53.3628 4.98124 53.5946 5.03859C53.8347 5.10414 54.0417 5.23522 54.1658 5.40727C55.2089 6.8492 56.3927 8.19282 57.3613 9.6921C57.8663 10.4704 58.57 11.1258 59.0832 11.9042C60.0766 13.3871 61.2273 14.7634 62.3118 16.1808C63.1811 17.336 64.1165 18.4502 64.9361 19.6382C66.1199 21.3587 67.5107 22.9235 68.6697 24.6685C69.1498 25.3895 69.721 26.0531 70.2922 26.7249C70.9048 27.4377 71.4098 28.2406 71.9728 29.0107L71.9562 29.0025Z" fill="#FF282E"/>
<path d="M4.85945 32.2715C6.15916 32.2715 7.4506 32.2715 8.75032 32.2715C9.80168 32.2715 10.7951 32.5337 11.7885 32.8696C12.6991 33.1727 13.5187 33.6315 14.1147 34.3525C14.7273 35.098 15.34 35.8763 15.5883 36.8349C15.7042 37.2691 15.7373 37.7279 15.7539 38.1703C15.7787 38.6947 15.7456 39.219 15.7539 39.7433C15.7539 40.325 15.6794 40.8739 15.3979 41.4065C14.8267 42.4879 14.1561 43.4711 13.1131 44.1511C12.7488 44.3887 12.2852 44.487 11.9292 44.7327C10.9772 45.4046 9.9093 45.4291 8.79999 45.4128C7.10291 45.3882 5.39755 45.4128 3.70047 45.4128C3.44384 45.4128 3.33622 45.4619 3.34449 45.7568C3.36933 47.379 3.31138 49.0094 3.38589 50.6316C3.39417 50.8118 3.33622 50.8855 3.16237 50.8937C2.24346 50.9183 1.32455 50.9593 0.405648 50.9019C0.0827887 50.8855 -0.0248311 50.8118 0.0248396 50.4349C0.355977 47.5757 0.223522 44.7082 0.231801 41.8407C0.240079 39.7351 0.206965 37.6296 0.248357 35.5158C0.264914 34.5983 -0.0662233 33.7134 0.00828268 32.7876C0.033118 32.4517 0.0413964 32.2715 0.471875 32.2797C1.93716 32.3043 3.39417 32.2879 4.85945 32.2879C4.85945 32.2879 4.85945 32.2715 4.85945 32.2633V32.2715ZM6.59792 42.0947C6.59792 42.0947 6.59792 42.0947 6.59792 42.1029C7.3347 42.1029 8.07976 42.0619 8.80827 42.1111C9.49538 42.152 10.0997 41.9718 10.6544 41.6195C11.6643 40.9886 12.3432 40.153 12.31 38.8831C12.3018 38.5062 12.07 38.2522 11.9624 37.9491C11.4243 36.4171 10.406 35.7289 8.90761 35.7043C7.17741 35.6797 5.4555 35.6879 3.7253 35.6633C3.42728 35.6633 3.33622 35.7616 3.33622 36.0402C3.33622 37.9245 3.33622 39.8089 3.33622 41.6932C3.33622 41.9636 3.419 42.0865 3.71702 42.0865C4.67732 42.0701 5.63762 42.0865 6.59792 42.0865V42.0947Z" fill="#01909D"/>
<path d="M46.3924 39.3664C46.9222 38.5963 47.601 38.1539 48.3461 37.8343C49.3064 37.4247 50.3164 37.3264 51.376 37.4575C52.4356 37.5886 53.3877 37.9081 54.2652 38.4734C55.5897 39.3336 56.5169 40.497 56.9722 42.0127C57.262 42.9467 57.3282 43.9052 57.262 44.8638C57.1626 46.3385 56.8067 47.7558 55.7967 48.8946C54.8447 49.9761 53.6112 50.6315 52.179 50.8609C51.5498 50.9674 50.9041 51.0329 50.2667 51.0411C48.9007 51.0657 47.6755 50.6479 46.6325 49.7385C46.5414 49.6648 46.4752 49.5746 46.351 49.6238C46.2268 49.6729 46.2848 49.7876 46.2848 49.8778C46.2848 51.8195 46.2848 53.7612 46.2848 55.7028C46.2848 56.26 46.2848 56.2436 45.7384 56.2518C44.9602 56.2518 44.182 56.26 43.4039 56.3173C42.9568 56.3501 42.9403 56.1289 42.9485 55.8012C43.0313 52.2455 42.9817 48.698 42.9899 45.1423C42.9899 43.2826 42.9817 41.4228 42.9982 39.563C42.9982 39.1944 42.8244 38.8748 42.8409 38.5225C42.8575 38.0392 42.8989 38.0392 43.3956 37.9736C43.8592 37.9163 44.3145 37.7852 44.7864 37.7688C45.1754 37.7524 45.5645 37.7442 45.9536 37.7033C46.2185 37.6787 46.293 37.777 46.293 38.0228C46.293 38.4324 46.2268 38.8421 46.3758 39.3418L46.3924 39.3664ZM50.366 40.6691C48.8925 40.4888 47.8494 41.136 47.1126 42.3404C46.8974 42.6927 46.798 43.1105 46.6821 43.5038C46.5083 44.0855 46.4338 44.7081 46.6738 45.2734C47.2368 46.5843 48.1143 47.5674 49.6375 47.8296C50.9786 48.0672 52.1376 47.6247 52.9903 46.699C53.8099 45.8141 54.2569 44.6917 53.8595 43.3973C53.7105 42.9139 53.6029 42.3895 53.1973 42.111C52.7337 41.7915 52.535 41.136 51.8727 41.0787C51.8479 41.0787 51.823 41.0459 51.8148 41.0213C51.7154 40.71 51.4505 40.7264 51.2021 40.71C50.9207 40.6936 50.6475 40.6854 50.366 40.6691Z" fill="#01909D"/>
<path d="M23.5191 37.3673C24.3552 37.3591 25.1085 37.3346 25.8122 37.5148C26.8884 37.7852 27.8321 38.3341 28.66 39.096C29.5292 39.8907 29.968 40.9066 30.3239 41.9717C30.4481 42.3486 30.415 42.7582 30.4481 43.1514C30.5061 43.7659 30.4729 44.3886 30.4647 45.0112C30.4647 45.2734 30.4067 45.3963 30.0425 45.3717C29.3554 45.3225 28.6517 45.3553 27.9563 45.4209C26.2923 45.5765 24.6201 45.5192 22.9478 45.5028C22.2111 45.5028 21.4743 45.4618 20.7375 45.429C20.4726 45.4209 20.3733 45.4372 20.3981 45.7813C20.4726 46.6088 20.9693 47.0676 21.6233 47.4772C22.8071 48.2064 24.0986 48.1491 25.3734 47.9442C26.0523 47.8377 26.7228 47.5428 27.3023 47.125C27.5258 46.9611 27.6748 46.9857 27.8735 47.1823C28.3785 47.7066 28.8918 48.231 29.463 48.698C29.7196 48.911 29.6865 49.2141 29.3802 49.4189C28.5524 49.9679 27.6666 50.4185 26.7063 50.7134C26.0523 50.91 25.3734 50.9428 24.7112 51.0575C22.6167 51.4262 20.7706 50.8035 19.0404 49.6565C18.0056 48.9683 17.5586 47.9442 17.2357 46.8382C16.946 45.8469 16.7639 44.831 16.8218 43.7905C16.9211 42.1683 17.3268 40.6445 18.494 39.4483C19.2639 38.6618 20.1663 38.0719 21.2425 37.695C22.0289 37.4247 22.8071 37.4083 23.5025 37.3673H23.5191ZM23.8005 40.3167C22.8651 40.2676 22.0124 40.5052 21.3087 41.177C21.019 41.4555 20.7375 41.7423 20.605 42.1273C20.4478 42.5861 20.5388 42.7008 21.019 42.6927C22.8733 42.6927 24.7194 42.6927 26.5738 42.6681C26.7477 42.6681 26.9794 42.8729 27.0788 42.6517C27.1533 42.4796 27.1119 42.242 27.0788 42.0454C27.0622 41.9143 26.996 41.7833 26.9215 41.6686C26.4579 40.9722 25.7211 40.6526 24.9678 40.4069C24.6118 40.2922 24.1979 40.2758 23.7922 40.3167H23.8005Z" fill="#01909D"/>
<path d="M78.9018 44.2739C78.9018 46.3139 78.9018 48.3539 78.9018 50.3939C78.9018 50.6889 78.8356 50.82 78.5127 50.8118C77.6518 50.7954 76.7825 50.8036 75.9216 50.8118C75.665 50.8118 75.5822 50.7135 75.6236 50.4595C75.6567 50.2465 75.6401 50.0171 75.6236 49.8041C75.5905 49.4354 75.4663 49.3698 75.1848 49.5992C74.655 50.0416 74.0175 50.3038 73.4381 50.6561C73.198 50.8036 72.8089 50.82 72.486 50.8691C71.741 50.9674 70.9794 51.0412 70.2343 50.9429C69.6879 50.8691 69.1747 50.6397 68.678 50.3939C67.6763 49.8942 67.0388 49.0667 66.509 48.1163C66.2772 47.7067 66.1282 47.3134 66.0537 46.871C65.9957 46.5269 65.6729 46.2893 65.7226 45.8879C66.0289 43.299 65.7805 40.7019 65.8384 38.1129C65.8384 37.8016 65.9626 37.6951 66.2524 37.6869C67.1464 37.6623 68.0322 37.6869 68.9263 37.7443C69.0919 37.7524 69.125 37.8262 69.125 37.9818C69.1167 38.6373 69.1167 39.2927 69.1167 39.9563C69.1167 41.6194 69.0588 43.2908 69.1415 44.9539C69.2161 46.4942 70.1515 47.6657 71.8072 47.9115C73.5126 48.1655 75.4332 46.7481 75.4746 45.1014C75.5159 43.2826 75.4828 41.4638 75.4911 39.645C75.4911 39.1125 75.458 38.5717 75.5573 38.0392C75.5987 37.818 75.6815 37.7279 75.8968 37.7115C76.8405 37.6296 77.7925 37.6869 78.7363 37.7524C79.0095 37.7688 78.9184 37.9982 78.9184 38.1375C78.9184 39.6368 78.9184 41.1443 78.9184 42.6435C78.9184 43.1925 78.9184 43.7496 78.9184 44.2985C78.9184 44.2985 78.9101 44.2985 78.9018 44.2985V44.2739Z" fill="#01909D"/>
<path d="M86.7498 51.2788C85.2928 51.2132 83.902 50.9265 82.6023 50.2055C82.1304 49.9433 81.7082 49.632 81.2694 49.3371C80.8886 49.0749 80.8141 48.6161 81.1453 48.3048C81.6254 47.8624 81.9731 47.3216 82.3539 46.8055C82.5609 46.5269 82.743 46.5925 82.9417 46.7563C83.8523 47.5101 84.9616 47.8542 86.0627 48.1737C87.172 48.4932 88.2068 48.2147 89.1588 47.5756C89.3244 47.4609 89.3078 47.3135 89.3409 47.1906C89.5644 46.3385 89.3078 46.1337 88.4882 45.8551C87.5197 45.5192 86.5014 45.5438 85.5246 45.2489C84.8126 45.0277 84.109 44.7983 83.4301 44.4951C82.2215 43.9544 81.6337 43.0204 81.5675 41.7178C81.5095 40.6691 81.6585 39.6941 82.4284 38.9158C83.2066 38.1293 84.1338 37.6296 85.2597 37.4739C86.3027 37.3264 87.3541 37.3838 88.3972 37.3838C89.5479 37.3838 90.4751 37.9819 91.4354 38.498C91.4436 38.498 91.4519 38.5144 91.4685 38.5226C92.2632 39.0633 92.2549 39.4402 91.4354 40.0301C91.1208 40.2595 90.8145 40.4888 90.591 40.8166C90.4088 41.0869 90.0943 41.0951 89.7962 40.8657C89.2333 40.4315 88.5876 40.2431 87.8756 40.1857C87.3541 40.1448 86.8243 40.0956 86.3027 40.1202C85.3424 40.1693 84.8375 40.6199 84.8623 41.4228C84.8623 41.7424 85.003 41.9636 85.301 42.152C86.0296 42.6272 86.8408 42.6845 87.6521 42.7501C88.8442 42.8484 89.9949 43.086 91.038 43.6759C92.0811 44.2657 92.793 45.1096 92.7516 46.3959C92.7516 46.5843 92.7682 46.7809 92.7682 46.9775C92.8344 48.5997 91.9817 49.6402 90.6075 50.3776C89.8211 50.8036 88.9518 50.9183 88.1074 51.1313C87.6604 51.246 87.2134 51.3033 86.7498 51.2788Z" fill="#01909D"/>
<path d="M37.0709 43.643C37.1205 44.7736 37.0212 45.7814 37.1454 46.7809C37.2116 47.3462 37.5013 47.5018 37.9898 47.7476C38.5941 48.0508 39.0991 47.8541 39.662 47.7149C40.2829 47.5592 40.3077 47.6165 40.4485 48.2474C40.5561 48.7553 40.7548 49.2387 41.0031 49.6975C41.0859 49.8614 41.1439 50.0252 41.1687 50.1973C41.1852 50.3529 41.1439 50.4676 40.9617 50.4922C39.9518 50.6397 38.9749 51.0248 37.9235 50.9592C36.8225 50.8937 35.8291 50.6397 35.0095 49.8532C34.695 49.55 34.281 49.3207 34.1403 48.8782C33.9913 48.3867 33.776 47.9033 33.7926 47.379C33.8423 45.2816 33.6933 43.1924 33.7098 41.1033C33.7098 40.5625 33.2793 40.6445 32.973 40.6117C32.5426 40.5707 32.1121 40.5871 31.6816 40.6117C31.3008 40.6363 31.2014 40.4806 31.2097 40.1283C31.2346 39.4401 31.2346 38.7519 31.218 38.0637C31.218 37.7934 31.3008 37.7033 31.574 37.7115C32.1038 37.7278 32.6336 37.7278 33.1634 37.7115C33.7347 37.6869 33.7347 37.6787 33.7347 37.1216C33.7347 36.3678 33.7347 35.6059 33.7347 34.8522C33.7347 34.5736 33.8423 34.4753 34.1155 34.3688C34.993 34.0329 35.9036 34.1885 36.7977 34.082C37.0543 34.0575 37.0626 34.1967 37.0626 34.3852C37.0626 35.2782 37.0791 36.1794 37.0874 37.0724C37.0874 37.6213 37.1868 37.7278 37.7745 37.736C38.5279 37.736 39.2812 37.7524 40.0345 37.736C40.3243 37.736 40.465 37.8261 40.4981 38.1211C40.5892 38.9076 40.5313 39.6859 40.465 40.4642C40.4485 40.6691 40.2581 40.6199 40.1339 40.6117C39.2978 40.6117 38.4616 40.5953 37.6255 40.5953C37.1536 40.5953 37.0791 40.6691 37.0791 41.1524C37.0791 42.0209 37.0791 42.8893 37.0791 43.6267L37.0709 43.643Z" fill="#01909D"/>
<path d="M61.3101 50.8118C60.8962 50.8118 60.474 50.8118 60.0601 50.8118C59.7289 50.8118 59.5965 50.7626 59.6544 50.3366C59.7621 49.4682 59.7703 48.5833 59.7786 47.6985C59.7952 45.511 59.8945 43.3154 59.7538 41.1279C59.5799 38.3751 59.6876 35.6223 59.5882 32.8777C59.5634 32.2469 59.5634 32.2551 60.1843 32.2797C60.979 32.3042 61.7737 32.3288 62.5602 32.3288C62.8499 32.3288 62.941 32.4271 62.941 32.7139C62.941 38.2522 62.9493 43.7906 62.9575 49.3371C62.9575 49.7795 62.8334 50.2055 62.8996 50.6479C62.9327 50.8527 62.7671 50.7872 62.6844 50.7872C62.2208 50.7872 61.7654 50.7872 61.3019 50.7872V50.8036L61.3101 50.8118Z" fill="#01909D"/>
<path d="M13.4607 63.6417C9.47881 63.6417 5.4886 63.6417 1.50667 63.6417C1.1093 63.6417 0.59604 63.7564 0.339408 63.5598C0.0910547 63.3714 0.289737 62.8388 0.281459 62.462C0.256624 61.4379 0.264902 61.446 1.31626 61.446C9.41258 61.446 17.5089 61.446 25.6052 61.446C25.9529 61.446 26.2923 61.5034 26.64 61.528C26.8553 61.5444 26.8221 61.6836 26.8221 61.8229C26.8139 62.2653 26.789 62.7077 26.8056 63.142C26.8139 63.5106 26.6566 63.6089 26.3006 63.6089C22.0206 63.6008 17.749 63.6089 13.469 63.6089C13.469 63.6253 13.469 63.6335 13.469 63.6499L13.4607 63.6417Z" fill="#01909D"/>
<path d="M79.1419 63.609C74.8619 63.609 70.582 63.609 66.302 63.609C65.9543 63.609 65.8302 63.5106 65.8467 63.1583C65.8716 62.7159 65.8798 62.2735 65.8467 61.8393C65.8136 61.4788 65.9792 61.4215 66.2855 61.4297C66.8153 61.4461 67.3451 61.4297 67.8749 61.4297C75.6567 61.4297 83.4301 61.4297 91.2119 61.4297C91.543 61.4297 91.8741 61.487 92.2053 61.5116C92.346 61.5198 92.404 61.5853 92.3957 61.7246C92.3874 62.2653 92.3791 62.7979 92.3708 63.3386C92.3708 63.6008 92.1804 63.5762 91.99 63.5762C87.7101 63.6827 83.4301 63.5926 79.1502 63.5926L79.1419 63.609Z" fill="#01909D"/>
<path d="M47.0629 63.2976C47.0629 62.4373 47.0629 61.5771 47.0629 60.7168C47.0629 60.4956 47.0629 60.2744 47.0795 60.0532C47.0878 59.8648 47.0712 59.6682 47.3775 59.6682C47.6341 59.6682 47.7832 59.7009 47.8328 59.9959C47.8825 60.3154 47.8825 60.6267 47.8825 60.938C47.8742 62.0768 47.8494 63.2238 47.8328 64.3626C47.8328 64.5675 47.8494 64.8214 47.6342 64.9034C47.3858 65.0017 47.1043 64.9361 46.9305 64.6904C46.558 64.1414 46.1854 63.5843 45.8295 63.0272C45.5066 62.5193 45.2086 61.9949 44.9023 61.4706C44.8609 61.3968 44.8278 61.2985 44.7284 61.3149C44.6042 61.3313 44.6125 61.4542 44.596 61.5443C44.4801 62.2407 44.5463 62.9453 44.5463 63.6417C44.5463 64.0022 44.6125 64.3708 44.4718 64.7395C44.3973 64.9443 44.3145 64.9935 44.1241 64.9689C43.9089 64.9443 43.793 64.8378 43.793 64.6248C43.7847 64.2234 43.7764 63.8301 43.7764 63.4287C43.7764 62.3964 43.7764 61.3641 43.8012 60.3318C43.8012 60.086 43.7184 59.7583 44.0413 59.66C44.3724 59.5617 44.596 59.7337 44.8195 60.0286C45.5894 61.0118 46.1854 62.1014 46.7897 63.1829C46.8229 63.2402 46.856 63.3058 46.8891 63.3631C46.947 63.3385 46.9967 63.314 47.0547 63.2894L47.0629 63.2976Z" fill="#01909D"/>
<path d="M58.7687 64.9033C58.363 64.9443 58.1892 64.6821 58.1147 64.3053C57.9988 63.7208 57.6373 63.4204 57.0302 63.4041C57.0302 63.4041 56.9722 63.4041 56.9474 63.4041C56.0285 63.3467 56.0699 63.527 55.8381 64.3708C55.747 64.7067 55.3828 65.0017 55.0434 64.9033C54.7784 64.8214 54.8198 64.6166 54.8861 64.4364C55.3828 63.0272 56.1361 61.7081 56.4507 60.2334C56.4838 60.0696 56.5831 59.9303 56.6908 59.8074C56.9557 59.5207 57.3696 59.5862 57.5021 59.9549C58.0484 61.446 58.5369 62.9535 59.1329 64.4282C59.2736 64.7804 59.1743 64.9115 58.7687 64.8951V64.9033ZM57.113 61.02C56.7735 61.192 56.7487 61.5115 56.6494 61.7819C56.3348 62.6421 56.3762 62.6913 57.262 62.6585C57.6262 62.6421 57.7173 62.511 57.5517 62.1997C57.3613 61.8392 57.262 61.446 57.113 61.02Z" fill="#01909D"/>
<path d="M51.3015 62.3308C51.3015 63.6499 52.3363 64.5019 53.5698 64.2725C53.7354 64.2397 53.9009 64.2561 54.0665 64.2725C54.1824 64.2807 54.3645 64.1824 54.4059 64.4036C54.4473 64.6166 54.3811 64.7805 54.1824 64.887C53.7767 65.1 53.3214 65.1655 52.891 65.0754C52.4191 64.9771 51.9472 64.8788 51.525 64.6084C50.7303 64.1087 50.2832 62.9944 50.4405 62.0687C50.5399 61.446 50.7468 60.8971 51.1608 60.4383C51.6575 59.8812 52.3363 59.6845 53.0565 59.66C53.429 59.6436 53.7933 59.6272 54.1741 59.7255C54.5963 59.832 54.348 60.127 54.3811 60.3236C54.4142 60.5202 54.2735 60.6513 54.0417 60.6267C53.7022 60.5858 53.3545 60.6021 53.0317 60.5694C52.3611 60.5038 51.9803 60.8479 51.6575 61.2985C51.4339 61.618 51.227 61.9785 51.3098 62.3472L51.3015 62.3308Z" fill="#01909D"/>
<path d="M36.4334 59.6354C36.6321 59.66 36.8639 59.66 37.0957 59.6928C37.4931 59.7501 37.4931 60.0451 37.4931 60.2581C37.4931 60.5366 37.1868 60.4793 36.9964 60.4793C36.6404 60.4875 36.2927 60.4137 35.9202 60.5038C35.1585 60.6841 34.5294 61.3805 34.488 62.1588C34.4383 63.1174 34.9516 63.9039 35.7132 64.1988C36.1602 64.3709 36.5742 64.2807 37.0129 64.2316C37.195 64.2152 37.4434 64.1496 37.5096 64.4036C37.5758 64.6576 37.402 64.8051 37.1868 64.9034C36.0526 65.4523 34.041 64.674 33.7678 63.3467C33.4946 62.0359 33.7429 60.7578 34.7198 60.0942C35.1503 59.7993 35.6801 59.6272 36.4334 59.6354Z" fill="#01909D"/>
<path d="M49.9687 62.3964C49.9687 63.1665 49.9521 63.9366 49.9687 64.7067C49.9687 64.9935 49.9024 65.1246 49.5961 65.0918C49.4471 65.0754 49.2898 65.0836 49.1408 65.0918C48.9587 65.0918 48.9007 65.0099 48.9007 64.8378C48.9007 63.273 48.8925 61.7082 48.9007 60.1433C48.9007 59.9795 48.8345 59.7173 49.0332 59.6763C49.3064 59.619 49.6127 59.6518 49.8942 59.6845C50.0101 59.7009 49.9687 59.873 49.9687 59.9795C49.9687 60.7906 49.9687 61.6017 49.9687 62.4127C49.9687 62.4127 49.9687 62.4127 49.9604 62.4127L49.9687 62.3964Z" fill="#01909D"/>
<path d="M43.0479 58.4966C43.1555 58.513 43.3128 58.4966 43.3707 58.6113C43.437 58.7424 43.3294 58.8571 43.23 58.9226C42.6919 59.2667 42.7747 59.7501 42.7995 60.2908C42.8658 61.6918 42.8326 63.0927 42.8244 64.4937C42.8244 64.7804 42.5263 64.9853 42.2449 64.9279C41.9469 64.8706 41.773 64.7477 41.8972 64.3872C41.9551 64.2315 41.9137 64.0349 41.922 63.8547C41.922 62.8633 41.9386 61.872 41.9469 60.8889C41.9469 60.2334 42.1207 59.6108 42.3277 59.0045C42.4601 58.6195 42.6754 58.4802 43.0479 58.4884V58.4966Z" fill="#01909D"/>
<path d="M38.4202 62.3963C38.4202 61.7327 38.4202 61.0773 38.4202 60.4137C38.4202 60.2334 38.4616 60.0614 38.4947 59.8811C38.5279 59.6681 38.6852 59.6436 38.8673 59.6436C39.066 59.6436 39.0908 59.7828 39.0991 59.9221C39.1239 60.2662 39.1405 60.6103 39.1487 60.9544C39.1487 61.9048 39.1653 62.8551 39.1487 63.8055C39.1405 64.1906 39.2812 64.2643 39.6372 64.2397C40.0677 64.2151 40.4981 64.2479 40.9286 64.2725C41.1273 64.2807 41.3508 64.3216 41.3674 64.5592C41.3922 64.805 41.1438 64.8296 40.9866 64.8542C40.2167 64.9607 39.4302 64.9689 38.652 64.8951C38.4037 64.8706 38.4037 64.6821 38.412 64.4937C38.412 63.7891 38.412 63.0927 38.412 62.3881L38.4202 62.3963Z" fill="#01909D"/>
<path d="M57.1047 61.02C57.2537 61.446 57.353 61.8311 57.5434 62.1998C57.709 62.5193 57.6179 62.6504 57.2537 62.6586C56.3679 62.6914 56.3265 62.6422 56.6411 61.782C56.7404 61.5116 56.7653 61.1921 57.1047 61.02Z" fill="#E6EDFF"/>
</g>
<defs>
<clipPath id="clip0_34_16085">
<rect width="93" height="65.1" fill="white"/>
</clipPath>
</defs>
</svg>
