<svg width="119" height="37" viewBox="0 0 119 37" fill="none" xmlns="http://www.w3.org/2000/svg">
<g clip-path="url(#clip0_34_15927)">
<path d="M20.6845 4.42932C21.7159 4.94502 22.6696 5.55962 23.4326 6.44267C23.8282 6.89479 24.1531 7.41049 24.5558 7.85555C25.3117 8.69621 25.7214 9.74174 26.1312 10.7449C26.9012 12.6452 27.099 14.6797 26.9859 16.7072C26.88 18.6499 26.4491 20.5079 25.5589 22.3093C24.5063 24.4357 23.0087 26.0817 21.0872 27.3744C19.7803 28.2575 18.325 28.8014 16.7143 28.8862C16.0715 28.9215 15.4357 28.9851 14.7928 28.971C12.0236 28.9215 9.81949 27.6499 7.8556 25.8344C7.42467 25.4388 7.07145 24.9796 6.65465 24.5769C6.48511 24.4074 6.33675 24.252 6.7041 24.0471C7.022 23.8705 7.07851 23.4325 7.19861 23.1005C7.79202 21.4474 8.09579 19.7237 8.46313 18.0141C8.68213 16.9898 9.16251 16.029 9.40976 15.0047C9.77004 13.5141 10.7661 12.4403 11.6562 11.2888C11.8328 11.0628 11.8752 10.8438 11.8752 10.5824C11.8682 9.8477 11.8752 9.11301 11.8752 8.38538C11.8752 8.22996 11.8117 8.03216 12.0165 7.94738C12.1861 7.87674 12.3485 7.96858 12.4757 8.07454C12.7865 8.3218 12.9843 8.64676 13.0903 9.02823C13.1821 9.36732 13.2952 9.81238 13.6978 9.73467C14.0934 9.65696 13.9592 9.19072 13.9451 8.87282C13.931 8.52666 13.8603 8.18051 13.8391 7.83435C13.8179 7.49526 13.9522 7.44581 14.2277 7.64362C14.6657 7.95445 15.0825 8.29354 15.1814 8.85869C15.3721 9.91835 16.0079 10.6036 17.0252 10.8862C17.7599 11.084 18.1979 11.5855 18.6076 12.1507C19.0597 12.7653 19.7026 12.9772 20.4231 12.9984C21.5393 13.0267 21.8855 13.4788 21.5322 14.5243C21.0731 15.8807 20.0982 16.6224 18.6641 16.6366C17.5903 16.6366 16.4953 16.5094 15.4993 17.1311C15.1319 17.3642 14.9059 17.6044 14.9482 18.0424C15.0895 19.6743 15.2873 21.3061 15.358 22.938C15.4145 24.2308 15.584 25.5306 15.471 26.8305C15.3933 27.7135 15.358 27.6853 16.2975 27.4239C17.6468 27.0495 18.982 26.6185 20.1335 25.8061C22.0126 24.478 23.4538 22.8179 24.3297 20.6562C25.1563 18.6287 25.5801 16.5518 25.453 14.383C25.3753 13.1256 25.1563 11.8752 24.7112 10.6601C24.3297 9.60751 23.9765 8.57611 23.3478 7.62949C22.8038 6.80295 22.0479 6.20248 21.4121 5.48191C21.1296 5.17108 20.8541 4.85318 20.5715 4.54235C20.6068 4.50703 20.6421 4.47171 20.6775 4.44345L20.6845 4.42932ZM7.98276 24.4215C7.90505 24.9514 8.08166 25.4176 8.54084 25.6507C9.85482 26.3148 11.0275 27.3321 12.6099 27.3744C12.7512 27.3744 12.9208 27.4521 13.0126 27.3038C13.1044 27.1625 12.9843 27.0283 12.9208 26.9011C12.6876 26.4278 12.3203 26.0251 12.073 25.566C11.4655 24.4568 11.3454 23.489 12.8431 23.044C13.0903 22.9733 13.3376 22.9097 13.5848 22.8462C14.3478 22.6413 14.6303 22.0973 14.4184 21.3485C14.2418 20.7269 13.7826 20.2394 13.6131 19.6319C13.4011 18.883 12.836 18.6217 12.2073 18.4027C11.9459 18.3108 11.7128 18.1766 11.4938 18.0071C11.1688 17.7457 11.0628 17.3854 10.971 17.011C10.9145 16.792 10.8509 16.5659 10.5683 16.5589C10.3069 16.5589 10.3352 16.8061 10.2716 16.9545C10.095 17.3571 9.9184 17.7669 9.89014 18.2119C9.83362 19.0314 9.57931 19.7025 8.95058 20.3171C8.48433 20.7692 8.20175 21.4545 8.11698 22.1327C8.01808 22.8886 8.1523 23.6656 7.97569 24.4215H7.98276Z" fill="#6885AA"/>
<path d="M37.1728 23.2136C38.1194 22.9805 39.0025 22.6555 39.6665 21.8855C39.9703 21.5323 40.1963 21.1579 40.2246 20.6916C40.4012 20.6775 40.4507 20.5645 40.486 20.402C40.6414 19.7168 40.6485 19.0386 40.486 18.3604C40.38 17.9295 40.2246 17.5268 39.7372 17.3855C39.5182 17.1241 39.3839 16.785 39.0378 16.6367C38.7764 15.9656 38.077 15.5558 37.3918 15.6547C36.3109 15.2733 35.2018 14.9624 34.1916 14.4043C33.6971 14.1076 33.1743 13.8463 32.7222 13.5072C31.6908 12.7371 30.8431 11.8046 30.4687 10.5331C30.4122 10.3494 30.4263 10.1233 30.2073 10.0174C30.2214 9.36037 30.1155 8.68925 30.3345 8.03933C30.9491 7.17041 31.2104 6.09662 31.9663 5.31954C31.9734 5.31247 31.9663 5.28422 31.9663 5.26302C32.5527 4.60604 33.358 4.33759 34.1775 4.20337C35.6045 3.97024 37.0386 4.01263 38.4232 4.5142C39.0166 4.72613 39.6312 4.89568 40.1045 5.35486C40.0268 5.65863 40.2952 5.76459 40.4507 5.92708C40.8816 6.38626 41.4114 6.76774 41.5527 7.44592C41.6022 7.68611 41.6728 7.9051 41.4821 8.10997C41.2772 8.32897 41.0158 8.30071 40.7686 8.223C40.5284 8.15236 40.3871 7.96868 40.2387 7.77088C39.7725 7.16334 39.1791 6.73241 38.402 6.61232C36.8478 5.77166 35.2725 5.67276 33.6547 6.44984C32.6233 6.94435 32.2136 7.81327 32.1218 8.86586C31.9593 10.6531 32.8211 11.409 34.2693 12.2214C35.6327 12.9844 37.1375 13.4648 38.5927 14.0229C39.0378 14.1924 39.4828 14.4185 39.8431 14.7505C39.8926 14.7717 39.935 14.7999 39.9844 14.8211C40.0833 14.9059 40.1822 14.9907 40.2882 15.0755C40.2882 15.2238 40.373 15.2944 40.5213 15.2803C40.5142 15.4993 40.6414 15.6618 40.7827 15.8031C41.1147 16.1492 41.3761 16.5448 41.5739 16.9758C41.807 17.5056 41.9978 18.0496 42.2097 18.5865C42.2097 19.0527 42.2097 19.526 42.2026 19.9923C42.2026 20.0417 42.2026 20.0841 42.1956 20.1336C42.2097 20.7411 41.9836 21.2992 41.8282 21.8643C41.2772 22.3376 41.0511 23.0511 40.5425 23.5527C40.5072 23.588 40.5425 23.694 40.5425 23.7646C39.4616 24.5982 38.2183 25.0009 36.8761 25.1987C35.8235 25.3471 34.8133 25.2411 33.7889 25.0504C33.4428 24.6406 32.9412 24.6194 32.475 24.5064C32.2136 24.3581 31.9522 24.2097 31.6908 24.0613C31.5849 23.6587 31.2034 23.4891 30.9632 23.1995C30.4758 22.6061 29.8823 22.1045 29.5574 21.391C29.3596 20.953 29.5715 20.3243 29.9742 20.1689C30.4334 19.9993 30.7513 20.2113 30.9632 20.6139C31.0621 20.8047 31.1327 21.0237 31.2599 21.2003C31.5071 21.5464 31.6908 21.9844 32.2277 21.9985C32.8847 22.5496 33.5346 23.1077 34.4389 23.1995C34.5872 23.3196 34.7356 23.369 34.9051 23.256C35.0393 23.2701 35.1736 23.2772 35.3078 23.2913C35.3926 23.2913 35.4703 23.2913 35.555 23.2913C36.0707 23.2631 36.5864 23.2348 37.1021 23.2066L37.1516 23.2136L37.201 23.1924L37.1728 23.2136Z" fill="#0D6093"/>
<path d="M106.121 23.2913C104.729 25.1563 102.525 25.5802 100.392 24.9373C100.131 24.8596 99.8692 24.7678 99.6149 24.6759C98.8166 24.4004 98.4422 23.7152 98.0819 23.0441C97.3119 21.5959 97.3048 20.0982 98.1455 18.6995C98.9579 17.3431 100.307 16.7426 101.84 16.6367C102.978 16.559 104.122 16.6155 105.266 16.6225C106.34 16.6225 106.178 16.6791 106.164 15.7042C106.142 14.4962 105.69 13.5142 104.581 12.8996C103.415 12.2497 101.437 12.4899 100.491 13.4153C100.244 13.6555 100.025 13.9381 99.7632 14.1571C99.4736 14.3973 99.1698 14.6798 98.753 14.3619C98.315 14.0299 98.1667 13.5495 98.4492 13.1186C98.9367 12.3769 99.516 11.7199 100.335 11.3101C102.003 10.4765 103.733 10.4977 105.394 11.2042C106.941 11.8682 107.788 13.1822 107.817 14.8706C107.873 17.8588 107.845 20.8471 107.838 23.8353C107.838 24.1249 107.76 24.4075 107.711 24.6971C107.675 24.9232 107.513 24.9797 107.315 25.0009C106.941 25.0362 106.623 24.9585 106.411 24.6124C106.185 24.245 106.171 23.8282 106.128 23.3055L106.121 23.2913ZM106.213 19.4271C106.213 19.2293 106.199 19.0244 106.213 18.8266C106.241 18.5299 106.149 18.3886 105.824 18.3886C104.539 18.3957 103.246 18.3321 101.967 18.4098C100.929 18.4664 100.01 18.8761 99.636 19.9499C99.191 21.2215 99.297 22.4436 100.703 23.0935C101.967 23.6799 103.168 23.4962 104.327 22.8957C104.977 22.5566 105.711 22.1893 105.874 21.3628C106.001 20.727 106.27 20.1053 106.213 19.4271Z" fill="#6885AA"/>
<path d="M43.9617 22.8675C43.9334 22.811 43.9122 22.7615 43.8839 22.705C43.9051 22.6343 43.8839 22.5778 43.8133 22.5496C43.1139 20.9318 43.5307 19.4766 44.4632 18.0919C45.092 17.1594 46.081 16.891 47.1194 16.7215C48.5818 16.4883 50.0512 16.6296 51.5205 16.6155C51.9515 16.6155 52.1351 16.4883 52.0928 16.0503C52.0574 15.6689 52.0574 15.2803 52.0362 14.8988C52.0645 14.5315 52.0009 14.1995 51.7113 13.9452C50.5386 12.172 47.8683 12.2426 46.851 13.0833C46.5613 13.3235 46.3141 13.6202 46.0386 13.8745C45.8055 14.1006 45.6077 14.3902 45.2474 14.4326C44.3997 13.9593 44.2725 13.5213 44.7458 12.7159C44.8164 12.5959 44.9577 12.5111 44.9224 12.3415C46.5048 10.6037 48.5041 10.3988 50.6163 10.9287C51.4711 11.1477 52.1846 11.6987 52.8063 12.4192C53.654 13.4083 53.6399 14.5598 53.7953 15.7042C53.7458 15.902 53.7105 16.0998 53.8306 16.2905C53.8306 16.3612 53.8306 16.4247 53.8306 16.4954C53.7458 16.5731 53.7388 16.6508 53.8235 16.7285C53.8235 16.7992 53.8235 16.8627 53.8235 16.9334C53.8094 16.9475 53.7882 16.9616 53.7882 16.9687C53.7882 16.997 53.8094 17.0323 53.8165 17.0605C53.8165 17.1665 53.8165 17.2654 53.8165 17.3714C53.8165 17.4208 53.8094 17.4703 53.8023 17.5197C53.8023 17.9012 53.8023 18.2897 53.7953 18.6712C53.7388 18.9043 53.7105 19.1375 53.8165 19.3706C53.8165 19.8792 53.8165 20.3879 53.8165 20.8894C53.7458 20.9671 53.7458 21.0449 53.8165 21.1296C53.8094 21.7796 53.8023 22.4224 53.7882 23.0723C53.7882 23.1642 53.7882 23.256 53.7882 23.3478C53.7882 23.588 53.8094 23.8212 53.7882 24.0613C53.76 24.6901 53.4915 24.9656 52.9405 24.9727C52.4742 24.9727 52.1563 24.6548 52.0928 24.1108C52.0928 24.0543 52.1069 23.9978 52.0928 23.9483C52.0574 23.8212 52.1775 23.6304 51.9939 23.5598C51.8172 23.4962 51.7395 23.6657 51.6406 23.7646C50.5739 24.8172 49.2741 25.3117 47.7976 25.2835C47.1336 25.2694 46.4766 25.1351 45.9044 24.7537C45.8549 24.6618 45.8267 24.5276 45.7489 24.4711C45.0637 24.026 44.4208 23.5386 43.9546 22.8533L43.9617 22.8675ZM52.0928 18.3816C51.9939 18.2544 51.8667 18.2686 51.7325 18.318C51.457 18.318 51.1815 18.3109 50.8989 18.3039C50.8565 18.3039 50.807 18.318 50.7647 18.3251C50.6587 18.3251 50.5457 18.3392 50.4397 18.3392C50.3973 18.2897 50.3549 18.2968 50.3196 18.3392C50.1006 18.3392 49.8887 18.3251 49.6697 18.318C49.6273 18.2756 49.5778 18.2756 49.5355 18.318C49.4295 18.318 49.3306 18.318 49.2246 18.318C49.1752 18.2686 49.1328 18.2756 49.0904 18.3251C48.9844 18.3251 48.8785 18.3321 48.7725 18.3392C48.6877 18.2615 48.6171 18.2756 48.5464 18.3604C47.5716 18.431 46.6249 18.4805 45.8832 19.3211C45.2121 20.0841 45.1909 20.9389 45.4381 21.7584C45.7136 22.6555 46.3989 23.2772 47.4373 23.3337C47.5857 23.4538 47.7482 23.4467 47.9177 23.3832L48.6242 23.3549C48.6736 23.3973 48.7231 23.3902 48.7725 23.3408C49.6132 23.2984 50.3408 22.9876 50.9695 22.4295C51.457 22.2741 51.7113 21.942 51.7325 21.4334C51.8526 20.8894 51.9797 20.3455 52.0998 19.8015C52.2058 19.6885 52.2129 19.5755 52.114 19.4624C52.114 19.3565 52.114 19.2505 52.1069 19.1445C52.1281 18.8832 52.4813 18.6218 52.0857 18.3745L52.0928 18.3816Z" fill="#0D6093"/>
<path d="M2.6986 11.1264C2.6774 11.2253 2.64914 11.3313 2.62795 11.4302C2.40189 11.6138 2.3595 11.847 2.45134 12.1084C2.42308 12.1861 2.40189 12.2638 2.37363 12.3415C2.33831 12.3839 2.30299 12.4192 2.26767 12.4616C2.16877 13.5 1.99216 14.5385 2.02748 15.5911C2.04867 16.2975 2.0628 17.004 2.15464 17.7104C1.99216 18.0354 2.09812 18.3179 2.26767 18.6005C2.28886 18.7277 2.30299 18.8478 2.32418 18.9749C2.23235 19.2434 2.27473 19.4624 2.54318 19.6037C2.5785 19.7238 2.61382 19.8438 2.64914 19.9639C2.55024 20.1264 2.52199 20.2677 2.74098 20.3525C2.74098 20.409 2.74098 20.4585 2.74805 20.515C2.68447 20.9176 2.81869 21.285 2.98824 21.6453C3.10833 21.8996 3.07301 22.2669 3.48981 22.3023C3.9278 23.0228 4.31634 23.7787 4.81791 24.4498C5.90583 25.9192 7.28338 27.0778 8.84461 28.0244C9.71353 28.5542 10.6531 28.9075 11.635 29.1476C11.7127 29.4443 11.6774 29.621 11.2889 29.5927C10.8862 29.5574 10.4835 29.5927 10.0809 29.5927C9.54398 29.5715 9.0848 29.3313 8.61148 29.1053C7.30457 28.4765 6.03298 27.8054 4.95213 26.8235C4.84617 26.7246 4.75433 26.6186 4.65543 26.5126C4.66956 26.442 4.63424 26.3996 4.56359 26.3855C4.52827 26.3501 4.48588 26.3078 4.45056 26.2724C4.16092 25.6225 3.68761 25.0927 3.20017 24.5841C2.9953 24.3721 2.93172 24.0048 2.55731 23.9765C2.51492 23.9059 2.47254 23.8423 2.43015 23.7716C2.45841 23.6162 2.39483 23.5385 2.23941 23.5244C1.59655 22.2175 0.833598 20.96 0.551023 19.5048C0.395607 18.6782 0.148353 17.8658 0.141289 17.0181C0.155418 16.9898 0.155418 16.9616 0.141289 16.9404C0.141289 16.898 0.141289 16.8556 0.148353 16.8132C0.289641 15.7394 0.24019 14.6657 0.190739 13.5848C0.190739 13.5354 0.190739 13.4788 0.197804 13.4294C0.197804 13.3799 0.197804 13.3305 0.204868 13.281C0.204868 13.2175 0.204868 13.1539 0.211933 13.0903C0.211933 13.0197 0.218997 12.9419 0.226061 12.8713C0.572216 11.0487 1.21508 9.32498 2.0628 7.67898C2.09812 7.60127 2.1617 7.53769 2.21822 7.46705C2.48666 7.33283 2.62089 7.10677 2.67034 6.81713C3.11539 6.33675 3.56751 5.86344 3.87835 5.27709C4.0267 5.27709 4.10441 5.20645 4.09734 5.0581C5.3548 3.71586 6.83832 2.65621 8.52671 1.92857C9.49453 1.51178 10.533 1.2292 11.6209 1.20801C12.1084 1.80848 12.0589 1.92857 11.2112 2.17583C11.0487 2.22528 10.8933 2.2606 10.8226 2.43721C9.67821 2.95291 8.49139 3.4121 7.52357 4.21037C6.29437 5.22058 5.07929 6.25198 4.26689 7.67898C3.77945 8.53377 3.25668 9.36737 3.00236 10.3281C2.97411 10.3705 2.93878 10.4129 2.91053 10.4553C2.8964 10.4835 2.88227 10.5047 2.87521 10.533C2.45134 10.6036 2.52199 10.8368 2.69153 11.0981L2.6986 11.1264Z" fill="#0D6093"/>
<path d="M64.413 13.7473C62.9295 12.3061 61.5025 12.0306 59.581 12.9066C59.0936 13.1256 58.7757 13.613 58.5213 14.1005C58.1187 14.3053 57.9986 14.7433 57.9845 15.0754C57.935 16.6578 57.9703 18.2473 57.9703 19.8297C57.9845 20.9812 57.9986 22.1398 58.0127 23.2912C57.9703 23.595 57.9633 23.8988 57.8785 24.1955C57.6736 24.9584 57.1014 25.128 56.4868 24.6264C56.402 24.5558 56.3173 24.4922 56.2396 24.4215C56.2396 24.365 56.2254 24.3015 56.2254 24.2449C56.3808 23.5809 56.2819 22.9098 56.2819 22.2387C56.2819 21.723 56.395 21.1931 56.1901 20.6774C56.1901 17.7316 56.1901 14.7787 56.1689 11.8328C56.1689 11.3948 56.3031 11.0628 56.727 10.9498C57.1226 10.8438 57.5606 10.7732 57.8502 11.2111C57.8856 11.4796 57.9279 11.741 57.9491 12.0094C57.9845 12.3838 58.1823 12.3838 58.4295 12.2072C58.5708 12.1083 58.7262 11.9882 58.7403 11.7834C59.6728 10.8297 60.8243 10.6177 62.1101 10.7449C62.9366 10.8226 63.7349 10.971 64.4837 11.3171C65.0206 11.9458 65.5645 12.5816 66.1014 13.2104C66.4123 14.1499 66.4123 15.1248 66.49 16.1068C66.6595 18.2473 66.5465 20.3807 66.5606 22.5142C66.5606 23.1923 66.4617 23.8776 66.384 24.5628C66.3134 25.1421 65.8683 24.9655 65.614 25.0361C65.3879 25.0927 65.0135 24.9514 64.9429 24.6123C64.7804 23.7787 64.5897 22.9451 64.7663 22.0903C64.8016 21.9349 64.8157 21.7653 64.8086 21.6029C64.7592 20.3101 64.8793 19.0173 64.7168 17.7245C64.5967 16.7849 64.9076 15.8383 64.7733 14.8917C64.8016 14.8281 64.7875 14.7787 64.7239 14.7433C64.7027 14.6091 64.6744 14.482 64.6532 14.3477C64.7451 14.0793 64.7027 13.8603 64.406 13.7402L64.413 13.7473Z" fill="#0D6093"/>
<path d="M74.7482 16.4529C74.7482 14.8776 74.7482 13.3022 74.7482 11.7269C74.7482 11.2324 75.0026 10.9922 75.4617 10.9145C76.147 10.8014 76.5073 11.084 76.5214 11.8116C76.5497 13.2245 76.5214 14.6303 76.5426 16.0432C76.5638 17.6327 76.4578 19.2363 76.6556 20.8187C76.8181 22.0974 77.6305 23.2347 79.0646 23.2771C80.0041 23.3054 81.0214 23.4043 81.9045 22.7968C82.406 22.4506 82.7098 21.9985 82.8935 21.4686C83.0913 20.9035 83.1549 20.303 83.1549 19.6884C83.1407 17.1241 83.1478 14.5597 83.1549 11.9953C83.1549 11.635 83.1195 11.2465 83.5363 11.0346C84.1863 10.7025 84.822 11.0557 84.8291 11.7904C84.8503 14.044 84.8644 16.2975 84.8362 18.5511C84.8291 19.4412 84.8856 20.3383 84.7302 21.2285C84.4759 22.7614 83.8825 24.0048 82.3566 24.7041C80.6753 25.4742 79.0504 25.3399 77.355 24.7748C76.3589 24.4428 75.7655 23.7928 75.3628 22.8815C75.0096 22.0903 74.727 21.2991 74.7482 20.409C74.7765 19.0879 74.7553 17.774 74.7553 16.4529C74.7553 16.4529 74.7553 16.4529 74.7482 16.4529Z" fill="#6885AA"/>
<path d="M114.118 10.7803C115.736 10.6461 117.085 11.19 118.145 12.4122C118.562 12.8925 118.547 13.5283 118.166 13.8886C117.905 14.1288 117.643 14.15 117.375 13.9522C117.099 13.7473 116.852 13.493 116.569 13.2952C115.474 12.5323 114.224 12.3133 113.009 12.723C111.822 13.1257 111.349 14.4891 112.239 15.471C112.868 16.1704 113.659 16.566 114.549 16.8557C115.785 17.2583 116.986 17.7528 117.919 18.7419C118.724 19.5967 119.07 20.5786 118.837 21.7018C118.35 24.0825 116.944 25.1422 114.464 25.1916C112.578 25.227 111.094 24.358 109.696 23.2701C109.307 22.9664 109.265 22.2317 109.54 21.935C109.992 21.4475 110.579 21.4758 111.031 21.935C112.359 23.3125 113.97 23.6163 115.722 23.0653C117.354 22.5566 117.516 20.9742 116.704 19.9923C116.096 19.2646 115.121 18.9326 114.182 18.6359C112.797 18.1979 111.405 17.6539 110.607 16.3541C109.858 15.132 109.781 13.818 110.515 12.5181C111.2 11.3172 112.274 10.8156 113.616 10.7662C113.779 10.7662 113.949 10.7662 114.111 10.7662L114.118 10.7803Z" fill="#6885AA"/>
<path d="M71.3503 11.7834C71.3503 14.8069 71.3503 17.8305 71.3503 20.8611C71.3503 21.066 71.3503 21.2638 71.3573 21.4687C71.3856 22.493 71.7388 22.9381 72.7631 23.1005C73.3354 23.1924 73.4343 23.5527 73.4413 23.9977C73.4484 24.464 73.4272 24.902 72.8126 25.0503C71.7883 25.2976 70.22 24.5275 69.7749 23.5668C69.132 22.161 69.2804 20.6775 69.2804 19.201C69.2804 18.982 69.3087 18.763 69.3087 18.544C69.3087 13.1751 69.3087 7.79908 69.3087 2.43015C69.3087 1.97097 69.2239 1.51885 69.238 1.05966C69.2663 0.289643 70.0292 -0.183671 70.7215 0.0847757C70.99 0.190741 71.1595 0.374415 71.1948 0.642862C71.2584 1.1303 71.3291 1.61775 71.3361 2.11225C71.3503 5.34068 71.3361 8.5691 71.3361 11.7905L71.3503 11.7834Z" fill="#6885AA"/>
<path d="M88.3754 17.9506C88.439 18.989 88.2977 19.9851 88.658 20.9459C89.2938 22.6413 90.4665 23.5103 92.1902 23.4255C93.0026 23.3902 93.7867 23.1853 94.472 22.6979C94.7263 22.5142 94.9948 22.3588 95.2703 22.2033C95.6094 22.0126 95.9838 21.8854 96.2805 22.2245C96.5701 22.5636 96.5419 22.9804 96.3299 23.3619C96.005 23.9482 95.4186 24.2661 94.8605 24.5417C92.3174 25.7991 89.5128 25.4388 87.6972 23.0511C87.0191 22.161 86.7294 21.0307 86.6023 19.8721C86.3762 17.8517 86.461 15.8807 87.0685 13.9239C87.5348 12.4121 89.4492 10.8862 91.0528 10.7732C92.3174 10.6813 93.5819 10.646 94.7263 11.3242C95.2773 11.6492 95.8001 12.0236 96.1816 12.5605C96.5277 13.055 96.5348 13.6837 96.1816 13.9592C95.8566 14.2135 95.2279 14.1076 94.8464 13.6908C93.7867 12.5393 92.494 12.2143 90.9963 12.5393C90.1698 12.7229 89.6894 13.3234 89.2514 13.9592C88.6015 14.9058 88.2977 15.9584 88.3966 17.1099C88.4178 17.3996 88.3966 17.6963 88.3966 17.9294L88.3754 17.9506Z" fill="#6885AA"/>
<path d="M4.78259 19.0385C4.65543 19.0244 4.61304 18.9467 4.57065 18.8266C3.80064 16.6931 3.75119 14.5173 4.04789 12.2779C4.46469 9.10598 6.07537 6.6829 8.60442 4.8391C10.7449 3.27787 13.1398 2.71978 15.8101 3.25667C17.6751 3.63109 19.2646 4.45762 20.5997 5.74334C21.6311 6.73941 22.4082 7.94742 23.0016 9.24727C23.7151 10.8156 24.1814 12.4404 24.026 14.1923C24.0118 14.3478 24.0684 14.5173 23.9483 14.6657C23.7505 14.6303 23.814 14.4749 23.807 14.3689C23.7928 13.4153 23.4891 12.5534 23.0228 11.7339C22.9451 11.5926 22.8957 11.4302 22.8603 11.2747C22.2881 8.73157 20.5432 7.14208 18.3815 5.93407C16.2057 4.719 13.9098 4.45762 11.4938 5.22764C9.21195 5.95527 7.55182 7.43879 6.26611 9.36737C5.43251 10.6107 4.81084 11.9812 4.59185 13.4718C4.36579 14.9906 4.34459 16.5306 4.69781 18.0495C4.77552 18.3674 4.76139 18.7065 4.79671 19.0314L4.78259 19.0385Z" fill="#6885AA"/>
<path d="M109.201 30.4686C106.552 30.4686 103.903 30.4686 101.247 30.4686C100.936 30.4686 100.759 30.3274 100.752 30.0165C100.752 29.7128 100.667 29.3595 101.12 29.2889C101.226 29.2677 101.339 29.2677 101.452 29.2677C106.792 29.2677 112.14 29.2677 117.481 29.2677C117.947 29.2677 118.152 29.3949 118.116 29.8964C118.095 30.2073 117.961 30.3344 117.707 30.3627C117.283 30.4051 116.866 30.4404 116.442 30.4475C114.026 30.4545 111.617 30.4475 109.201 30.4475C109.201 30.4545 109.201 30.4616 109.201 30.4686Z" fill="#0D6093"/>
<path d="M43.9051 30.398C39.3627 30.4192 34.8133 30.4757 30.2709 30.4192C30.0872 30.4192 29.9035 30.4757 29.7269 30.4616C29.3455 30.4263 29.0064 30.2779 29.0064 29.8258C29.0064 29.4019 29.2536 29.2677 29.6845 29.2677C34.6155 29.2818 39.5464 29.2748 44.4774 29.2818C44.9719 29.2818 45.4734 29.296 45.9679 29.2818C46.3565 29.2748 46.3989 29.5079 46.3918 29.8046C46.3777 30.066 46.3777 30.2426 46.0033 30.292C45.424 30.3556 44.8447 30.3839 44.2584 30.398C44.1383 30.3556 44.0182 30.3556 43.8981 30.4121L43.9051 30.398Z" fill="#0D6093"/>
<path d="M73.7804 29.6069C73.4767 29.8682 73.1658 29.8047 72.8832 29.8047C72.5442 29.8047 72.417 29.9459 72.4453 30.2709C72.4523 30.3981 72.4594 30.5323 72.4453 30.6524C72.3746 31.1328 72.5583 31.3235 73.0528 31.2811C73.3636 31.2529 73.6815 31.2811 73.9853 31.3164C74.1902 31.3376 74.3173 31.4648 74.2961 31.6979C74.2749 31.9452 74.0842 31.9169 73.9288 31.9169C73.4131 31.9169 72.8974 31.8887 72.3817 31.9169C72.0002 31.9381 71.9084 31.7615 71.9154 31.4295C71.9296 30.4405 71.9154 29.4585 71.9154 28.4695C71.9154 28.2929 71.9507 28.0598 71.7247 28.0032C71.4774 27.9467 71.3715 28.1728 71.3008 28.3565C71.1101 28.8863 70.9405 29.4302 70.7569 29.9671C70.5803 30.4616 70.3895 30.9491 70.2058 31.4436C70.0857 31.7615 69.9233 31.7332 69.7396 31.5072C69.6831 31.4365 69.6195 31.3659 69.5842 31.2811C69.1674 30.1367 68.7576 28.9852 68.3479 27.8408C68.2985 27.7065 68.1501 27.5158 68.4115 27.4452C68.5952 27.3957 68.7082 27.4946 68.8 27.6642C69.0543 28.1375 69.1674 28.6602 69.3016 29.1689C69.4076 29.5645 69.5983 29.9177 69.7537 30.285C69.8102 30.4122 69.8668 30.5888 70.0504 30.5606C70.2129 30.5394 70.1917 30.3698 70.22 30.2497C70.4107 29.5292 70.6156 28.8086 70.7922 28.088C70.884 27.6924 71.1171 27.5087 71.4986 27.431C73.3636 27.0637 75.2357 27.4098 77.1077 27.3251C77.2208 27.3251 77.355 27.3251 77.3833 27.4522C77.4115 27.6076 77.2632 27.6571 77.1501 27.7065C77.136 27.7136 77.1148 27.7207 77.1007 27.7207C76.7969 27.7913 76.366 27.6571 76.2318 28.0315C76.1329 28.307 76.1964 28.6461 76.1964 28.9569C76.1964 29.5998 76.1964 30.2427 76.2106 30.8784C76.2106 31.0692 76.2035 31.2882 75.9704 31.3094C75.6525 31.3376 75.7938 31.0551 75.7584 30.9067C75.603 30.2709 75.6807 29.6281 75.7019 28.9923C75.7373 27.5935 74.8895 27.5299 73.9429 27.6995C73.6533 27.7489 73.3777 27.8478 73.081 27.8337C72.6501 27.8125 72.3746 27.9538 72.3675 28.4483C72.3534 29.0488 72.53 29.3313 73.0316 29.3879C73.2859 29.4161 73.5261 29.4373 73.7945 29.6139L73.7804 29.6069Z" fill="#6885AA"/>
<path d="M63.311 28.2788C63.0426 28.1233 62.8236 27.9891 62.5975 27.8761C61.8487 27.4946 61.114 27.8266 60.8809 28.639C60.6901 29.3172 60.57 29.9883 60.8809 30.6665C61.2411 31.4436 61.7286 31.6202 62.5127 31.2599C62.8094 31.1186 63.092 30.9632 63.4382 30.942C63.7137 30.9279 63.8832 30.6948 63.9751 30.4475C64.3 29.5433 64.5685 28.6178 65.0065 27.7631C65.0771 27.6288 65.0206 27.4098 65.2537 27.4028C65.4656 27.3957 65.6069 27.5299 65.6776 27.6995C65.833 28.088 65.9884 28.4836 66.1014 28.8863C66.3346 29.6704 66.5253 30.4687 66.8573 31.2175C66.9138 31.3447 66.8927 31.5072 66.8927 31.6485C66.8927 31.7403 66.8926 31.8392 66.7726 31.8675C66.6666 31.8887 66.5889 31.8392 66.5465 31.7544C66.49 31.6414 66.4123 31.5142 66.4193 31.4012C66.4264 30.7301 66.0449 30.5464 65.4444 30.5323C64.9217 30.5182 64.512 30.5464 64.3353 31.154C64.2435 31.4648 64.187 32.0865 63.5441 31.5425C63.3746 31.4012 62.979 31.5778 62.7176 31.712C61.9476 32.1006 61.3259 31.9664 60.7042 31.3518C59.9413 30.6029 60.132 29.7058 60.2804 28.8368C60.344 28.4766 60.5276 28.1022 60.7537 27.8054C61.1493 27.2615 62.541 27.1131 63.092 27.5017C63.3534 27.6854 63.424 27.9255 63.3039 28.2929L63.311 28.2788ZM65.4091 30.1438C66.059 30.1438 66.0732 30.1226 65.8824 29.5009C65.8047 29.2395 65.7623 28.964 65.6564 28.7168C65.5222 28.3989 65.3173 28.3423 65.1054 28.6602C64.9499 28.8934 64.8864 29.1547 64.8228 29.4232C64.6744 30.0802 64.7239 30.1438 65.4162 30.1438H65.4091Z" fill="#6885AA"/>
<path d="M84.9563 29.5503C84.9563 28.9639 84.9563 28.3776 84.9563 27.7912C84.9563 27.6288 84.9351 27.4451 85.1753 27.4168C85.3801 27.3886 85.5002 27.4592 85.6062 27.657C85.9877 28.3846 86.3338 29.1264 86.8142 29.7975C86.906 29.9317 86.9767 30.1225 87.1674 30.0942C87.4147 30.0518 87.3723 29.8187 87.3723 29.6492C87.3794 29.0981 87.3723 28.5542 87.3723 28.0032C87.3723 27.8407 87.3723 27.6711 87.4217 27.5157C87.4571 27.3744 87.556 27.2261 87.7326 27.2685C87.8739 27.3038 87.9092 27.4451 87.9092 27.5793C87.9092 28.1445 87.9021 28.7167 87.9092 29.2818C87.9233 29.9176 87.8597 30.5605 87.994 31.1963C88.0363 31.3941 88.0787 31.6625 87.7891 31.7544C87.4994 31.8462 87.3511 31.6484 87.2239 31.4294C86.8637 30.8148 86.5175 30.1861 86.1501 29.5785C86.0442 29.4019 85.917 29.1405 85.6627 29.2041C85.3801 29.2748 85.472 29.5644 85.472 29.7693C85.4649 30.2991 85.472 30.8289 85.472 31.3587C85.472 31.5495 85.4296 31.7614 85.1965 31.7614C84.9421 31.7614 84.9421 31.5354 84.9421 31.3517C84.9421 30.7441 84.9421 30.1437 84.9421 29.5361L84.9563 29.5503Z" fill="#6885AA"/>
<path d="M92.0348 29.5997C92.0348 28.9922 92.0348 28.3917 92.0348 27.7842C92.0348 27.5511 92.063 27.3179 92.3668 27.3179C92.826 27.3179 93.2922 27.2755 93.7444 27.3533C94.3872 27.4592 94.797 28.3705 94.5003 28.9569C94.4225 29.1194 94.3307 29.2818 94.2247 29.4302C93.7373 30.0801 93.7585 30.4828 94.2954 31.0691C94.4649 31.2528 94.8747 31.4577 94.5921 31.712C94.3731 31.9098 94.1117 31.5566 93.9492 31.3517C93.7232 31.0691 93.5466 30.7371 93.3346 30.4404C93.2075 30.2638 93.045 30.0872 92.7836 30.1719C92.5293 30.2567 92.5787 30.4898 92.5646 30.6806C92.5505 30.9702 92.607 31.2669 92.4657 31.5424C92.4021 31.6625 92.3386 31.7826 92.1831 31.7614C92.0065 31.7402 92.0206 31.5848 92.0206 31.4577C92.0206 30.836 92.0206 30.2143 92.0206 29.5856C92.0206 29.5856 92.0348 29.5856 92.0418 29.5856L92.0348 29.5997ZM92.4728 28.4482C92.4586 29.2606 92.5717 29.3878 93.1721 29.3878C93.815 29.3878 94.0057 29.2253 94.0128 28.6602C94.0128 28.0385 93.709 27.7489 92.9955 27.7489C92.4304 27.7489 92.4657 28.1798 92.4728 28.4412V28.4482Z" fill="#6885AA"/>
<path d="M55.6532 29.5998C55.6532 29.0135 55.6532 28.4271 55.6532 27.8408C55.6532 27.6642 55.6038 27.424 55.8369 27.3745C56.0912 27.3251 56.1901 27.5299 56.3031 27.7419C56.6917 28.4624 57.1014 29.1689 57.5323 29.8612C57.6242 30.0166 57.7584 30.2568 57.9915 30.1932C58.2388 30.1226 58.1681 29.8612 58.1681 29.6704C58.1752 29.07 58.1681 28.4624 58.1681 27.862C58.1681 27.6995 58.1469 27.4805 58.3589 27.4664C58.5708 27.4593 58.5849 27.7065 58.592 27.8408C58.6132 29.0488 58.6061 30.2568 58.6061 31.4648C58.6061 31.6414 58.4931 31.7332 58.3447 31.7756C58.2034 31.818 58.1257 31.7403 58.0339 31.6273C57.7513 31.2882 57.497 30.9491 57.391 30.504C57.2356 29.8753 56.6564 29.4726 56.4374 28.8651C56.4232 28.8227 56.3102 28.7733 56.2537 28.7874C56.1053 28.8298 56.0841 28.9711 56.0841 29.0982C56.0841 29.6987 56.0983 30.3062 56.0629 30.9067C56.0488 31.2175 56.2607 31.7615 55.8298 31.7756C55.5119 31.7827 55.6744 31.2175 55.6532 30.9138C55.625 30.4758 55.6461 30.0378 55.6461 29.5998H55.6532Z" fill="#6885AA"/>
<path d="M91.4767 31.8886C91.0882 31.6696 90.9681 31.3729 90.9045 31.1045C90.7561 30.4828 90.2899 30.61 89.866 30.5676C89.4068 30.5252 89.1596 30.7583 88.9618 31.1327C88.8346 31.3729 88.877 31.8957 88.439 31.7332C88.0646 31.5919 88.4108 31.2246 88.4673 30.9773C88.7287 29.8188 89.2444 28.7379 89.647 27.6217C89.6965 27.4875 89.7671 27.325 89.9437 27.3462C90.0991 27.3674 90.1768 27.5087 90.2263 27.65C90.6007 28.7732 90.9681 29.9035 91.4202 31.0056C91.5191 31.2387 91.4626 31.5425 91.4767 31.8886ZM90.3747 29.5998C90.304 29.2889 90.3958 28.7944 89.9649 28.7662C89.5411 28.745 89.5128 29.2183 89.4704 29.5503C89.421 29.8894 89.5834 30.0448 89.9367 30.0519C90.2757 30.059 90.41 29.9247 90.3747 29.5927V29.5998Z" fill="#6885AA"/>
<path d="M80.8519 29.4584C80.8519 28.9074 80.8801 28.3564 80.8448 27.8124C80.8165 27.3886 80.979 27.2826 81.3817 27.2967C81.9822 27.325 82.5968 27.2473 83.056 27.7771C83.388 28.1586 83.4233 29.0134 83.0418 29.3242C82.3213 29.9176 82.2577 30.073 83.063 31.0903C83.1902 31.2599 83.4233 31.3658 83.3738 31.6343C83.3597 31.719 83.2891 31.7685 83.2114 31.7544C82.9429 31.712 82.7451 31.5778 82.618 31.3234C82.4767 31.0267 82.3213 30.7371 82.1517 30.4545C82.0034 30.2143 81.7844 29.9953 81.4806 30.0872C81.2121 30.1649 81.2333 30.4545 81.198 30.6947C81.1556 30.9844 81.3393 31.5142 81.0073 31.5C80.6541 31.4859 80.866 30.9632 80.8377 30.6665C80.7954 30.2708 80.8307 29.8611 80.8307 29.4584H80.8448H80.8519ZM81.2899 28.4977C81.2899 29.2677 81.3817 29.3807 81.968 29.3807C82.5473 29.3807 82.8511 29.1194 82.844 28.639C82.8299 28.0526 82.4202 27.6923 81.7137 27.7206C81.1203 27.7418 81.3605 28.2363 81.2899 28.5048V28.4977Z" fill="#6885AA"/>
<path d="M10.8368 2.45846C10.9074 2.28185 11.0628 2.24653 11.2253 2.19708C12.073 1.94982 12.1225 1.82973 11.635 1.22926C11.7057 0.982004 11.9176 1.03145 12.0872 1.02439C13.0197 0.989068 13.9592 0.996133 14.8705 1.25045C15.5558 1.44119 16.2551 1.55422 16.9333 1.76615C17.3854 1.90744 17.7457 2.14763 18.212 2.47259C17.4208 2.50791 16.8132 2.16882 16.1633 2.09111C15.6688 2.02753 15.1884 2.04873 14.6939 2.04873C13.3941 2.05579 12.1084 2.21827 10.8368 2.46552V2.45846Z" fill="#6885AA"/>
<path d="M51.3581 28.2223C51.0614 28.2646 50.8494 28.0668 50.6092 27.9467C49.5637 27.4099 48.5888 27.9891 48.5535 29.1689C48.5464 29.4797 48.5464 29.7905 48.5535 30.1014C48.5818 30.7301 49.0551 31.373 49.6344 31.5566C49.9381 31.6555 50.143 31.4224 50.3832 31.2953C50.6163 31.1681 50.9483 30.8643 51.1037 31.1045C51.2662 31.3518 50.8636 31.5708 50.6446 31.7403C50.2984 32.0158 49.5637 31.9946 49.1893 31.7686C48.7231 31.4789 48.1932 31.2246 48.1438 30.603C48.0731 29.7128 47.9177 28.8015 48.3698 27.9609C48.829 27.099 50.037 26.8942 50.807 27.5017C51.0331 27.6783 51.2592 27.862 51.4852 28.0386C51.4358 28.0951 51.3863 28.1587 51.3369 28.2152L51.3581 28.2223Z" fill="#6885AA"/>
<path d="M99.1698 31.8675C98.7601 31.6555 98.8448 31.2599 98.7036 30.9773C98.5411 30.6453 98.3927 30.4051 97.9759 30.497C97.8912 30.5182 97.7923 30.497 97.7004 30.497C97.0976 30.4875 96.7161 30.7678 96.556 31.3376C96.5207 31.4648 96.5701 31.6908 96.3582 31.6697C96.1251 31.6414 96.224 31.4153 96.2098 31.2599C96.1321 30.497 96.5772 29.8682 96.7467 29.1689C96.8668 28.6814 97.1211 28.2222 97.3189 27.7489C97.3896 27.5723 97.4885 27.3957 97.6933 27.4169C97.8629 27.431 97.9124 27.6147 97.9901 27.763C98.5411 28.8298 98.5905 30.0731 99.1769 31.1257C99.297 31.3447 99.1839 31.5849 99.1627 31.8675H99.1698ZM97.6863 28.2717C97.2412 28.7309 97.1847 29.2395 97.1988 29.7411C97.2059 30.2497 97.6439 30.1226 97.9477 30.1296C98.3221 30.1437 98.2302 29.9177 98.2161 29.6492C98.1879 29.1406 97.8276 28.7874 97.6863 28.2646V28.2717Z" fill="#6885AA"/>
<path d="M79.6721 29.5927C79.3683 29.7693 79.0858 29.7269 78.8173 29.7198C78.4782 29.7057 78.344 29.8752 78.3228 30.172C78.3087 30.3909 78.3087 30.6099 78.3158 30.8289C78.3158 31.161 78.4994 31.3234 78.8244 31.3517C79.1564 31.38 79.4814 31.4153 79.8134 31.4506C79.9052 31.4577 80.0112 31.4647 80.0183 31.5848C80.0324 31.7261 79.9264 31.7968 79.8205 31.7968C79.2482 31.8038 78.6831 31.8038 78.1109 31.7897C77.8919 31.7897 77.8707 31.5919 77.8707 31.4223C77.8707 30.285 77.8778 29.1476 77.8919 28.0173C77.8919 27.5228 78.1038 27.2261 78.669 27.2826C79.0504 27.3179 79.439 27.2826 79.8275 27.2897C79.9476 27.2897 80.1172 27.2614 80.1101 27.4592C80.103 27.5864 79.9688 27.6146 79.8558 27.6217C79.6156 27.6217 79.3754 27.6217 79.1352 27.6358C78.4076 27.6924 78.0049 28.2575 78.2169 28.9428C78.3158 29.2748 78.6266 29.3313 78.9162 29.3666C79.1635 29.4019 79.439 29.3313 79.658 29.5927H79.6721Z" fill="#6885AA"/>
<path d="M51.7961 29.5079C51.7961 28.9427 51.7961 28.3776 51.7961 27.8054C51.7961 27.5934 51.7678 27.3109 52.0998 27.3391C52.4036 27.3674 52.2835 27.65 52.2976 27.8266C52.3541 28.8438 52.4601 29.8611 52.3259 30.8784C52.2764 31.2528 52.446 31.3658 52.7921 31.3446C53.0818 31.3305 53.3785 31.3446 53.6752 31.3588C53.8023 31.3588 53.9507 31.3658 53.9578 31.5424C53.9578 31.6696 53.873 31.7402 53.767 31.7826C53.216 31.9734 52.6508 31.9663 52.0928 31.8321C51.8526 31.7756 51.7819 31.5636 51.789 31.3164C51.8031 30.7159 51.789 30.1084 51.789 29.5079H51.7961Z" fill="#6885AA"/>
<path d="M10.0809 29.6069C10.4835 29.6069 10.8862 29.5715 11.2889 29.6069C11.6774 29.6351 11.7127 29.4585 11.635 29.1618C12.2355 29.0629 12.7795 29.3737 13.3729 29.3596C14.0369 29.3455 14.6939 29.3737 15.358 29.3879C15.4781 29.3879 15.6476 29.3525 15.6617 29.5291C15.6688 29.6634 15.5628 29.7623 15.4145 29.7764C13.9945 29.9036 12.5746 30.2356 11.1476 29.8965C10.7944 29.8117 10.3564 29.9742 10.0809 29.6069Z" fill="#6885AA"/>
<path d="M84.3629 29.6281C84.3629 30.2286 84.3629 30.8361 84.3629 31.4366C84.3629 31.5778 84.3841 31.7474 84.1721 31.7686C83.9743 31.7827 83.8684 31.6697 83.8472 31.4789C83.8401 31.4224 83.833 31.3659 83.8401 31.3165C83.9178 30.2427 83.7695 29.1689 83.7483 28.0951C83.7483 27.9679 83.7483 27.8408 83.7483 27.7136C83.7483 27.4381 83.9602 27.3816 84.158 27.3675C84.4194 27.3463 84.3699 27.5723 84.3699 27.7207C84.3699 28.3565 84.3699 28.9994 84.3699 29.6351C84.3699 29.6351 84.3629 29.6351 84.3558 29.6351L84.3629 29.6281Z" fill="#6885AA"/>
<path d="M55.187 30.4617C55.187 30.7372 55.187 31.0127 55.187 31.2811C55.187 31.5143 55.081 31.6626 54.8267 31.6767C54.5582 31.6909 54.5724 31.5072 54.53 31.3165C54.2757 30.172 54.6571 29.0276 54.5441 27.8832C54.53 27.756 54.5653 27.6006 54.7136 27.5794C54.9114 27.5441 54.968 27.7207 54.9821 27.8549C55.0598 28.519 55.1234 29.1901 55.1799 29.8612C55.194 30.059 55.1799 30.2639 55.1799 30.4617H55.187Z" fill="#6885AA"/>
<path d="M32.1924 22.0197C31.6626 22.0055 31.4789 21.5676 31.2246 21.2214C31.0974 21.0448 31.0268 20.8329 30.9279 20.6351C30.7159 20.2324 30.398 20.0205 29.9389 20.19C29.5362 20.3454 29.3243 20.9741 29.5221 21.4121C29.847 22.1256 30.4404 22.6272 30.9279 23.2206C31.1681 23.5103 31.5495 23.6869 31.6555 24.0825C30.5605 23.6727 29.9035 22.8391 29.3949 21.836C29.1194 21.292 29.0205 20.8046 29.4444 20.2818C29.8046 19.8297 30.5181 19.7237 30.8784 20.1688C31.3517 20.7551 31.7615 21.398 32.1995 22.0126L32.1924 22.0197Z" fill="#6885AA"/>
<path d="M95.6305 29.1547C95.6871 29.9035 95.5599 30.5676 95.7365 31.2175C95.786 31.4012 95.9061 31.6979 95.5811 31.7544C95.2491 31.8109 95.136 31.5636 95.136 31.274C95.136 30.4333 95.136 29.5927 95.129 28.752C95.129 28.4412 95.129 28.1304 95.1148 27.8195C95.1007 27.5864 95.1502 27.4098 95.4115 27.3886C95.7294 27.3603 95.6235 27.6217 95.6305 27.7701C95.6447 28.2646 95.6305 28.7591 95.6305 29.1547Z" fill="#6885AA"/>
<path d="M38.3808 6.61928C39.1649 6.73937 39.7513 7.1703 40.2175 7.77784C40.3659 7.97564 40.5072 8.15931 40.7474 8.22996C41.0017 8.30766 41.256 8.32886 41.4609 8.11693C41.6516 7.91206 41.581 7.69306 41.5315 7.45287C41.3902 6.77469 40.8604 6.39322 40.4295 5.93403C40.2741 5.77155 40.0127 5.66558 40.0833 5.36182C41.0017 5.79274 41.5315 6.57689 41.8989 7.45994C42.1037 7.94738 41.8494 8.36418 41.4044 8.61143C40.9805 8.85162 40.599 8.76685 40.2741 8.39244C39.7018 7.73545 39.1226 7.08553 38.3667 6.62634L38.3808 6.61928Z" fill="#6885AA"/>
<path d="M59.7223 28.7592C59.8141 29.6987 59.5598 30.5676 59.6305 31.4436C59.6446 31.6202 59.6305 31.8675 59.3903 31.8534C59.1501 31.8392 59.1854 31.592 59.1854 31.4154C59.1854 30.2497 59.1854 29.0771 59.1995 27.9114C59.1995 27.6995 59.1642 27.4169 59.4962 27.4311C59.8071 27.4452 59.7152 27.7136 59.7223 27.8973C59.7364 28.2081 59.7223 28.519 59.7223 28.7662V28.7592Z" fill="#6885AA"/>
<path d="M30.2002 10.0173C30.4192 10.1233 30.4051 10.3493 30.4616 10.533C30.836 11.8117 31.6838 12.7371 32.7152 13.5071C33.1743 13.8533 33.6971 14.1076 34.1846 14.4043C33.4075 14.4043 32.8423 13.9169 32.2348 13.5424C31.8392 13.3023 31.5425 12.8996 31.1751 12.6029C30.4051 11.9742 30.3062 11.0558 30.0943 10.1869C30.0731 10.1092 30.1155 10.0456 30.1932 10.0103L30.2002 10.0173Z" fill="#6885AA"/>
<path d="M33.0613 33.9726C32.4679 33.9302 32.2206 34.1563 32.2772 34.7073C32.3125 35.0534 32.4538 35.2442 32.8282 35.2371C32.9765 35.2371 33.2026 35.1523 33.252 35.3643C33.2803 35.4844 33.2309 35.6751 33.139 35.7669C32.9765 35.9294 32.8988 35.6963 32.7929 35.6257C32.5597 35.4773 32.4679 35.6539 32.3478 35.7952C32.1641 36.0142 32.2418 36.318 32.0511 36.7136C31.8957 35.7387 31.8604 34.9122 32.0652 34.0927C32.15 33.7324 32.5456 33.6971 33.0613 33.9726Z" fill="#6885AA"/>
<path d="M42.1744 18.6006C41.9624 18.0637 41.7717 17.5197 41.5386 16.9899C41.3478 16.559 41.0865 16.1634 40.7474 15.8172C40.6061 15.6759 40.4789 15.5134 40.486 15.2944C40.9028 15.2944 41.0441 15.683 41.2489 15.9161C41.92 16.672 42.3651 17.5338 42.1673 18.5935L42.1744 18.6006Z" fill="#6885AA"/>
<path d="M39.7301 17.3855C40.2175 17.5268 40.373 17.9295 40.4789 18.3604C40.6414 19.0386 40.6343 19.7238 40.4789 20.402C40.4436 20.5645 40.3941 20.6775 40.2175 20.6916C40.1963 20.6634 40.154 20.628 40.161 20.6069C40.4153 19.4836 40.154 18.424 39.7301 17.3926V17.3855Z" fill="#6885AA"/>
<path d="M56.2466 24.4286C56.3314 24.4993 56.4162 24.5629 56.4939 24.6335C57.1085 25.1351 57.6807 24.9655 57.8856 24.2026C57.9633 23.9129 57.9774 23.6021 58.0198 23.2983C58.1116 23.7575 58.2458 24.2238 58.0551 24.69C57.8644 25.1492 57.5253 25.3753 57.0166 25.2976C56.5221 25.2269 56.2466 24.9514 56.2466 24.4357V24.4286Z" fill="#6885AA"/>
<path d="M2.56437 23.9977C2.93878 24.0259 3.00943 24.3933 3.20723 24.6052C3.69467 25.1068 4.16092 25.6366 4.45762 26.2936C4.05495 26.3289 3.87834 25.9969 3.68054 25.7567C3.23549 25.2198 2.67033 24.7465 2.56437 23.9977Z" fill="#6885AA"/>
<path d="M31.9522 5.27002C31.9522 5.27002 31.9593 5.31241 31.9522 5.32653C31.1963 6.11068 30.9349 7.18447 30.3203 8.04632C30.1155 7.53062 30.4546 7.10676 30.6241 6.6829C30.8714 6.06123 31.3023 5.55259 31.9451 5.27002H31.9522Z" fill="#6885AA"/>
<path d="M40.2741 34.5448C40.2811 34.354 40.2741 34.2622 40.2952 34.1704C40.3235 34.0361 40.2529 33.8242 40.4436 33.803C40.6061 33.7889 40.6414 33.9726 40.6908 34.1138C40.7615 34.3187 40.8533 34.5165 40.9452 34.7143C41.1147 35.0534 40.9593 35.3501 40.6838 35.449C40.3023 35.5832 40.4153 35.1664 40.3376 34.9828C40.267 34.8203 40.2811 34.6225 40.267 34.5448H40.2741Z" fill="#6885AA"/>
<path d="M57.9774 19.8297C57.9774 18.2473 57.9421 16.6578 57.9915 15.0753C58.0057 14.7433 58.1257 14.3053 58.5284 14.1005C58.0127 15.7677 58.0763 17.4914 58.0834 19.208C58.0834 19.4129 58.1752 19.646 57.9845 19.8297H57.9774Z" fill="#6885AA"/>
<path d="M43.9617 22.8674C44.4279 23.5527 45.0637 24.0472 45.756 24.4852C45.8337 24.5346 45.862 24.6689 45.9114 24.7678C45.0284 24.69 43.9546 23.6445 43.9687 22.8674H43.9617Z" fill="#6885AA"/>
<path d="M44.9295 12.3485C44.9648 12.5181 44.8235 12.6028 44.7529 12.7229C44.2796 13.5283 44.4067 13.9663 45.2544 14.4396C44.7529 14.6374 44.4067 14.4608 44.2301 13.938C44.0535 13.394 44.3996 12.6099 44.9295 12.3485Z" fill="#6885AA"/>
<path d="M66.1085 13.2246C65.5716 12.5958 65.0276 11.96 64.4908 11.3313C65.2961 11.515 66.059 12.4121 66.1085 13.2246Z" fill="#6885AA"/>
<path d="M0.197804 13.613C0.247255 14.6868 0.296706 15.7677 0.155418 16.8415C-0.113029 16.1633 0.0423879 15.4568 0.0353235 14.7645C0.0353235 14.3831 -0.084771 13.9663 0.197804 13.6201V13.613Z" fill="#6885AA"/>
<path d="M37.3847 15.6618C38.07 15.5629 38.7623 15.9726 39.0307 16.6437C38.409 16.4388 37.8933 16.0574 37.3847 15.6618Z" fill="#6885AA"/>
<path d="M83.8189 34.0715C84.3629 34.5448 84.4406 34.8204 84.1721 35.2372C84.1227 35.3149 84.0873 35.4067 83.9814 35.3996C83.8542 35.3926 83.7977 35.3007 83.7624 35.1877C83.7059 35.0182 83.7412 34.3682 83.826 34.0715H83.8189Z" fill="#6885AA"/>
<path d="M40.5072 23.7858C40.5072 23.7152 40.4648 23.6092 40.5072 23.5739C41.0158 23.0723 41.2419 22.3517 41.7929 21.8855C41.694 22.7403 41.2419 23.3549 40.5142 23.7858H40.5072Z" fill="#6885AA"/>
<path d="M58.7474 11.7976C58.7333 12.0024 58.5779 12.1225 58.4366 12.2214C58.1893 12.391 57.9915 12.398 57.9562 12.0236C57.9279 11.7552 57.8926 11.4938 57.8573 11.2253C58.2105 11.3242 58.3659 11.741 58.7474 11.7976Z" fill="#6885AA"/>
<path d="M42.7042 34.4883C42.6547 34.7143 42.7607 35.0393 42.3792 35.0746C42.2379 35.0887 42.132 34.9404 42.1814 34.8062C42.2733 34.5448 42.2803 34.1492 42.5347 34.0715C42.7819 33.9938 42.6477 34.3329 42.7042 34.4883Z" fill="#6885AA"/>
<path d="M38.4938 34.3894C38.4797 34.672 38.3172 34.8698 38.0276 34.9475C37.9216 34.9758 37.8439 34.8769 37.8651 34.7851C37.9287 34.5095 38.0064 34.1987 38.2678 34.0715C38.4232 33.9938 38.4726 34.2128 38.4938 34.3894Z" fill="#6885AA"/>
<path d="M3.4898 22.3093C3.08007 22.2739 3.11539 21.8995 2.98823 21.6523C2.81869 21.2991 2.68446 20.9317 2.74804 20.522C3.16484 21.0447 3.27787 21.7017 3.4898 22.3093Z" fill="#6885AA"/>
<path d="M3.89954 5.29834C3.58871 5.88468 3.13658 6.358 2.69153 6.83838C2.8964 6.17432 3.26374 5.63037 3.89954 5.29834Z" fill="#6885AA"/>
<path d="M56.1972 20.6846C56.395 21.1932 56.2819 21.723 56.289 22.2458C56.289 22.9169 56.3879 23.588 56.2325 24.2521C56.0771 23.0653 56.176 21.8785 56.1972 20.6846Z" fill="#6885AA"/>
<path d="M32.4397 24.5345C32.9059 24.6476 33.4075 24.6688 33.7536 25.0785C33.2732 24.9937 32.7646 24.9937 32.4397 24.5345Z" fill="#6885AA"/>
<path d="M56.0276 33.9373C56.0488 33.8808 56.0488 33.8525 56.0629 33.8525C56.3597 33.8101 56.6705 33.6971 56.9107 33.9797C56.9531 34.0291 56.946 34.1422 56.8683 34.1634C56.5433 34.2481 56.3031 34.0221 56.0276 33.9302V33.9373Z" fill="#6885AA"/>
<path d="M51.7184 13.9592C52.0151 14.2135 52.0786 14.5456 52.0433 14.9129C51.789 14.6445 51.7042 14.3195 51.7184 13.9592Z" fill="#6885AA"/>
<path d="M2.26061 18.6076C2.09106 18.3251 1.9851 18.0425 2.14758 17.7175C2.24648 18.0072 2.42309 18.2827 2.26061 18.6076Z" fill="#6885AA"/>
<path d="M2.68447 6.84534C2.64208 7.13498 2.50786 7.36104 2.23235 7.49526C2.2818 7.21268 2.33125 6.92305 2.68447 6.84534Z" fill="#6885AA"/>
<path d="M2.6986 11.1264C2.52905 10.865 2.45841 10.6319 2.88227 10.5613C2.81163 10.745 2.88227 10.9781 2.6986 11.1264Z" fill="#6885AA"/>
<path d="M2.44428 12.1084C2.3595 11.8399 2.39483 11.6138 2.62089 11.4302C2.66327 11.6845 2.61382 11.9106 2.44428 12.1084Z" fill="#6885AA"/>
<path d="M64.413 13.7473C64.7098 13.8674 64.7521 14.0864 64.6603 14.3549C64.413 14.2206 64.3707 14.0016 64.413 13.7473Z" fill="#6885AA"/>
<path d="M2.53611 19.6108C2.26767 19.4695 2.22528 19.2505 2.31712 18.9821C2.52905 19.1445 2.58556 19.3565 2.53611 19.6108Z" fill="#6885AA"/>
<path d="M55.738 34.333C55.7168 34.3965 55.7309 34.5025 55.625 34.4672C55.5826 34.453 55.5614 34.3541 55.5543 34.2906C55.5543 34.2552 55.6038 34.1846 55.632 34.1775C55.7309 34.1705 55.7239 34.2552 55.7309 34.3259L55.738 34.333Z" fill="#6885AA"/>
<path d="M2.74098 20.3666C2.52199 20.2818 2.54318 20.1405 2.64915 19.978C2.81869 20.0769 2.86814 20.2041 2.74098 20.3666Z" fill="#6885AA"/>
<path d="M34.8769 23.2701C34.7073 23.3902 34.5519 23.3337 34.4106 23.2136C34.5802 23.1147 34.7285 23.1995 34.8769 23.2701Z" fill="#6885AA"/>
<path d="M53.8235 19.3776C53.7176 19.1515 53.7458 18.9184 53.8023 18.6782C53.9012 18.9043 53.8942 19.1374 53.8235 19.3776Z" fill="#6885AA"/>
<path d="M53.8306 16.2975C53.7105 16.1068 53.7388 15.909 53.7953 15.7112C53.8942 15.9019 53.8871 16.0997 53.8306 16.2975Z" fill="#6885AA"/>
<path d="M4.11853 5.07227C4.1256 5.22062 4.04789 5.29126 3.89954 5.29126C3.89954 5.14997 3.97018 5.07227 4.11853 5.07227Z" fill="#6885AA"/>
<path d="M40.493 15.3015C40.3447 15.3156 40.267 15.2449 40.2599 15.0966C40.4224 15.0754 40.5001 15.139 40.493 15.3015Z" fill="#6885AA"/>
<path d="M2.24647 23.5455C2.40189 23.5526 2.46547 23.6374 2.43721 23.7928C2.28179 23.7857 2.22528 23.6939 2.24647 23.5455Z" fill="#6885AA"/>
<path d="M43.9051 30.3981C44.0252 30.3486 44.1383 30.3486 44.2654 30.384C44.1524 30.4758 44.0323 30.4687 43.9051 30.3981Z" fill="#6885AA"/>
<path d="M4.77552 19.0385C4.77552 19.0385 4.8173 19.0872 4.8382 19.1081C4.82427 19.1081 4.81034 19.122 4.79641 19.129C4.79641 19.0942 4.78248 19.0663 4.77552 19.0315V19.0385Z" fill="#6885AA"/>
<path d="M53.8165 21.1438C53.7458 21.066 53.7458 20.9813 53.8165 20.9036C53.8165 20.9813 53.8165 21.066 53.8165 21.1438Z" fill="#6885AA"/>
<path d="M53.8306 16.7356C53.7458 16.6579 53.76 16.5801 53.8377 16.5024C53.8377 16.5801 53.8377 16.6579 53.8306 16.7356Z" fill="#6885AA"/>
<path d="M53.7882 23.3619C53.7882 23.2701 53.7882 23.1783 53.7882 23.0864C53.8589 23.1783 53.8589 23.2701 53.7882 23.3619Z" fill="#6885AA"/>
<path d="M35.5268 23.3054C35.442 23.3054 35.3643 23.3054 35.2795 23.3054C35.3643 23.2418 35.442 23.2559 35.5268 23.3054Z" fill="#6885AA"/>
<path d="M0.247253 12.8854C0.247253 12.956 0.240188 13.0337 0.233124 13.1044C0.169544 13.0267 0.197802 12.956 0.247253 12.8854Z" fill="#6885AA"/>
<path d="M42.1602 20.1547C42.1602 20.1053 42.1602 20.0629 42.1673 20.0134C42.2309 20.0629 42.2238 20.1123 42.1602 20.1547Z" fill="#6885AA"/>
<path d="M43.8204 22.5496C43.891 22.5778 43.9122 22.6343 43.891 22.705C43.8204 22.6697 43.7992 22.6202 43.8204 22.5496Z" fill="#6885AA"/>
<path d="M37.1714 23.2136L37.1226 23.2345L37.0739 23.2276C37.1087 23.2276 37.1366 23.2275 37.1714 23.2206V23.2136Z" fill="#6885AA"/>
<path d="M53.8094 17.5338C53.8094 17.4844 53.8165 17.4349 53.8235 17.3855C53.8235 17.4349 53.8165 17.4844 53.8094 17.5338Z" fill="#6885AA"/>
<path d="M53.8235 17.0747C53.8235 17.0747 53.8023 17.0111 53.7953 16.9828C53.7953 16.9758 53.8165 16.9616 53.8306 16.9475C53.8306 16.9899 53.8306 17.0323 53.8235 17.0747Z" fill="#6885AA"/>
<path d="M0.14705 16.9615C0.14705 16.9615 0.167942 17.0103 0.14705 17.0382C0.119194 17.0242 0.0843743 17.0173 0.0565186 17.0033C0.0843743 16.9894 0.11223 16.9755 0.140086 16.9615H0.14705Z" fill="#6885AA"/>
<path d="M4.57066 26.4066C4.6413 26.4207 4.66956 26.4631 4.66249 26.5338C4.63424 26.4914 4.60598 26.449 4.57066 26.4066Z" fill="#6885AA"/>
<path d="M64.7309 14.7434C64.7945 14.7787 64.8087 14.8282 64.7804 14.8918C64.7239 14.8564 64.7027 14.807 64.7309 14.7434Z" fill="#6885AA"/>
<path d="M39.9632 14.8352C39.9138 14.814 39.8714 14.7857 39.8219 14.7645C39.8926 14.7433 39.935 14.7716 39.9632 14.8352Z" fill="#6885AA"/>
<path d="M0.218996 13.3022C0.218996 13.3517 0.218996 13.4011 0.211932 13.4506C0.155417 13.3941 0.162481 13.3446 0.218996 13.3022Z" fill="#6885AA"/>
<path d="M2.91759 10.4765C2.94584 10.4341 2.98117 10.3918 3.00942 10.3494C3.02355 10.4271 2.98823 10.4624 2.91759 10.4765Z" fill="#6885AA"/>
<path d="M7.98275 24.4215C8.15936 23.6656 8.02514 22.8886 8.12404 22.1327C8.20881 21.4615 8.49139 20.7692 8.95764 20.3171C9.58637 19.7096 9.84068 19.0314 9.8972 18.2119C9.92546 17.7669 10.1021 17.3571 10.2787 16.9545C10.3423 16.7991 10.314 16.5518 10.5754 16.5589C10.858 16.5589 10.9215 16.7849 10.978 17.011C11.0699 17.3854 11.1759 17.7527 11.5008 18.0071C11.7198 18.1837 11.9529 18.3108 12.2143 18.4027C12.8501 18.6217 13.4082 18.883 13.6201 19.6319C13.7897 20.2323 14.2489 20.7268 14.4255 21.3485C14.6374 22.0973 14.3548 22.6413 13.5919 22.8462C13.3446 22.9097 13.0974 22.9733 12.8501 23.044C11.3454 23.489 11.4726 24.4498 12.0801 25.566C12.3344 26.0251 12.6947 26.4278 12.9278 26.9011C12.9914 27.0353 13.1115 27.1625 13.0197 27.3038C12.9278 27.4521 12.7583 27.3815 12.617 27.3744C11.0346 27.332 9.86188 26.3148 8.5479 25.6507C8.08872 25.4176 7.91211 24.9584 7.98982 24.4215H7.98275Z" fill="#E7E6E7"/>
<path d="M106.213 19.427C106.27 20.0981 106.001 20.7198 105.874 21.3627C105.711 22.1892 104.984 22.5636 104.327 22.8956C103.168 23.489 101.967 23.6798 100.703 23.0934C99.297 22.4435 99.191 21.2214 99.6361 19.9498C100.01 18.876 100.929 18.4663 101.967 18.4098C103.253 18.3391 104.539 18.4027 105.824 18.3886C106.149 18.3886 106.241 18.5299 106.213 18.8266C106.192 19.0244 106.213 19.2292 106.213 19.427Z" fill="#E7E6E7"/>
<path d="M52.114 19.8156C51.9939 20.3596 51.8667 20.9036 51.7466 21.4475C51.3793 21.6948 51.1603 22.048 50.9837 22.4436C50.3549 23.0017 49.6273 23.3196 48.7866 23.3549C48.7372 23.3549 48.6877 23.362 48.6383 23.369C48.4052 23.3761 48.165 23.3902 47.9248 23.3973C47.7694 23.3125 47.6069 23.3054 47.4444 23.3478C46.4059 23.2913 45.7207 22.6697 45.4452 21.7725C45.1979 20.953 45.2262 20.0982 45.8902 19.3353C46.632 18.4875 47.5786 18.4452 48.5535 18.3745C48.6312 18.3745 48.7089 18.3604 48.7796 18.3533C48.8855 18.3533 48.9915 18.3462 49.0975 18.3392C49.1399 18.3392 49.1822 18.3392 49.2317 18.3321C49.3377 18.3321 49.4366 18.3321 49.5425 18.3321C49.5849 18.3321 49.6273 18.3321 49.6767 18.3321C49.8957 18.3321 50.1077 18.3463 50.3267 18.3533C50.3691 18.3533 50.4044 18.3533 50.4468 18.3533C50.5527 18.3533 50.6658 18.3392 50.7717 18.3392C50.8141 18.3392 50.8636 18.3251 50.9059 18.318C51.1815 18.318 51.457 18.3251 51.7395 18.3321C51.8455 18.4098 51.9727 18.4098 52.0998 18.3957C52.0998 18.65 52.114 18.9114 52.121 19.1657C52.121 19.2717 52.121 19.3777 52.1281 19.4836C52.1281 19.5966 52.121 19.7097 52.114 19.8227V19.8156Z" fill="#E7E6E7"/>
<path d="M50.9837 22.4436C51.1532 22.048 51.3793 21.6948 51.7466 21.4475C51.7254 21.9561 51.4782 22.2882 50.9837 22.4436Z" fill="#6885AA"/>
<path d="M52.121 19.1586C52.121 18.9042 52.1069 18.6429 52.0998 18.3885C52.4884 18.6358 52.1351 18.9042 52.121 19.1586Z" fill="#6885AA"/>
<path d="M47.4515 23.3477C47.621 23.3054 47.7835 23.3124 47.9318 23.3972C47.7623 23.4608 47.5998 23.4678 47.4515 23.3477Z" fill="#6885AA"/>
<path d="M52.0928 18.3816C51.9656 18.3957 51.8455 18.3957 51.7325 18.318C51.8667 18.2686 51.9939 18.2544 52.0928 18.3816Z" fill="#6885AA"/>
<path d="M52.114 19.8157C52.114 19.7026 52.121 19.5896 52.1281 19.4766C52.227 19.5967 52.2199 19.7097 52.114 19.8157Z" fill="#6885AA"/>
<path d="M48.7866 18.3532C48.7089 18.3532 48.6312 18.3673 48.5606 18.3744C48.6312 18.2896 48.7089 18.2826 48.7866 18.3532Z" fill="#6885AA"/>
<path d="M50.9059 18.3109C50.8636 18.3109 50.8141 18.325 50.7717 18.3321C50.8141 18.3321 50.8636 18.318 50.9059 18.3109Z" fill="#6885AA"/>
<path d="M50.4468 18.3462C50.4044 18.3462 50.3691 18.3462 50.3267 18.3462C50.3691 18.2967 50.4044 18.2967 50.4468 18.3462Z" fill="#6885AA"/>
<path d="M49.2387 18.3321C49.1964 18.3321 49.154 18.3321 49.1045 18.3391C49.1469 18.2897 49.1893 18.2826 49.2387 18.3321Z" fill="#6885AA"/>
<path d="M48.6453 23.369C48.6948 23.369 48.7442 23.3619 48.7937 23.3549C48.7513 23.3972 48.7019 23.4114 48.6453 23.369Z" fill="#6885AA"/>
<path d="M49.6767 18.3251C49.6344 18.3251 49.592 18.3251 49.5425 18.3251C49.5849 18.2756 49.6273 18.2756 49.6767 18.3251Z" fill="#6885AA"/>
<path d="M65.4091 30.1437C64.7239 30.1437 64.6744 30.0801 64.8157 29.4231C64.8722 29.1547 64.9429 28.8862 65.0983 28.6602C65.3102 28.3423 65.5222 28.3988 65.6493 28.7167C65.7553 28.9639 65.7977 29.2394 65.8754 29.5008C66.0661 30.1225 66.0591 30.1437 65.4021 30.1437H65.4091Z" fill="#E7E6E7"/>
<path d="M92.4728 28.4412C92.4728 28.1798 92.4304 27.7489 92.9955 27.7489C93.709 27.7489 94.0128 28.0385 94.0128 28.6602C94.0128 29.2183 93.815 29.3878 93.1721 29.3878C92.5717 29.3878 92.4586 29.2536 92.4728 28.4483V28.4412Z" fill="#E7E6E7"/>
<path d="M90.3747 29.5928C90.417 29.9248 90.2757 30.059 89.9367 30.0519C89.5834 30.0449 89.421 29.8895 89.4704 29.5504C89.5199 29.2113 89.5481 28.738 89.9649 28.7662C90.3888 28.7874 90.2969 29.2819 90.3747 29.5998V29.5928Z" fill="#E7E6E7"/>
<path d="M81.2828 28.4977C81.3534 28.2293 81.1133 27.7348 81.7067 27.7136C82.4131 27.6853 82.8228 28.0456 82.837 28.632C82.8511 29.1123 82.5473 29.3737 81.961 29.3737C81.3746 29.3737 81.2828 29.2607 81.2828 28.4907V28.4977Z" fill="#E7E6E7"/>
<path d="M97.6863 28.2716C97.8276 28.7944 98.1879 29.1476 98.2161 29.6562C98.2302 29.9176 98.315 30.1437 97.9477 30.1366C97.6439 30.1225 97.2059 30.2567 97.1988 29.7481C97.1918 29.2465 97.2412 28.7379 97.6863 28.2787V28.2716Z" fill="#E7E6E7"/>
</g>
<defs>
<clipPath id="clip0_34_15927">
<rect width="118.915" height="36.7136" fill="white"/>
</clipPath>
</defs>
</svg>
