<svg width="109" height="22" viewBox="0 0 109 22" fill="none" xmlns="http://www.w3.org/2000/svg">
<g clip-path="url(#clip0_360_3351)">
<path d="M25.303 10.2062C25.3679 8.5794 25.1083 7.01529 24.4206 5.52751C24.3352 5.34296 24.2771 5.15614 24.1428 4.99096C23.5963 4.32339 22.9199 3.76861 22.6626 2.86295C22.5522 2.47449 22.0523 2.17374 21.6891 1.88325C20.9786 1.31593 20.8739 0.870512 21.3749 0.288386C21.68 -0.0659011 22.7856 -0.108051 23.1602 0.245097C24.6347 1.63491 25.8177 3.26622 26.7752 5.02057C27.0918 5.60156 27.1806 6.40241 27.3217 7.10643C27.7134 9.05216 27.8182 11.0514 27.5016 12.996C27.1339 15.2585 24.7656 17.7852 22.3928 18.5667C20.5255 19.1807 19.0237 18.7204 17.5093 18.0381C16.5301 17.5961 15.6341 16.8305 15.0693 15.8372C14.9532 15.6321 14.8279 15.4476 14.6776 15.2721C13.9626 14.4348 13.8738 14.4644 13.2442 15.3792C12.191 16.9126 11.0319 18.2671 8.97329 18.5701C8.23548 18.6783 7.5842 19.0258 6.7701 18.7877C4.8288 18.2203 3.08333 17.4867 1.76598 15.7984C0.027344 13.5725 -0.159386 11.1335 0.0888282 8.48257C0.291498 6.33064 1.21604 4.47035 2.34325 2.75473C2.86586 1.95844 3.55357 1.14733 4.28114 0.450151C5.07929 -0.313105 6.25774 -0.0362822 6.70862 0.941141C6.87827 1.3091 6.5811 1.41618 6.4456 1.59504C5.29221 3.11585 4.05 4.56832 3.36684 6.39899C2.72012 8.1317 2.31023 9.9225 2.65522 11.7224C3.22224 14.6729 5.33434 16.6745 8.54631 15.9705C9.88986 15.6754 10.9863 14.7401 11.6456 13.446C11.7959 13.1521 11.7367 12.8901 11.5351 12.6326C11.0524 12.014 10.6334 11.3374 10.0937 10.7735C9.49021 10.1424 9.33878 9.30848 9.1122 8.5737C8.61577 6.96973 8.33567 5.29284 9.50501 3.76519C9.94565 3.1899 10.5138 2.88346 11.197 2.84245C11.9553 2.79688 12.7318 2.74562 13.4696 3.02927C13.884 3.18876 14.2746 3.06914 14.6731 2.94839C16.4117 2.42436 17.9409 2.94839 18.8973 4.36896C19.1546 4.75059 19.0043 5.16981 19.0453 5.56397C19.1546 6.63025 19.3789 7.70108 18.9542 8.7685C18.3804 10.2096 17.7234 11.5926 16.3901 12.5016C15.8254 12.8867 15.8345 13.2239 16.2489 13.6966C17.6539 15.2983 19.2502 16.5571 21.5502 16.0012C23.2217 15.5979 24.4092 14.6103 24.9683 12.8548C25.2552 11.956 25.2541 11.0947 25.3007 10.2062H25.303ZM17.1495 6.38988C17.1734 5.75421 17.1678 5.10601 16.4766 4.81552C15.9438 4.5911 15.3767 4.63667 14.8906 5.00576C14.0901 5.61181 13.3375 5.62776 12.5223 5.0388C11.871 4.56832 11.3814 4.74489 11.1765 5.5241C11.0865 5.86585 11 6.21672 11.0877 6.5619C11.5055 8.216 11.5955 10.0045 13.358 11.0332C13.9171 11.359 14.2279 11.539 14.6594 10.9649C14.8484 10.7131 15.157 10.5525 15.3722 10.3167C16.3935 9.20025 17.0721 7.9255 17.1484 6.38988H17.1495Z" fill="#E32F4B"/>
<path d="M74.1134 11.9103C74.2171 13.5929 74.7454 15.0921 75.6494 16.4716C75.95 16.9307 76.1789 17.4399 76.4111 17.94C76.6582 18.4698 76.369 19.1817 75.876 19.3241C75.0767 19.5543 74.5575 19.3287 74.3582 18.7135C74.0281 17.6951 73.4758 16.7633 73.0147 15.8086C72.4431 14.6239 72.3054 13.3559 72.0036 12.1381C71.6154 10.5729 71.1258 8.9712 71.3592 7.30685C71.456 6.61422 71.5562 5.91704 72.0799 5.37593C72.1368 5.31783 72.1744 5.22214 72.1812 5.13898C72.3703 3.14653 74.0121 2.4129 75.4615 1.68496C78.4526 0.184646 81.2058 1.13701 83.5991 3.07363C84.3756 3.70246 84.8208 4.84506 84.9734 5.93527C85.2125 7.64747 84.9403 9.32891 84.2105 10.8668C83.6628 12.0219 82.4764 12.7043 81.2889 12.9379C79.3009 13.3286 77.2594 13.3366 75.2919 12.6417C74.8581 12.4879 74.4197 12.3273 74.1146 11.9103H74.1134ZM82.9535 7.65202C82.974 7.31027 83.0526 7.00952 82.9831 6.6746C82.5561 4.60925 81.0805 3.53386 79.2474 2.89477C78.5904 2.6658 77.6955 2.57694 77.1227 3.09641C76.6161 3.5555 76.0445 3.85853 75.4832 4.19573C74.2114 4.96012 73.6398 6.19956 73.7981 7.51532C74.0668 9.74243 75.9933 11.1527 78.2693 11.2382C79.2986 11.2769 80.1286 10.4282 81.1818 10.7187C81.2422 10.7358 81.3526 10.6595 81.4061 10.598C82.1599 9.73104 83.1676 8.99171 82.9535 7.65316V7.65202Z" fill="#E32F4B"/>
<path d="M40.912 13.299C40.1412 13.7957 39.3829 14.2035 38.7259 14.7332C38.1509 15.1969 37.5577 15.4839 36.8244 15.5181C36.3918 15.5375 35.9728 15.5489 35.5572 15.7767C35.1997 15.9727 34.7158 15.9544 34.3469 15.7767C33.2208 15.2356 32.0036 14.7845 31.0472 14.0201C29.9826 13.1691 29.2733 11.9468 29.1731 10.5148C29.1207 9.75725 29.0786 8.97918 29.1947 8.23529C29.4634 6.50828 30.125 5.06037 31.8476 4.16725C33.3495 3.38918 34.833 2.53479 36.5444 2.86402C38.7919 3.29691 41.0805 3.95878 42.0734 6.30437C43.0856 8.69894 43.4078 11.2405 42.8875 13.8367C42.8419 14.0634 42.8214 14.3003 42.8248 14.5316C42.8317 14.9861 42.8146 15.4942 42.3421 15.656C41.8798 15.8154 41.3299 15.7801 40.9211 15.427C40.5215 15.0818 40.7128 14.6193 40.7981 14.2024C40.8494 13.9529 41.035 13.7296 40.912 13.2967V13.299ZM35.2623 13.209C37.4347 13.2022 38.2511 12.8342 39.2018 11.8226C40.5533 10.3838 40.542 7.11319 38.9206 5.94097C37.8207 5.14695 36.7026 4.43952 35.2316 4.75735C34.397 4.93734 33.7969 5.4477 33.1456 5.9535C31.1076 7.53583 30.7956 9.55219 32.0219 11.834C32.639 12.9823 33.4815 13.1725 34.5564 13.2078C34.7921 13.2158 35.0277 13.209 35.2623 13.209Z" fill="#E32F4B"/>
<path d="M92.5063 15.9577C90.2804 16.2493 88.9049 14.9518 87.4817 13.5574C86.3203 12.4194 85.9935 11.1344 86.0436 9.62038C86.0926 8.13374 86.5822 6.86013 87.3769 5.57854C88.0521 4.48948 89.1258 4.26164 90.072 3.79115C91.5727 3.04612 93.2259 3.08714 94.8564 3.37079C97.3351 3.80141 98.8346 5.74828 98.6513 8.22943C98.6206 8.64637 98.3769 8.9232 98.1856 9.24559C97.5287 10.3506 96.4698 10.8211 95.3038 11.2654C93.3033 12.0286 91.3301 12.1585 89.2909 11.5536C89.0962 11.4955 88.8731 11.3725 88.7159 11.565C88.5599 11.7552 88.7489 11.9432 88.815 12.1289C88.971 12.5629 89.275 12.8272 89.6837 13.0539C91.3802 13.9926 93.0881 13.9368 94.8393 13.2339C95.297 13.0505 95.7889 12.94 96.2739 12.8386C96.7111 12.7475 97.0607 12.9263 97.3715 13.2544C97.7268 13.6303 97.3214 13.8422 97.219 14.0962C96.6166 15.584 95.1775 15.6547 93.8943 15.9417C93.4457 16.042 92.9538 15.9577 92.5074 15.9577H92.5063ZM92.1169 10.0396C93.5413 10.1136 94.4396 9.8653 95.0989 9.19546C95.3665 8.9232 95.5976 8.65776 95.946 8.50284C96.6155 8.20437 96.8501 7.211 96.2887 6.73937C95.5851 6.14699 94.886 5.57512 93.8852 5.39057C92.0509 5.0511 90.5661 5.76878 89.2682 6.82823C88.503 7.4525 88.2969 8.60992 89.2135 9.19204C90.2576 9.85505 91.4087 9.96555 92.1158 10.0396H92.1169Z" fill="#E32F4B"/>
<path d="M70.3732 11.9785C70.2183 13.5483 70.1602 15.7367 69.2892 17.8419C68.8383 18.9321 68.5525 20.0918 67.9628 21.1398C67.5233 21.9225 66.6158 22.2334 65.8063 21.8097C65.2893 21.5385 65.5091 21.1535 65.6867 20.8448C66.7228 19.0403 67.1156 16.992 67.9343 15.1067C68.022 14.9039 68.0265 14.6966 67.866 14.5348C67.6986 14.3651 67.5472 14.4938 67.4094 14.6089C66.2116 15.5988 64.9011 15.8927 63.2911 15.9303C61.483 15.9725 60.2431 15.3493 59.3333 14.0438C57.5344 11.4624 56.7351 8.69534 58.1458 5.60586C58.4521 4.93488 58.5602 4.27529 59.4768 4.28554C60.39 4.2958 60.7554 4.83463 60.4742 5.75851C60.2476 6.50126 59.8662 7.16541 59.725 7.96968C59.4017 9.79694 60.0006 11.3394 61.0549 12.6734C61.7973 13.6144 63.0258 13.9584 64.2464 13.6725C66.9847 13.0322 68.3328 10.2241 67.242 7.63362C66.9619 6.96947 66.7718 6.2609 66.6181 5.55574C66.5145 5.08184 66.4313 4.53161 67.0746 4.29352C67.5961 4.09985 68.6459 4.48262 68.8406 4.96564C69.6695 7.01959 70.3925 9.10203 70.3743 11.9762L70.3732 11.9785Z" fill="#E32F4B"/>
<path d="M46.8543 10.207C46.8282 11.3781 47.1743 12.5925 47.3758 13.8262C47.3997 13.9698 47.4316 14.1167 47.4248 14.2591C47.3963 14.8583 47.6901 15.6261 46.6619 15.7184C45.9366 15.7845 45.4857 15.3778 45.3355 14.4118C45.0622 12.6574 44.8948 10.8848 44.5464 9.14644C44.1342 7.08907 44.8561 5.15131 45.0258 3.15773C45.0759 2.56535 45.6508 2.3227 46.2839 2.37966C47.0149 2.44573 47.1356 2.93786 47.0559 3.5029C46.9659 4.13515 46.7371 4.74462 46.7314 5.39509C46.7234 6.28935 47.0194 6.51947 47.9326 6.29277C49.1645 5.98633 50.2599 5.37914 51.3131 4.7036C52.134 4.1773 53.0016 3.7296 53.5424 2.82394C53.8772 2.26346 54.8632 2.30675 55.3243 2.85698C55.7741 3.39354 55.5771 3.92782 55.0454 4.33793C54.459 4.79018 53.9728 5.33699 53.5641 5.94304C53.4058 6.17771 53.2476 6.33606 52.9709 6.40555C52.1625 6.60833 52.2797 6.97515 52.8206 7.3807C53.2874 7.73043 53.7485 8.09497 54.2472 8.39344C54.87 8.76595 55.3824 9.16808 55.5896 9.92564C55.7627 10.5568 56.3639 10.9577 56.5666 11.6527C56.8284 12.5503 56.932 13.4685 57.1461 14.3685C57.3431 15.1978 56.9821 15.7355 56.3821 15.7765C55.5726 15.8323 55.2503 15.4792 55.2367 14.5177C55.2082 12.6403 53.5527 10.5032 51.8425 9.62034C50.6447 9.00176 49.4287 8.9972 48.1922 8.88443C46.9397 8.77051 46.819 8.91063 46.8543 10.2047V10.207Z" fill="#E32F4B"/>
<path d="M105.95 15.9451C104.367 16.1969 101.607 14.2261 100.934 12.4341C100.342 10.8564 100.185 9.24898 100.19 7.63931C100.194 6.08545 100.612 4.55097 101.091 3.05635C101.251 2.55967 101.439 2.04931 101.462 1.53895C101.499 0.756331 102.134 0.706206 102.607 0.572921C103.168 0.414574 103.548 1.06961 103.355 1.80097C103.035 3.00851 102.763 4.23541 102.34 5.40764C102.051 6.20849 102.378 6.52176 103.042 6.4443C103.867 6.34861 104.729 6.48531 105.525 6.01482C106.044 5.70838 106.768 5.56598 107.207 6.15039C107.623 6.70745 107.196 7.54817 106.511 7.99815C105.366 8.74887 104.07 8.5985 102.827 8.62812C102.028 8.64749 101.922 8.92659 102.086 9.56681C102.345 10.5761 102.63 11.5741 103.1 12.5128C103.318 12.9491 103.714 13.1917 104.125 13.2851C105.032 13.4913 105.944 14.0655 106.904 13.3968C107.06 13.2874 107.294 13.2851 107.496 13.2452C108.704 13.0049 109.253 13.6269 108.893 14.8128C108.835 15.0042 108.724 15.1409 108.557 15.183C107.643 15.4131 106.884 16.1809 105.952 15.944L105.95 15.9451Z" fill="#E32F4B"/>
</g>
<defs>
<clipPath id="clip0_360_3351">
<rect width="109" height="22" fill="white"/>
</clipPath>
</defs>
</svg>
