<svg width="24" height="24" viewBox="0 0 24 24" fill="none" xmlns="http://www.w3.org/2000/svg">
<path d="M13.5445 11.7145L11.4041 10.0995C11.2983 10.0184 11.1537 10.0043 11.0338 10.0642C10.9139 10.1242 10.8398 10.2441 10.8398 10.3781V13.6152C10.8363 13.7492 10.9104 13.8726 11.0303 13.9326C11.1502 13.9925 11.2947 13.9784 11.4005 13.8973L13.5445 12.2787C13.6327 12.2117 13.6856 12.1095 13.6856 11.9966C13.6856 11.8838 13.6327 11.7815 13.5445 11.7145ZM11.5416 12.9064V11.0868L12.7476 11.9966L11.5416 12.9064Z" fill="#2D6DF6"/>
<path d="M12.1728 14.9163L11.7743 14.9128H8.56187C7.93419 14.9128 7.4264 14.405 7.4264 13.7773V10.1982C7.4264 9.57047 7.93419 9.06268 8.56187 9.06268H10.3744C10.3744 8.68537 10.0782 8.37858 9.70439 8.36095L9.64445 8.35742H8.5654C7.54983 8.35742 6.72467 9.18258 6.72467 10.1982V13.7773C6.72467 14.7929 7.54983 15.6181 8.5654 15.6181H12.8463C12.8463 15.2408 12.5501 14.934 12.1763 14.9163H12.1728Z" fill="#2D6DF6"/>
<path d="M15.4382 8.36084H11.1572C11.1572 8.73815 11.4534 9.04494 11.8272 9.06257L13.0826 9.0661H15.4382C16.0658 9.0661 16.5736 9.57389 16.5736 10.2016V13.7808C16.5736 14.4084 16.0658 14.9162 15.4382 14.9162H13.6256C13.6256 15.2935 13.9218 15.6003 14.2956 15.618L14.3556 15.6215H15.4346C16.4502 15.6215 17.2754 14.7963 17.2754 13.7808V10.2016C17.2754 9.18599 16.4502 8.36084 15.4346 8.36084H15.4382Z" fill="#2D6DF6"/>
</svg>
